<?xml version="1.0" encoding="utf-8"?>
<!-- Generator: Adobe Illustrator 22.1.0, SVG Export Plug-In . SVG Version: 6.00 Build 0)  -->
<svg version="1.1" id="Layer_1" xmlns="http://www.w3.org/2000/svg" xmlns:xlink="http://www.w3.org/1999/xlink" x="0px" y="0px"
	 viewBox="0 0 1403.4 443.8" style="enable-background:new 0 0 1403.4 443.8;" xml:space="preserve">
<style type="text/css">
	.st0{fill:#64C1D5;}
	.st1{fill:#66C2D6;}
	.st2{fill:#FDFDFD;}
</style>
<path class="st0" d="M62.3,246.6c-13.7-5.4-26.4-11.9-37.6-20.9c-11.6-9.3-22.4-19.3-24.2-35.3c-2.3-20.1,4.3-37.3,17.6-52.3
	c10.6-11.9,24.5-18.9,38.4-25.6c14.6-7,29.2-13.8,44-20.2c4.1-1.8,4.6-4,3.4-7.7c-3.5-10.7-10.3-18.9-19.6-25.1
	c-1.7-1.1-3.4-2.2-4.9-3.4c-5.1-4.2-6.3-9.2-3.6-14.1c3-5.3,9.8-7.8,15.6-5.8c3.9,1.4,6.8,4.2,9,7.6c6.8,10.7,12.2,22.2,16.4,34.2
	c2.2,6.1,2.1,6.1,8.1,3.4c30.7-13.9,60.2-29.7,89-47.4c33-20.3,69.3-31.2,108.1-33.5c25.9-1.5,51.3,0.7,75.6,10.1
	c26.1,10.2,44.4,28.2,51.6,55.7c7.5,28.7-2.1,53.1-20.9,74.6c-8.3,9.4-8.5,9.2-1.6,19.6c17.1,26,26.9,54.4,28.9,85.6
	c3.2,49.7-13.2,92.6-45.4,129.8c-31.2,36.1-71.1,57.4-117.9,65c-62,10-117.6-5-165.2-46.8c-15.2-13.3-27.5-28.9-36.8-46.8
	c-1.4-2.8-2.2-3.6-5.3-1.3c-38.3,29.2-79.8-1.7-83.8-38c-3.5-32,21.5-62.5,56.7-61.2C59.4,246.7,60.8,246.6,62.3,246.6z M431.1,213
	c-1.7,2.5-2.7,4-3.7,5.4c-8.7,12.1-20,19.8-35.3,18.9c-6.2-0.3-9,1.7-11.4,7.2c-4.1,9.5-11,16.6-21.8,17.8
	c-15.9,1.8-29.9-3.1-41.5-14.2c-2.1-2.1-3.2-2.7-6-0.6c-20.9,15.8-44.5,11.9-57.8-9.3c-10.3-16.6-15.8-34.8-16.4-54.3
	c-0.1-4.2-1.4-4.6-5-3.5c-11.8,3.5-23.6,7-35.2,11.1c-35.3,12.4-69.1,27.8-101.8,46.1c-8.9,5-12.1,10.3-11.1,20.1
	c0.9,8.9-6.2,13.3-14.6,10c-4.9-1.9-10-3.2-15.1-2.8c-30.3,2.7-44.9,34-27.5,59c7.8,11.2,25.3,20.9,42.1,10.3
	c7.6-4.8,14.7-9.6,17.4-18.9c1.3-4.6,6.6-7.3,10.6-6.4c4.5,0.9,7.5,5.1,7.3,10.5c-0.1,1.8-0.3,3.8-1.1,5.3c-1.7,3.2-1,6,0.6,9
	c6.7,12.6,14.3,24.5,24.1,34.8c40.4,42.6,90.4,60.7,148.3,55.7c47.2-4.1,87.1-24.4,118.9-59.8c28.1-31.2,42.6-67.9,42.3-110.1
	C437.3,240.6,435.5,227.2,431.1,213z M387,156.5c-12.7,0-23.5,1.2-34.2,1.8c-28.6,1.7-56.8,6.6-84.7,13.1
	c-12.5,2.9-12.5,3-12.1,15.5c0,0.8,0,1.7,0.1,2.5c1.7,16.4,6.4,31.7,17.8,44.1c5.2,5.6,12.4,6.7,19.2,3.6
	c7.1-3.2,12.5-8.1,15.7-15.3c2.1-4.7,7.5-7.5,11.9-6.1c4.7,1.5,6.9,5,6.6,10c-0.4,5.9,2.6,9.8,7.2,12.7c4.1,2.6,8.6,4.3,13.3,5.5
	c7.8,2,12.7-0.1,16.9-7c2.8-4.5,3.4-9.7,4.7-14.6c1.8-6.9,8.3-10.3,13.8-6.2c8.6,6.4,19.5,2.6,25.7-3.9c5.6-5.9,9.3-13,12.1-20.5
	c0.8-2.1,0.2-3.9-0.8-5.7c-3.2-5.4-6.7-10.8-9.6-16.3C405,159.4,398,152.4,387,156.5z"/>
<path class="st1" d="M1329.2,306.6c-18.2-0.3-35.9,0.4-53.5-0.9c-5.7-0.4-7.9-2.2-8.2-7.2c-0.3-5.5,2-8.3,7.6-9
	c10.7-1.4,21.5-2,32.4-2c2.7,0,5.2,0.4,5.1-3.9c-0.1-4-1.1-5.5-5.4-5.4c-6.1,0.1-12.3-0.4-18.4-0.9c-6.8-0.6-9.6-3.8-9.2-9.8
	c0.3-4.6,3.9-7.5,9.9-7.6c6.1-0.1,12.3-1.2,18.4-0.4c2,0.3,3.7,0.1,3.5-2.7c-0.2-2.1,0.3-4.4-3.2-4.4c-8.5,0-17,0.2-25.4-0.8
	c-8.3-0.9-16.5-1.5-24.8-2.3c-3.8-0.4-5.9-2.3-6.7-6.2c-3.5-18.1-4.1-36.3-0.8-54.6c1.1-5.9,7.5-9.2,13.6-7.3
	c1.5,0.5,2.9,1.8,4.7,0.9c12.5-6.1,26.1-4.7,39.3-5c22.8-0.5,45.6-0.2,68.2,3.6c6.6,1.1,8.7,2.9,9.7,9.5c2.3,16.2,3.7,32.4,3,48.8
	c-0.3,7.2-2.8,9.6-9.9,10.7c-14.7,2.3-29.4,3-44.2,3c-2,0-4.4-0.7-4.5,2.9c0,3.3,1.3,4.2,4.4,4.3c9.3,0.4,18.6,1,27.9,1.7
	c6,0.5,7.7,3,7.4,10c-0.2,4.9-2.7,7.2-8.1,7.2c-8.8,0-17.7,0-26.5-0.4c-4.5-0.2-4.1,2.3-4.3,5.3c-0.2,3.4,1.1,4.2,4.3,4.1
	c15.3-0.4,30.6,0.2,45.9,1.3c5.8,0.4,8.6,2.9,8.7,8.1c0.1,4.8-3.3,8.1-8.5,8.6C1363.9,307.3,1346.2,306.1,1329.2,306.6z M1268.3,211
	c-0.1,6.2,0.3,12.3,0.9,18.4c0.3,2.5,1.1,3.7,3.5,3.9c11.4,0.7,22.9,1.4,34.4,2c1.3,0.1,2.5,0.2,3-1.7c1.4-5.8-1.4-10.2-7.2-11
	c-4.1-0.6-8.2-1.4-12.3-1.9c-5.3-0.6-7.5-2.7-7.3-7.5c0.2-5.4,3.2-8.7,8.1-8.7c4.2,0,8.3,0.3,12.5,0.1c1.9-0.1,5.8,1.4,4.8-2.5
	c-0.7-2.9,2.3-8.1-4.6-8.4c-10.9-0.4-21.6,1.6-32.4,1.1c-2.6-0.1-3.4,1.4-3.4,3.8C1268.3,202.7,1268.3,206.8,1268.3,211z
	 M1366.3,219c0.3-5.1-1.3-12-1.3-18.9c0-3.2-1.9-4-4.4-4.3c-8.8-0.8-17.5-1.8-26.3-2.3c-7.5-0.4-7-0.2-6.5,7.3c0.4,5,2.5,6,6.8,5.9
	c3,0,5.9,0.5,8.9,1c4.5,0.7,5.7,3.7,5.8,7.9c0,4.3-1,7.7-5.9,8.2c-3.6,0.4-7.3,0.6-10.9,0.5c-2.8-0.1-3.7,1.4-3.2,3.7
	c0.6,2.5-2,6.9,2.8,7.2c7.4,0.5,15,0.9,22.4-0.4c3.9-0.6,9.5,0.7,11.3-1.9C1367.8,230.2,1366.3,225,1366.3,219z"/>
<path class="st1" d="M986.1,151.6c-9.3,0-18.7,0.1-28,0c-5.8-0.1-9-3.1-8.8-7.9c0.2-4.8,3.7-7.8,9-7.9c10.2-0.1,20.3,0,30.5-0.2
	c8.8-0.2,17.6-0.8,26.4-1c2.5-0.1,3.2-1.1,3-3.4c-0.1-1.5-0.2-3,0-4.5c0.3-3-1-4-4-4.2c-12.1-0.5-24.2-1.3-36.4-1.9
	c-5.3-0.3-8.2-2.8-8.5-7.8c-0.3-5.2,2.3-8.5,8-8.7c9.8-0.3,19.6,0,29.5,0c1.8,0,3.7,0.1,5.5,0.3c4.4,0.6,6.1-0.6,5.4-5.7
	c-0.9-7.4,4.6-12.1,11.8-10.9c4.1,0.7,6.6,3,6.7,7.4c0,1.5,0.1,3,0,4.5c-0.1,3.4,1.2,5,5,5.1c11.8,0.1,23.6,0.5,35.4,1
	c4.3,0.2,8.6,1,12.8,1.7c4.3,0.7,6.2,3.4,6.4,7.6c0.3,5.8,1,11.6,1.2,17.4c0.1,2.8,1.4,3.3,3.7,3.4c6,0.2,12,0.5,17.9,0.8
	c5.5,0.3,8.2,2.9,8.2,8c0,4.9-2.9,7.5-8.5,7.6c-5.8,0.1-11.7,0.1-17.5-0.1c-2.8-0.1-3.9,0.8-3.9,3.7c0,3.1-0.3,6.3-0.6,9.4
	c-0.4,6.1-2.7,8.2-9,9c-14.2,1.8-28.5,2.3-42.8,2.1c-0.5,0-1,0-1.5,0c-1.8,0.1-3.9-0.5-3.8,2.5c0.1,2.6,1.8,2.8,3.8,2.8
	c8.8-0.1,17.7-0.1,26.5-0.1c2.5,0,5,0,7.2,1.6c2.8,2.1,4.1,4.8,3.1,8.3c-0.9,3.5-3.1,5.1-6.9,5.1c-9.5,0.2-19,0.6-28.4,1
	c-1.6,0.1-3.5-0.4-3.7,2.2c-0.1,2.8,1.8,2.8,3.7,2.7c14.1-0.8,28.3-0.9,42.4-0.8c2.4,0,4.7,0.2,6.9,1.1c3.6,1.5,5.6,4.3,5,8.2
	c-0.6,3.8-3.3,5.4-7.2,5.5c-21.5,0.6-42.9,1-64.4,2c-10.8,0.5-21.6,0.9-32.4,0.8c-3,0-6-0.3-8.9-0.7c-4.4-0.6-7-3.1-6.6-7.8
	c0.4-4.5,3-6.8,7.6-7c10-0.4,20-0.8,29.9-1.3c1.6-0.1,4.2,1,4.2-1.9c0.1-3.3-2.7-2.3-4.4-2.3c-6-0.1-12,0-18-0.2
	c-6.2-0.2-9.2-2.8-9.3-7.5c-0.1-5,3-7.8,9.2-8.1c5.6-0.3,11.3-0.6,16.9-0.8c2.1-0.1,4,0.1,3.9-3c-0.1-2.9-2-3.1-4.1-3.1
	c-6.8,0-13.7,0-20.4-1c-4.6-0.7-7.6-3.6-7.6-7.7c0-4.5,3.4-8,8.3-8.1c6.5-0.2,13-0.4,19.5-0.2c3.1,0.1,3.5-1.6,3.8-3.9
	c0.4-3.3-1.8-3-3.8-3C1005.4,151.7,995.7,151.7,986.1,151.6C986.1,151.7,986.1,151.7,986.1,151.6z M1052.8,122.8
	c-3.5,0-7,0.1-10.5,0c-3.1-0.2-5.1,0.7-4.2,4.1c0.7,2.9-2.3,7.8,4.4,7.7c10.3-0.1,20.6-0.5,30.9,0.6c2.2,0.2,3.1-0.7,3-2.8
	c-0.1-1.8-0.2-3.7-0.1-5.5c0.1-2.3-0.8-3.2-3.2-3.4C1066.4,123.1,1059.6,122.1,1052.8,122.8z M1057.6,151.8
	C1057.6,151.8,1057.6,151.9,1057.6,151.8c-5.3,0.1-10.7,0.2-16,0c-2.8-0.1-3.3,1.3-3.3,3.7c0.1,2.2,0.1,3.9,3.1,3.8
	c10.8-0.3,21.6,0.5,32.4-0.8c2.8-0.3,3.1-1.6,3.2-3.8c0.1-2.7-1.5-2.9-3.5-2.9C1068.3,151.8,1063,151.8,1057.6,151.8z"/>
<path class="st0" d="M545.3,277.6c10.2-4.9,19.8-4.1,28,4.1c8.1,8.1,10.5,18.1,7.7,29c-3.6,14.1-10.3,26.4-23,34.4
	c-8.9,5.6-18.6,8.3-29,6.5c-4.9-0.8-6.6,0.9-7.9,5.5c-6.6,24.1-13.5,48.1-20.3,72.1c-1.8,6.2-5.3,7.9-11.3,6
	c-5.2-1.6-6.8-4.5-5.4-9.9c6.5-25,12.9-49.9,19.5-74.8c0.9-3.5,0.3-4.8-3.1-6c-14.7-5.4-25.8-14.8-30.1-30.3
	c-6-21.9,3.9-44.4,27.2-49.9c9-2.1,17.3-0.7,23.9,6.3c2.9,3,3.3,2.2,4.3-1.4c5.8-22.4,11.9-44.7,17.8-67.1c1.1-4.2,3.1-6,7.6-4.2
	c2.7,1.1,5.7,1.9,8.6,2.4c4.3,0.7,4.8,3,3.8,6.8c-5.9,21.7-11.7,43.4-17.5,65.1C545.6,274,544.9,275.7,545.3,277.6
	c-0.1,0.2-0.3,0.4-0.4,0.5C544.9,277.9,545.1,277.8,545.3,277.6z M535.4,334.7c4.4,0.1,8.3-1.1,12-3.2c9.9-5.9,14.2-15.5,17.1-26
	c1.4-5.3-0.4-9.9-4.1-12.4c-4.5-2.9-7.2,0.8-10,3c-13.8,10.4-30.4,6.2-37.5-9.5c-2.3-5.2-6.3-7.3-11.8-5.8
	c-7.7,2.1-12.7,6.9-14.7,14.8c-2.5,10,0.2,18.5,7.7,25.3C505.8,331.5,520.9,332.3,535.4,334.7z"/>
<path class="st1" d="M1267.4,129.8c-6-0.4-11.1-0.7-16.3-1.2c-5.2-0.4-8.9-4.5-8.5-9.2s4.2-7.7,9.5-7.5c15.3,0.8,30.6,0.6,46,0.5
	c5.9,0,7.7-2.1,6.9-8.1c-0.2-2-0.4-3.9-0.1-5.9c1.4-10,11.4-14.6,20-8.9c3.7,2.5,4.8,6.2,4.2,10.5c-0.4,2.8-0.5,5.7-1.3,8.4
	c-1,3.5,0.7,4,3.5,4c16.8,0.3,33.6,0.7,50.4,1c7.2,0.1,9.6,1.9,9.6,7.2c0,5.5-3,8.4-9.4,8.6c-6,0.2-12,0.2-18,0.2
	c-2.1,0-2.9,0.2-3.2,2.8c-1,6.7-4.5,12.8-7.4,20.4c8.7,0,16.6,0.2,24.6-0.1c6-0.2,11.9,0.9,17.9,1.2c4.5,0.2,7.1,3.3,7,7.5
	c-0.1,4.5-2.8,7.2-7.7,7.2c-23.8,0.1-47.6,0.7-71.4,2.2c-24,1.5-48,1.1-71.9,0.7c-1.7,0-3.3-0.2-4.9-0.5c-5.2-1.1-7.7-4.1-7.3-8.4
	c0.4-4,4.1-7.4,8.6-7.6c6.2-0.2,12.3-0.3,18.5-0.4c3.2-0.1,5.1-0.8,3.1-4.6c-1.4-2.6-2.1-5.6-3.5-8.3
	C1264.2,137.6,1263.8,134,1267.4,129.8z M1284.9,129.8c1.8,8.1,6.9,14.6,9,22.3c0.6,2.3,2.6,1.6,4.2,1.7c10.3,0.3,20.6-0.6,30.9-1.2
	c2.2-0.1,3.2-0.9,4-2.9c2.5-6,5.1-11.9,8-17.7c1.4-2.9,0.2-3.6-2.3-3.6c-4.2-0.1-8.3-0.1-12.5,0
	C1312.5,128.7,1298.8,128.5,1284.9,129.8z"/>
<path class="st1" d="M1032.5,284.5c-12.4,0.4-24.9,0.2-37.3-1.7c-8.9-1.3-10-1.6-11.8-12.9c-1.7-11.2-0.7-22.5,0.9-33.7
	c1.2-8.4,6.6-12.2,14.8-10c3.3,0.9,6,0.9,8.9-0.9c1.6-1,3.8-1.6,5.7-1.6c20.1,0.1,40.3-1.3,60.3,1.7c13.2,2,14.2,2.8,16,15.9
	c1.6,11.9,1.6,23.9,0.2,35.8c-0.4,3.7-2.6,5.3-5.9,5.6c-8.3,0.6-16.6,1.3-24.8,1.6C1050.4,284.7,1041.4,284.5,1032.5,284.5z
	 M1058.7,269.7c0-0.1,0-0.2,0-0.3c3,0,6,0,9,0c1.9,0,3.3-0.5,3.3-2.7c0.2-7.3,0.3-14.6-0.5-21.9c-0.3-2.6-1.6-3.2-3.8-3.6
	c-5.7-1-11.5-1.3-17.3-1.9c-3.6-0.4-4.4,0.8-4.1,4c0.3,2.9,1.4,4.7,4.4,4.9c2.5,0.2,5,0.3,7.4,0.8c4.6,0.8,6.4,3.2,5.9,8.2
	c-0.4,4.1-2.8,6.2-6.9,6.4c-1.8,0.1-3.7,0.1-5.5,0c-2-0.1-3.5,0.1-3.6,2.8c0,2.7,1,3.5,3.6,3.4
	C1053.4,269.5,1056,269.7,1058.7,269.7z M1015.1,247.3v0.1c3,0,6-0.2,8.9,0c2.6,0.2,4.2-0.2,3.9-3.4c-0.2-2.5,0.7-5.6-3.6-5.4
	c-5.8,0.2-11.6,0.1-17.4,0.1c-3,0-4.5,1.1-4.4,4.4c0,3.5,1.7,4.2,4.6,4C1009.8,247.2,1012.4,247.3,1015.1,247.3z M1016.1,269.5
	c0,0.1,0,0.1,0,0.2c3.3,0,6.6,0,9.9,0c2,0,3.2-0.5,3-2.8c-0.2-2,0.1-4.1-2.8-4.3c-6.4-0.6-12.8-1.2-19.2-2c-3.5-0.4-4.6,0.7-4.6,4.3
	c0,3.5,1.4,4.8,4.7,4.6C1010.1,269.4,1013.1,269.5,1016.1,269.5z"/>
<path class="st0" d="M794.9,134.1c1.4,15.4,3,32.4,4.6,49.5c1,10.9,2.1,21.8,3.4,32.7c1.8,15.2,3.8,30.3,5.6,45.5c0.4,3,0.5,6,0.5,9
	c-0.1,5.2-3.3,9.2-8.3,10.5c-14.2,3.7-28.5,6.5-43.2,6.8c-5.5,0.1-9.3-4.1-10.1-11.5c-0.5-5,2.2-8.5,7.4-9.3
	c8-1.3,16.1-2.7,24.1-3.8c4.1-0.6,6-2.1,5.2-6.8c-3.5-22.2-6.2-44.5-8.3-66.8c-1.8-19.5-4-39-4.9-58.6c-0.2-5-0.4-9.9,0.3-14.9
	c0.6-4.3,2.2-8,5.7-10.7c7.2-5.6,16-2.2,16.9,6.9C794.5,119.1,795.6,125.7,794.9,134.1z"/>
<path class="st0" d="M1225.3,157.5c6.4,0.1,6.9,4.9,8.5,8.8c1.5,3.7-0.2,6.2-3.3,7.9c-5.4,3-10.8,5.9-16.4,8.5
	c-2.7,1.2-3.3,2.7-2.9,5.4c2.5,15.2,4.9,30.5,7.3,45.8c0.9,5.6,1.8,11.2,2.5,16.8c0.8,6.5-2.2,10.4-8.4,11.2
	c-6,0.8-9.3-1.8-10.6-8.2c-3.8-19.1-6.4-38.3-8.6-57.7c-0.4-3.4-1.2-4-4.3-2.7c-5.3,2.3-10.8,4.4-16.3,6.3
	c-4.6,1.6-8.4-0.4-10.5-4.9c-2.3-5.1-1.6-8.5,3-11c18.2-10.1,37.2-18.5,56.9-25.4C1223.5,157.8,1224.7,157.7,1225.3,157.5z"/>
<path class="st1" d="M1030.5,306.5c-19.1,0-34.2,0-49.3,0c-2.6,0-5.3-0.1-7.9-0.6c-4.7-0.9-6.6-4-6.1-9.3c0.5-4.6,3.4-5.9,7.6-5.9
	c25.6,0,51.3,0.3,76.9-0.1c17.4-0.3,34.8-1.6,52.3-2.4c2.8-0.1,5.7-0.2,8.5,0.1c5.7,0.6,7.8,3.2,7.6,8.9c-0.2,4.8-2.7,7.1-8.2,7.4
	C1083.5,306,1055.1,306.9,1030.5,306.5z"/>
<path class="st0" d="M577.6,104.9c2.1,10.6,3.5,21,5.5,31.4c1.6,8.5,3.8,16.9,4.1,25.5c0.3,8.1-2.7,14.5-9.3,19.3
	c-4.8,3.5-9.7,7-15,9.9c-4.2,2.3-7.6,1.3-9.8-2.4c-3.7-6.3-7.2-12.7-10.2-19.4c-2.9-6.4-0.5-12.4,3.2-17.8
	c6.6-9.6,13.7-18.8,20.2-28.4C570.4,117.2,573.9,111,577.6,104.9z"/>
<path class="st0" d="M730.1,167.8c-0.8,2.8-1.7,6.7-3.1,10.4c-8.3,21.6-15.7,43.5-25.6,64.5c-3.8,8-10.9,10.1-18,5.1
	c-4.3-3-5.3-6.8-3.6-11.8c6.1-17.6,12.6-35.1,19.6-52.4c2.5-6.2,5.3-12.2,8.1-18.3c1.7-3.7,4.4-6.6,8.2-8.4
	C723,153.6,730.6,158.6,730.1,167.8z"/>
<path class="st0" d="M873.8,241.4c-4.9,0.2-7.7-2.5-9.5-6.7c-7.3-17.1-14.5-34.3-21.9-51.4c-2.2-5.2-4.7-10.3-7.3-15.3
	c-2.3-4.4-1.2-7.9,2.3-11.1c8-7.3,17.5-5.5,21.8,4.3c8.8,20.1,17.6,40.2,26.3,60.4C889.6,230.9,883.3,241.4,873.8,241.4z"/>
<path class="st1" d="M801.4,381.7c0.1-9.5,0-18.5,1.6-27.4c0.5-2.7,1.8-5,4.4-4c5.5,2.1,10.8,0,16.2,0.5c8.2,0.7,15.8,2.6,21.7,8.7
	c8,8.2,6.7,20.8-3,26.9c-2.1,1.3-2.4,2.3-1.2,4.3c1.7,2.9,3.1,5.9,4.8,8.8c1.6,2.8,1.2,5.3-1.6,6.8c-2.6,1.4-5.2,0.9-6.9-1.9
	c-0.9-1.4-2.2-2.7-2.5-4.3c-2.8-12.4-13.7-9.3-21.7-11.4c-2.1-0.6-1.8,1.4-1.8,2.7c0.1,3,0.3,5.9,0.4,8.9c0.1,3.2-0.3,6.2-4.3,6.7
	s-4.7-1.9-5.3-5.4C801,394.7,802,387.9,801.4,381.7z M811.2,372.4c-1,4.1-0.4,7.9,6.6,8.1c5.8,0.2,11.5,1.9,17.1-0.6
	c3.2-1.4,5.9-3.5,6.2-7.1c0.3-3.9-1.7-7-5-9.1c-4.1-2.6-8.7-3-13.4-3.2C811.2,359.7,811.2,359.6,811.2,372.4z"/>
<path class="st0" d="M1297.2,377.4c-0.1,14.6-8.4,25.1-21.9,28.2c-4,0.9-7.6,0.4-11.1-1.4c-2.5-1.3-4.5-1.9-7.2,0.1
	c-3.3,2.3-5.9,0.6-6.5-3.5c-2.5-15.7-1.5-31.5,0.1-47.2c0.4-4,2.9-5.5,6.6-3.8c2.2,1,3.9,1.1,6.1,0.2c12.4-5.5,28.9,4.9,31.7,15.8
	C1296.1,369.7,1297.5,373.7,1297.2,377.4z M1287.2,378.1c-0.1-15.7-11.3-23.3-24.6-18c-2.5,1-3.4,2.2-3.4,4.7
	c-0.1,7-1.1,13.9-0.1,20.9c0.6,4.6-0.8,10,6.8,9.1c0.3,0,0.6,0.2,0.9,0.3c6.4,2.4,12.8,0.5,16.4-5.2
	C1285.8,386,1287,381.7,1287.2,378.1z"/>
<path class="st0" d="M728.3,396.9c0,1.7-0.1,3.3,0,5c0.2,3.5-1.2,5.5-4.8,5.4c-3.4-0.1-4.1-2.3-4.3-5.4c-0.6-10.6-1.9-21.2-6-31.2
	c-1.7-4.2-2.9-9.7-8.5-10.2c-5.7-0.5-7.3,5-9.6,8.9c-1.8,3.2-3.1,6.6-4.6,9.9c-0.9,2-0.4,3.2,1.9,3.4c3,0.3,5.9,0.7,8.9,1.1
	c3.3,0.4,6.7,1.2,6.4,5.4c-0.3,4.4-3.7,4.4-7.1,4c-3.1-0.4-6.4-0.3-9.4-1c-4.5-1.2-5.9,1-6.4,4.8c-0.3,2-0.8,3.9-1.2,5.9
	c-0.6,2.9-2.1,4.4-5.2,4c-3.2-0.5-4.7-2.1-4.1-5.5c2.7-16.6,7.4-32.5,18.7-45.5c7.1-8.1,15.8-7.9,22.5,0.3
	C723.4,366,728.2,381.3,728.3,396.9z"/>
<path class="st1" d="M1043.2,370c9.5-5.4,18.2-10.2,26.9-15.1c2.4-1.4,4.6-1.9,6.4,0.9c2.1,3.2,2,5.7-1.8,7.7
	c-6.1,3.3-12.2,6.8-18.2,10.4c-1.2,0.7-2.8,1-3.6,3.2c4.3-1.6,6.4,0.9,8.8,3.5c5.1,5.3,8.9,11.6,13.5,17.3c2.2,2.7,1.9,5.3-0.7,7.4
	c-2.9,2.4-5.3,1-7.2-1.5c-4.8-6.1-9.6-12.3-14.4-18.5c-1.8-2.4-2.8-4.9-0.3-7.9c-7.8,1.1-9.5,2.9-9.7,9.1
	c-0.2,5.3-0.7,10.6-0.9,15.9c-0.1,3-1.4,4.8-4.5,4.8c-3.2,0-5.1-1.7-5.1-4.9c0-6.8-0.1-13.7,0.2-20.5c0.4-8.8,1.2-17.6,1.8-26.4
	c0.2-3.2,0.8-6.1,5.1-5.8c4.2,0.2,4.8,2.8,4.5,6.2C1043.7,360.2,1043.5,364.5,1043.2,370z"/>
<path class="st1" d="M1385,406.6c-9.9,0-15.9-2.9-21-7.8c-2.5-2.4-2.1-4.8,0-7c2.2-2.3,4.5-2.5,6.8,0.1c3.6,3.9,8.3,5.5,13.5,5
	c3.1-0.3,6-1.3,6.8-4.8c0.8-3.2-1.1-5.3-3.6-7c-3.8-2.5-8.1-3.8-12.2-5.7c-3.2-1.4-6.5-2.7-8.9-5.4c-7.5-8.5-3.3-20.9,8.7-24.5
	c9.6-3,18.3,0.8,26.6,5.1c1.8,0.9,1.6,2.9,0.7,4.4c-1.1,1.9-2.2,3.7-5.1,2.8c-4-1.3-8-2.4-12-3.2c-2.2-0.4-4.7-0.3-6.9,0
	c-2.7,0.4-5.1,1.7-5.7,4.8c-0.6,3.3,1.7,4.9,4.2,6c4.2,2,8.5,3.8,12.7,5.8c9.3,4.4,13.4,10.9,11.7,18
	C1399.4,401.8,1392.5,406.7,1385,406.6z"/>
<path class="st1" d="M1167.7,349.9c3.5,0,7,0,10.5,0c3,0,4.7,1.2,4.8,4.4c0.1,3.1-1.7,5.2-4.4,4.8c-6.5-0.9-6.7,2.8-6.7,7.6
	c0,8.1-0.4,16.3-0.9,24.4c-0.2,3.8,0.9,5.8,4.9,5.4c3.4-0.3,5.8,0.9,5.8,4.5s-2.3,5.3-5.9,5.1c-6.5-0.3-13-0.5-19.5-0.7
	c-3-0.1-4.8-1.4-4.8-4.5c0-2.9,1.7-5.2,4.5-4.9c5.5,0.7,5.3-2.5,5.4-6.3c0.2-8.8,0.6-17.6,1.1-26.4c0.1-2.8-0.4-4.4-3.7-4.4
	c-3.7,0.1-6.3-1.6-5.9-5.7c0.3-3.9,3.3-3.9,6.3-3.8c2.8,0.1,5.7,0,8.5,0C1167.7,349.7,1167.7,349.8,1167.7,349.9z"/>
<path class="st0" d="M954.1,349.7c2.5,0,5,0,7.5,0c2.8,0,5.4,0.1,5.6,4c0.2,4-2.1,5.3-5.6,5.4c-4.5,0.2-9,0.4-13.5,0.4
	c-2.1,0-2.6,0.4-2.3,2.9c1.4,12.6,2.3,25.2,3.4,37.7c0.3,3.5-0.2,6.6-4.5,6.7c-4.2,0.1-5-3-5.2-6.5c-0.6-12.5-3.2-24.8-3.1-37.3
	c0-2.5-1.2-2.7-3.1-2.7c-3.3,0-6.7-0.1-10-0.1c-3.2,0-5-1.4-5.1-4.7c0-3.4,1.8-4.9,5-4.8C933.5,351.2,943.8,349.8,954.1,349.7z"/>
<path class="st2" d="M545.3,277.6c-0.2,0.1-0.4,0.3-0.6,0.4c0.1-0.2,0.3-0.4,0.4-0.5C545.1,277.5,545.3,277.6,545.3,277.6z"/>
<path class="st1" d="M230.3,315.3c0,13.1-10.9,24.2-24,24.3c-13.5,0.1-24.2-10.4-24.1-23.9c0-12.7,11.5-24.6,23.9-24.8
	C219.1,290.5,230.3,301.9,230.3,315.3z"/>
<path class="st0" d="M369.8,270.6c13.1,0.2,23.7,11.5,23.4,24.9c-0.3,12.7-12,23.3-25.4,23c-12.6-0.3-23.2-10.9-23.2-23.4
	C344.5,281.9,356.3,270.3,369.8,270.6z"/>
<path class="st1" d="M339.5,323.6c-3.5,10-9.3,17-17.1,22.1c-20.3,13-41.6,16.4-63.8,4.9c-2.5-1.3-4.7-3.1-7-4.7
	c-0.9-0.7-2.2-1.4-1.8-2.7c0.5-1.6,2.1-1.3,3.4-1.3c10.7,0,21.2-1,31.8-2.6c17.4-2.6,33.9-8.3,50.3-14.2
	C336.3,324.7,337.4,324.4,339.5,323.6z"/>
</svg>
