<?xml version="1.0" encoding="utf-8"?>
<!-- Generator: Adobe Illustrator 22.1.0, SVG Export Plug-In . SVG Version: 6.00 Build 0)  -->
<svg version="1.1" id="Layer_1" xmlns="http://www.w3.org/2000/svg" xmlns:xlink="http://www.w3.org/1999/xlink" x="0px" y="0px"
	 viewBox="0 0 1512.3 557.8" style="enable-background:new 0 0 1512.3 557.8;" xml:space="preserve">
<style type="text/css">
	.st0{fill:#FFFFFF;}
	.st1{fill:#64C1D5;}
	.st2{fill:#66C2D6;}
	.st3{fill:#FDFDFD;}
</style>
<g>
	<path class="st0" d="M-2139.7,1405.8c-52.2,0-99.4-18.2-140.3-54c-13.1-11.5-24.4-24.7-33.5-39.3c-9.4,4.6-19.2,7-29.2,7
		c0,0,0,0,0,0c-17.1,0-33.8-7-46.8-19.8c-12.4-12.1-20.2-28.1-22.1-44.9c-2.2-20.5,4.4-41,18.2-56.4c4.3-4.8,9.1-8.9,14.3-12.3
		c-0.9-0.7-1.9-1.4-2.8-2.2c-13.4-10.7-27.9-24.1-30.4-46.7c-2.8-24,4.6-46.1,21.8-65.5c13.4-15,30.9-23.5,43.7-29.6
		c12.8-6.1,23.9-11.3,34.1-15.9c-2.2-2.8-4.9-5.4-8.3-7.6c-1.9-1.2-4-2.6-6.2-4.3l-0.2-0.2c-11.4-9.4-14.4-23.3-7.7-35.4l0.1-0.2
		c5.3-9.3,15.3-15.1,26.2-15.1c3.3,0,6.6,0.5,9.7,1.6l0.2,0.1c7.1,2.6,13,7.4,17.5,14.4l0.1,0.1c5.2,8.2,9.8,17,13.7,26.3
		c25.9-12.2,51-25.8,76.5-41.5c34.7-21.4,73.8-33.5,116-36c5.3-0.3,10.5-0.5,15.4-0.5c25,0,47,3.8,67.3,11.7
		c32.3,12.6,53.7,35.9,61.9,67.2c8.3,31.6,0.1,61.8-24.3,89.8c18.6,28.5,29.1,59.9,31.2,93.2c3.4,52.4-13.3,100.2-49.5,142
		c-33.3,38.5-76.3,62.3-128,70.7C-2114,1404.7-2127.1,1405.8-2139.7,1405.8z M-2275.8,1273c6.6,12.1,13,21.3,20.1,28.7
		c32.2,34,71.8,51.2,117.5,51.2c0,0,0,0,0,0c5.5,0,11.3-0.3,17-0.7c42.5-3.7,78.7-21.9,107.7-54.2c25.4-28.3,38.2-61.4,37.9-98.6
		c0-2.3-0.1-4.5-0.2-6.7c-9.2,5.1-18.1,6.6-25.3,6.7c-7.2,14.4-19.2,23.2-34.1,24.8c-2.7,0.3-5.5,0.5-8.2,0.5
		c-14.3,0-27.8-4.5-39.5-13c-9,4.9-18.5,7.5-27.9,7.5c-18.5,0-35.2-9.8-45.9-26.9c-8.9-14.3-14.7-29.7-17.4-46
		c-6.5,2-12.9,4.1-19.2,6.3c-33.7,11.9-67.1,27-99.2,44.9c-1.4,0.8-2.2,1.4-2.6,1.7c0,0.4,0,1,0.1,1.9c0.8,8.2-1.5,15.8-6.6,21.4
		c-4.9,5.4-11.9,8.4-19.6,8.4c-3.9,0-7.8-0.8-11.6-2.3c-2.9-1.1-5.3-1.7-7-1.7c-0.2,0-0.3,0-0.5,0c-8.2,0.8-14.6,4.9-17.6,11.4
		c-3,6.5-2.1,14.2,2.7,21c2.6,3.8,7.9,7.6,12.9,7.6c2.1,0,4.1-0.6,6.1-1.9c6.4-4.1,9.3-6.2,10.1-9.2c3.1-10.9,13.8-18.9,25.3-18.9
		c1.7,0,3.5,0.2,5.1,0.5c12.7,2.6,21.3,14,20.8,27.8l0,0.3C-2274.7,1267.5-2275,1270.2-2275.8,1273z M-1999.3,1195.7L-1999.3,1195.7
		z M-2051.6,1169.4c1.8,1,3.9,1.9,6.3,2.6c0.5-1.2,0.9-3.1,1.3-4.9c0.3-1.4,0.6-2.7,1-4.2c3.2-12.3,13.4-20.6,25.2-20.6
		c5.4,0,10.6,1.7,15.1,5.1c0.8-0.1,2.2-0.7,3.3-1.9c2.5-2.6,4.6-5.8,6.5-9.9c-0.1-0.2-0.3-0.5-0.5-0.7c-2.4-3.9-4.8-7.9-7-12.1
		c-1.5-2.8-2.6-4.3-3.3-5.1l-2.2,0.8h-3.1c-8.2,0-15.7,0.6-23,1.1c-3.3,0.2-6.8,0.5-10.2,0.7c-24.4,1.5-50.8,5.5-80.7,12.4
		c1.6,14.9,5.7,25.7,13.1,33.9c3.7-1.7,5.8-3.7,7.2-6.7c4.4-9.9,14.5-16.6,25.1-16.6c2.6,0,5.1,0.4,7.5,1.2
		C-2058.6,1148.1-2051.7,1157.5-2051.6,1169.4z M-2052.9,1168.6L-2052.9,1168.6z"/>
	<path class="st0" d="M-1067,1268.5c-4.4-0.1-8.8-0.1-12.1-0.1c-1.9,0-9.4,0-11.3,0c-9.3,0-20.1-0.1-31.1-0.9
		c-14.1-1-23.1-9.6-23.9-23.1c-0.6-11,4.3-19.7,12.9-24c-0.7-2.7-1-5.6-0.8-8.7c-2.1-0.2-4.2-0.4-6.2-0.6l-0.1,0
		c-11.2-1.2-19.3-8.5-21.6-19.7l0-0.2c-4.1-21-4.3-41.4-0.8-60.8c2.4-12.7,13.6-21.8,26.8-21.8c2.2,0,4.3,0.2,6.5,0.7
		c11.8-4.3,23.3-4.3,32.1-4.3l3.2,0c1.8,0,3.6,0,5.4,0c5.8-0.1,11-0.2,15.9-0.2c21.6,0,39.2,1.3,55.5,4c14.1,2.3,21.6,9.9,23.7,23.7
		l0,0.2c2.8,19.8,3.8,36.3,3.2,51.9c-0.4,9.5-4.2,21.3-19.2,25.6c0.3,2.6,0.3,5,0.3,7c0,0.1,0,0.3,0,0.4c12.1,2.5,19.8,11.6,20,24.1
		c0.3,13.6-9.8,24.5-23.9,25.8l-0.2,0c-8.9,0.8-17.5,0.8-24,0.8c-3.4,0-6.8,0-10.1-0.1c-3.2,0-6.4-0.1-9.6-0.1c-3.7,0-6.8,0-9.7,0.1
		l-0.4,0L-1067,1268.5z"/>
	<path class="st0" d="M-1397.7,1181.2c-1.2,0-2.3,0-3.5,0c-3.4,0-6.9-0.3-11.1-0.9c-13.6-1.9-22.4-12.6-21.2-26.1
		c0.7-7.7,4.3-14,10-18c0-0.1,0-0.3,0-0.4c-0.1-3.8,0.6-7.4,2-10.5c-2.3-3.4-3.7-7.4-4-11.8c-0.9,0-1.9,0-2.8,0c-3.2,0-6.3,0-9.5,0
		l-0.1,0c-9.8-0.2-15.8-4.4-19.1-7.9c-4.4-4.7-6.7-11-6.4-17.7c0.5-12.2,9-21.5,20.9-23.7c-0.4-1.7-0.7-3.6-0.9-5.5
		c-0.5-9.3,3.1-15.3,6.2-18.8c3.1-3.4,8.8-7.6,18.2-7.9c3.2-0.1,6.6-0.1,10.4-0.1c3.3,0,6.6,0,10,0.1c1.8,0,3.6,0,5.4,0
		c1.1-2.8,2.7-5.4,4.7-7.6c5-5.6,12.3-8.8,20.1-8.8c1.6,0,3.3,0.1,5,0.4c10,1.7,17.3,8.1,19.9,16.9c7.4,0.2,15.6,0.4,25.2,0.8
		c4.9,0.2,9.4,1,13.4,1.7l1.5,0.3c11.9,1.9,20,11.2,20.6,23.6c0.1,1.6,0.2,3.3,0.4,5.1c2.1,0.1,4.2,0.2,6.3,0.3
		c14.6,0.8,24.3,10.8,24.3,25c0,14.2-10.4,24.3-25.2,24.6c-1.9,0-3.8,0.1-5.7,0.1c-0.9,6-3.7,13.5-11.8,18.1
		c10.5,4.8,16.1,14.9,14.4,26.1c-1.9,11.8-11.1,19.6-23.6,19.9c-5.3,0.1-10.7,0.3-16.1,0.4c-15.7,0.4-32,0.8-48,1.6
		C-1377.2,1180.8-1387.3,1181.2-1397.7,1181.2z"/>
	<path class="st0" d="M-1902.3,1397.9c-3,0-6-0.5-9.2-1.5c-13.9-4.3-20.5-16.2-16.8-30.4c1.8-6.8,3.5-13.5,5.3-20.2
		c3.8-14.7,7.7-29.8,11.7-44.8c-19.3-10.3-27.3-25.5-30.6-37.2c-4.4-16.1-2.4-33,5.5-46.3c7.4-12.4,19.5-21.2,34.2-24.7
		c3.9-0.9,7.6-1.3,11.2-1.3c3.1,0,6.1,0.3,9,1c2-7.5,4-14.9,5.9-22.2c2.4-9.1,4.9-18.3,7.3-27.4c3.4-12.9,13.1-17.6,21-17.6
		c3,0,6.2,0.6,9.4,1.9l0.1,0c1.4,0.6,3.2,1.1,5,1.4c8.4,1.4,12.8,5.9,15.1,9.4c3.4,5.2,4.2,11.4,2.3,18.5l0,0.1
		c-4.3,15.7-8.5,31.6-12.7,47.3c6.6,1.8,12.7,5.5,18.1,10.8c12.2,12.2,16.5,28.3,12.1,45.3c-5.1,20.1-15.4,35.1-30.4,44.6
		c-10.2,6.4-20.8,9.7-31.6,9.7c-4.4,16.1-9,32.2-13.5,47.9c-1.6,5.6-3.2,11.2-4.8,16.8l0,0.1
		C-1882.2,1390.8-1891,1397.9-1902.3,1397.9z M-1893.4,1247.2c-0.1,2.3,0.8,4,3,6.1c2.7,2.4,5.9,4.1,9.6,5.3
		C-1885.6,1255.7-1889.9,1251.9-1893.4,1247.2z"/>
	<path class="st0" d="M-1111.1,1133.6c-11.1,0-22.3-0.2-33.1-0.4c-2.5,0-5.1-0.3-7.9-0.8l-0.4-0.1c-13.6-2.9-21.9-13.6-20.7-26.6
		l0-0.1c0.9-8.6,6.2-16,13.7-19.9c-1.8-1.2-3.4-2.7-4.8-4.4c-4.4-5.2-6.5-11.7-5.9-18.4c1.1-13.4,12-23.1,25.9-23.1
		c0.4,0,0.8,0,1.1,0l0.2,0c7.6,0.4,15.7,0.6,26.4,0.6c2.9,0,5.8,0,8.8,0c2.3-14.8,14.4-25.4,29-25.4c6,0,11.9,1.8,17.2,5.3l0.1,0.1
		c7,4.8,11.1,11.9,11.8,20.3c3.6,0.1,7.1,0.1,10.7,0.2c8.4,0.2,16.8,0.3,25.1,0.5c24.4,0.3,26.3,18.6,26.3,24.2c0,6.8-2.2,12.6-6,17
		c10.5,2.9,17.8,12.4,17.5,24c-0.3,13.8-10.7,23.8-24.7,23.8c-25.9,0.1-48.9,0.8-70.3,2.2
		C-1083.1,1133.2-1095.8,1133.6-1111.1,1133.6z"/>
	<path class="st0" d="M-1373.4,1246.6c-11,0-20.8-0.7-29.8-2.1c-5.6-0.8-12.6-1.9-18.2-7.6c-5.3-5.4-6.7-12-7.9-19.4l0-0.1
		c-2.1-13.9-0.7-27.3,0.9-38.7c2.2-15.3,12.9-25.2,27.3-25.2c2.3,0,4.6,0.3,7,0.8c3.7-1.7,7.9-2.7,11.9-2.7c0.8,0,1.5,0,2.2,0
		c4.3,0,8.7-0.1,12.9-0.1c4.4-0.1,8.9-0.1,13.4-0.1c9.4,0,21.7,0.2,34.3,2.1c7.6,1.2,15.4,2.3,21.7,8.5c6.5,6.4,7.7,14.7,8.7,21.9
		c1.8,13.1,1.8,26.5,0.2,40c-1.3,11.5-9.6,19.5-21.3,20.6c0,0-3.7,0.3-5.3,0.4c-6.6,0.5-13.5,1-20.3,1.3c-4.2,0.2-8.6,0.3-14.3,0.3
		c-2.3,0-4.6,0-6.8,0c-2.1,0-4.2,0-6.3,0C-1366.8,1246.5-1370.1,1246.6-1373.4,1246.6z"/>
	<path class="st0" d="M-1638.6,1250c-11.9,0-24.8-8.2-26.8-26.7l0-0.1c-1.4-13.9,7.7-25.6,21.6-27.8c1.8-0.3,3.6-0.6,5.4-0.9
		c2.7-0.4,5.4-0.9,8.1-1.3c-2.7-18.2-4.9-36.9-6.8-56.8c-0.4-4.6-0.9-9.1-1.3-13.6c-1.4-14.9-2.9-30.3-3.7-45.8l0-0.2
		c-0.2-5.3-0.5-11.4,0.5-17.9c1.3-9.2,5.4-16.6,12.2-21.8c5.2-4.1,11.4-6.3,17.7-6.3c13.9,0,25,10.5,26.5,24.9c0.1,1,0.2,2,0.3,2.9
		c0.6,5.4,1.4,12.1,0.9,20.2c1.1,12.4,2.4,25.8,3.7,39.4l0.8,8.6c1.1,12.1,2.2,22.7,3.4,32.3c0.9,7.6,1.9,15.2,2.8,22.7
		c0.9,7.4,1.9,15.1,2.8,22.7c0.4,3.3,0.6,6.8,0.6,11.1l0,0.3c-0.2,12.7-8.7,23.4-21,26.6c-18.4,4.8-32.9,7.1-47.1,7.3L-1638.6,1250z
		"/>
	<path class="st0" d="M-1185.3,1224c-10.1,0-22-5.8-25.3-22c-2.5-12.7-4.7-25.9-6.7-41.5c-0.1,0-0.2,0.1-0.3,0.1
		c-2.8,1-5.7,1.5-8.6,1.5c-9.9,0-18.4-5.7-22.9-15.3l-0.1-0.2c-6-13.3-1.9-26.2,10.3-32.9c18.5-10.3,38.5-19.2,59.3-26.5
		c1.8-0.7,3.3-1,4.3-1.2l2-0.7l2.9,0c11.4,0.2,19.4,6.3,23.6,18.2c0.1,0.4,0.3,0.7,0.4,1.1c4.6,11.4,0.3,23.2-10.9,29.3
		c-2.8,1.6-5.9,3.3-9.3,5c2,12.3,3.9,24.7,5.8,36.8l0.1,0.3c0.9,5.6,1.8,11.4,2.6,17.3c1.9,15.8-7.6,28.2-23.1,30.2
		C-1182.5,1223.9-1183.9,1224-1185.3,1224z"/>
	<path class="st0" d="M-1353.1,1268.5c-4.3,0-8.4,0-12.4-0.1h-49.2c-3,0-6.9-0.1-11.1-0.9c-13.4-2.6-21.2-13.4-19.8-27.6l0-0.2
		c1.4-12.8,11-21.1,24.5-21.1c7.7,0,15.4,0,23.1,0.1c7.7,0,15.4,0.1,23,0.1c11.8,0,21.5-0.1,30.5-0.2c11.2-0.2,22.8-0.8,34-1.5
		c5.8-0.3,11.8-0.7,17.8-0.9l0.2,0c1.5-0.1,3.1-0.1,4.9-0.1c2.2,0,4.2,0.1,6.1,0.3c14.6,1.5,23.3,11.7,22.8,26.4l0,0.1
		c-0.6,13.6-10.1,22.9-24.3,23.7C-1310.7,1267.9-1333.6,1268.5-1353.1,1268.5z"/>
	<path class="st0" d="M-1837.2,1154.2c-8.3,0-15.7-4.4-20.2-11.9c-4.7-8-8.2-14.7-11.1-21.1c-3.4-7.5-5.4-19.6,4.7-34.4
		c3.2-4.7,6.6-9.3,9.8-13.7c3.6-5,7.1-9.7,10.3-14.6l0.2-0.3c2.7-3.9,5.3-8.1,8-12.7c0.9-1.5,1.8-3,2.7-4.5l22.7-37.4l8.5,42.9
		c1.2,5.8,2.1,11.6,3,17.1c0.8,5,1.6,9.6,2.5,14.4c0.4,2,0.8,4,1.2,5.9c1.4,7,2.9,14.2,3.2,22.2c0.5,13.9-5.1,25.5-16.3,33.6
		c-5.1,3.7-10.7,7.7-16.8,11.1C-1828.8,1153-1833,1154.2-1837.2,1154.2z"/>
	<path class="st0" d="M-1704.9,1212.4c-6,0-12-2-17.4-5.8c-10.4-7.2-14.1-18.9-9.9-31.2l0-0.1c6.4-18.6,13.1-36.5,19.9-53.2
		c2.4-5.9,5-11.6,7.5-17.1l0.9-1.9c3.4-7.5,9.1-13.2,16.4-16.7l0.3-0.1c3.7-1.7,7.6-2.5,11.6-2.5c7.4,0,14.2,2.9,19.3,8.3
		c5.3,5.6,8,13.3,7.6,21.6l-0.1,1.9l-0.5,1.8c-0.2,0.6-0.4,1.4-0.6,2.1c-0.7,2.7-1.6,6.1-3,9.6c-2.2,5.7-4.3,11.4-6.4,17
		c-6,16-12.1,32.6-19.7,48.7C-1684.3,1205.9-1694,1212.4-1704.9,1212.4z"/>
	<path class="st0" d="M-1522.6,1203.3c-11,0-20-6.2-24.6-17c-2.7-6.4-5.4-12.7-8.1-19.1c-4.5-10.6-9.1-21.6-13.8-32.3l-0.1-0.1
		c-1.8-4.2-3.9-8.7-6.7-14.1c-5.8-11-3.6-22.8,5.9-31.5c6.4-5.8,13.9-8.9,21.6-8.9c11.8,0,22,7.1,27.2,18.9
		c8.6,19.8,17.6,40.2,26.3,60.5c4.3,9.8,3.4,21-2.4,30c-5.5,8.4-14.7,13.5-24.5,13.6C-1522,1203.3-1522.3,1203.3-1522.6,1203.3z"/>
	<path class="st0" d="M-1589.4,1369c-4.2,0-18-1.4-21.1-19.6c-1-5.5-0.9-10.5-0.9-14.9c0-2.4,0.1-4.6-0.1-6.3l-0.1-0.9l0-3.8
		c0.1-8.8,0.2-17.9,1.8-27.3c2.3-12.6,11.7-18.2,20-18.2c2.3,0,4.6,0.4,6.8,1.2c0,0,0,0,0.1,0c0.7,0,1.7-0.1,2.8-0.2
		c1.6-0.2,3.7-0.3,5.9-0.3c1.2,0,2.2,0,3.3,0.1c8.9,0.8,22,3,32.4,13.8c7.4,7.6,11,17.9,9.8,28.2c-0.7,5.8-2.9,11.2-6.3,15.9
		c2.8,5.3,3.5,11.2,2,16.6c-1.6,5.5-5.4,10.1-10.7,13c-3.4,1.8-7.1,2.8-10.8,2.8c-6.7,0-12.9-3.2-17.2-8.6
		c-3.8,5.1-9.5,7.7-14.8,8.4C-1587.3,1368.9-1588.4,1369-1589.4,1369z"/>
	<path class="st0" d="M-1124.4,1368c-3.6,0-7.2-0.6-10.7-1.8c-2.2,0.7-4.4,1.1-6.7,1.1c-10.4,0-18.8-7.8-20.5-18.9
		c-2.8-17.7-1.7-35.2,0-51.5c1.2-11.6,9.7-19.8,20.8-19.8c2,0,4,0.3,6,0.8c3.3-1,6.7-1.5,10.2-1.5c18.1,0,36.3,13.4,40.7,29.9
		c0.1,0.5,0.3,0.9,0.4,1.4c1.2,4.2,2.7,9.4,2.4,15.3c-0.4,22-14.1,39.3-35.1,44.1C-1119.4,1367.7-1121.9,1368-1124.4,1368z"/>
	<path class="st0" d="M-1672.1,1369.2c-0.2,0-0.5,0-0.7,0c-7.4-0.2-16-4.1-19.4-13.9c-0.2,0-0.5,0-0.7,0c-1.4,0-2.8-0.1-3.8-0.2
		c-3.2,8.5-10.6,13.8-19.8,13.8c0,0,0,0,0,0c-1,0-2.1-0.1-3.1-0.2l-0.5-0.1c-8-1.2-12.4-5.4-14.8-8.7c-2.3-3.2-4.8-8.7-3.5-16.4
		c2.6-15.9,7.5-36.5,22.6-53.8c6.7-7.6,15.2-11.8,24.1-11.8c9.2,0,17.9,4.4,24.4,12.5l0.1,0.1c10.2,12.7,16.4,31.9,16.6,51.3v0.1
		c0,0.7,0,1.4,0,2c0,0.8,0,1.5,0,2c0.5,8.4-2.8,13.8-5.7,16.9C-1660.3,1366.9-1665.9,1369.2-1672.1,1369.2z"/>
	<path class="st0" d="M-1358.4,1369.1c-12.6,0-22.1-9.4-22.1-21.9c0-1.3,0-2.7,0-4c0-5.6,0-11.4,0.2-17.2c0.3-6.2,0.7-12.3,1.2-18.1
		c0.2-2.9,0.4-5.7,0.6-8.6c1-16,12.2-21.7,21.5-21.7c0.5,0,1,0,1.6,0c7.9,0.4,12.7,4.1,15.4,7.2c0.7,0.8,1.3,1.6,1.9,2.5
		c1.3-0.7,2.6-1.5,3.9-2.2c3.9-2.3,7.8-3.4,11.7-3.4c7,0,13.4,3.6,17.4,9.8c4.8,7.4,4.5,13.9,3.5,18c-1.1,4.1-3.9,9.9-11.5,13.9
		c-0.2,0.1-0.4,0.2-0.6,0.3c0.6,0.8,1.2,1.7,1.8,2.5c1.5,2.1,3,4.1,4.5,6c3.9,4.8,5.7,10.6,5.1,16.4c-0.6,5.7-3.5,11-8.3,14.9
		c-5.1,4.2-10.3,5.1-13.7,5.1c-3.7,0-10.6-1.1-16.6-8C-1344.8,1365.8-1351,1369.1-1358.4,1369.1z"/>
	<path class="st0" d="M-1010.9,1368.5c-13.5,0-23.9-4-32.8-12.5c-8.7-8.4-9.3-20.7-1.6-29.8c-4.8-7.5-6.2-16.6-3.8-25.2
		c3.1-10.8,11.8-19.3,23.3-22.8c3.9-1.2,7.9-1.8,12-1.8c10.3,0,19.3,3.9,27.3,8c4.8,2.5,8.3,6.7,9.8,11.8c1.6,5.3,0.7,11.3-2.2,16.3
		c-1.2,2.1-2.5,3.8-3.9,5.3c5.6,7.9,6.4,16.8,4.7,24.1c-3.5,15.7-16.9,26.6-32.6,26.6L-1010.9,1368.5z"/>
	<path class="st0" d="M-1219.5,1368c-0.5,0-0.9,0-1.4,0c-6.4-0.3-12.9-0.5-19.2-0.7c-12.4-0.4-21.3-9.5-21.3-21.5
		c0-8.1,4-15,10.1-18.8c0.1-3.2,0.2-6.6,0.4-10.2c-1.3-0.9-2.5-2-3.6-3.2c-4.1-4.5-6-10.5-5.4-17c0.8-9.7,7.9-19.3,22-19.3
		c0.6,0,1.2,0,1.8,0c0.8,0,1.5,0,2.3,0c0.9,0,1.8,0,2.7,0c1,0,2,0,3,0h17v1.3c9,2.4,15,10,15.3,20c0.2,6.2-1.9,12-6,16.2
		c-1.5,1.6-3.3,2.9-5.2,3.9c-0.1,3-0.2,5.9-0.3,8.7c6.3,3.7,10.2,10.4,10.2,18.5C-1197.2,1358.5-1206.8,1368-1219.5,1368z"/>
	<path class="st0" d="M-1451.4,1368.7c-10.3,0-21.1-7-22-22.5l0-0.2c-0.2-4.7-0.8-9.6-1.4-14.7c-0.4-3.1-0.7-6.2-1-9.4
		c-10.8-1.4-18.5-9.8-18.9-21l0-0.3v-0.3c0-12.6,9.1-21.8,21.7-21.8c0.3,0,0.5,0,0.8,0l0.3,0c1.2,0.1,2.5,0.1,3.8,0.1h0
		c4,0,8.2-0.3,12.7-0.5c4.3-0.3,8.8-0.5,13.4-0.6l7.7,0c15.9,0,22.1,10.8,22.6,20.1c0.4,8-2.8,13.3-5.6,16.3
		c-2.6,2.8-7.1,6.1-14.4,6.9c0.3,3.9,0.7,7.8,1,11.7c0.3,3.7,0.6,7.3,0.9,11c0.6,7.5-1.2,13.6-5.3,18.2c-3.9,4.3-9.5,6.8-15.7,6.9
		C-1451,1368.7-1451.2,1368.7-1451.4,1368.7z"/>
	<path class="st0" d="M-1866.4,1215.4c0.9-1.8,2.1-3.4,3.6-4.9l8.7-8.7l11.2,5.6l30.3,15.3l-29.4,14.7c-0.5,0.3-1,0.6-1.6,0.9
		l-45.4,22.7L-1866.4,1215.4z"/>
	<path class="st0" d="M-2189.8,1301.5c-11.1,0-21.5-4.3-29.2-12c-7.6-7.7-11.8-18-11.7-28.9c0-21.9,18.9-41.3,40.5-41.7
		c0.4,0,0.7,0,1.1,0c22,0,40.5,19,40.5,41.4c0,22.6-18.3,41.1-40.9,41.3L-2189.8,1301.5z"/>
	<path class="st0" d="M-2027.5,1280.4c-0.3,0-0.6,0-0.9,0c-21.9-0.5-39.8-18.6-39.8-40.3c-0.1-10.6,4.4-21.2,12.1-29.1
		c7.9-8,18.7-12.5,29.6-12.5c0.3,0,0.6,0,0.8,0c10.8,0.2,20.9,4.6,28.4,12.5c7.8,8.1,11.9,18.6,11.6,29.8
		C-1986.2,1262.7-2005,1280.4-2027.5,1280.4z"/>
	<path class="st0" d="M-2110,1319.5c-11.9,0-23.7-3-35.1-8.9c-3-1.5-5.4-3.3-7.3-4.7c-0.5-0.4-1.1-0.8-1.6-1.1l-0.4-0.3l-0.4-0.3
		c-10.7-7.8-8.5-18.1-7.6-21.1c2.5-8.1,9.8-13.3,18.5-13.3c0.4,0,0.7,0,1.1,0l0.1,0c8.9,0,18.5-0.8,29.2-2.4
		c15.6-2.3,30.4-7.4,46.9-13.3c0.6-0.2,1.3-0.5,2-0.7c0.5-0.2,1.2-0.4,2.1-0.7l34.2-13l-12.1,34.5c-4.6,13-12.6,23.3-23.8,30.7
		l-0.1,0.1C-2079.4,1314.6-2094.8,1319.5-2110,1319.5z"/>
</g>
<g>
	<path class="st0" d="M338-1206.3c-62.2,0-118.3-21.5-166.6-64c-8.2-7.2-15.8-14.9-22.9-23.2c-4.5,0.6-8.9,0.9-13.5,0.9
		c-27.7,0-54.3-11.1-74.8-31.3c-18.9-18.6-31-43.1-33.8-69.1c-2.8-25.4,3.2-50.9,16.7-72.3c-8.2-11.6-15.3-26.5-17.4-45.2
		c-4-35.2,6.9-68.6,31.6-96.5c14.5-16.2,31.2-26.4,45-33.5c-5.3-17-3.7-35.6,5.4-52.2c0-0.1,0.3-0.5,0.3-0.6
		c12.4-21.8,35.8-35.4,61.1-35.4c7.8,0,15.4,1.3,22.7,3.8c0.1,0,0.6,0.2,0.7,0.2c13.6,4.9,25.3,13.6,34.2,25.4
		c13-7,26-14.5,39.2-22.6c40.4-24.9,85.7-38.9,134.6-41.8c6.1-0.4,12.1-0.5,17.8-0.5c30,0,56.8,4.7,81.7,14.4c0,0,0.1,0,0.1,0
		c44.1,17.2,74.6,50.7,86,94.4c9.3,35.6,3.9,70.6-15.5,102.6c13.7,27.6,21.6,57.1,23.6,88c2,31.4-2,61.9-12.1,90.7
		c-9.9,28.5-25.8,55.4-47.1,80.1c-39.6,45.8-90.7,74-151.9,84C368-1207.5,352.8-1206.3,338-1206.3L338-1206.3
		C338-1206.3,338-1206.3,338-1206.3z M243.2-1388c2.6,4,5.2,7.3,7.9,10.1c24.8,26.1,53.7,38.8,88.5,38.8c4.4,0,9-0.2,13.6-0.6
		c32.5-2.8,59.1-16.3,81.4-41.1c2-2.2,3.9-4.5,5.7-6.8c-1.9,0.1-3.9,0.2-5.8,0.2c-14.8,0-29.2-3-42.6-8.9
		c-8.2,2.2-16.6,3.4-24.9,3.4c-32,0-61.9-17.1-79.8-45.7c0-0.1-0.1-0.1-0.1-0.2c-3.2-5.2-6.1-10.4-8.7-15.8
		c-17.2,6.7-34.2,14.4-50.9,22.8C237.4-1420,243.2-1404.6,243.2-1388z"/>
	<path class="st0" d="M338-1246.3c-52.2,0-99.4-18.2-140.3-54c-13.1-11.5-24.4-24.7-33.5-39.3c-9.4,4.6-19.2,7-29.2,7c0,0,0,0,0,0
		c-17.1,0-33.8-7-46.8-19.8c-12.4-12.1-20.2-28.1-22.1-44.9c-2.2-20.5,4.4-41,18.2-56.4c4.3-4.8,9.1-8.9,14.3-12.3
		c-0.9-0.7-1.9-1.4-2.8-2.2c-13.4-10.7-27.9-24.1-30.4-46.7c-2.8-24,4.6-46.1,21.8-65.5c13.4-15,30.9-23.5,43.7-29.6
		c12.8-6.1,23.9-11.3,34.1-15.9c-2.2-2.8-4.9-5.4-8.3-7.6c-1.9-1.2-4-2.6-6.2-4.3l-0.2-0.2c-11.4-9.4-14.4-23.3-7.7-35.4l0.1-0.2
		c5.3-9.3,15.3-15.1,26.2-15.1c3.3,0,6.6,0.5,9.7,1.6l0.2,0.1c7.1,2.6,13,7.4,17.5,14.4l0.1,0.1c5.2,8.2,9.8,17,13.7,26.3
		c25.9-12.2,51-25.8,76.5-41.5c34.7-21.4,73.8-33.5,116-36c5.3-0.3,10.5-0.5,15.4-0.5c25,0,47,3.8,67.3,11.7
		c32.3,12.6,53.7,35.9,61.9,67.2c8.3,31.6,0.1,61.8-24.3,89.8c18.6,28.5,29.1,59.9,31.2,93.2c3.4,52.4-13.3,100.2-49.5,142
		c-33.3,38.5-76.3,62.3-128,70.7C363.7-1247.4,350.6-1246.3,338-1246.3z M201.9-1379.1c6.6,12.1,13,21.3,20.1,28.7
		c32.2,34,71.8,51.2,117.5,51.2c0,0,0,0,0,0c5.5,0,11.3-0.3,17-0.7c42.5-3.7,78.7-21.9,107.7-54.2c25.4-28.3,38.2-61.4,37.9-98.6
		c0-2.3-0.1-4.5-0.2-6.7c-9.2,5.1-18.1,6.6-25.3,6.7c-7.2,14.4-19.2,23.2-34.1,24.8c-2.7,0.3-5.5,0.5-8.2,0.5
		c-14.3,0-27.8-4.5-39.5-13c-9,4.9-18.5,7.5-27.9,7.5c-18.5,0-35.2-9.8-45.9-26.9c-8.9-14.3-14.7-29.7-17.4-46
		c-6.5,2-12.9,4.1-19.2,6.3c-33.7,11.9-67.1,27-99.2,44.9c-1.4,0.8-2.2,1.4-2.6,1.7c0,0.4,0,1,0.1,1.9c0.8,8.2-1.5,15.8-6.6,21.4
		c-4.9,5.4-11.9,8.4-19.6,8.4c-3.9,0-7.8-0.8-11.6-2.3c-2.9-1.1-5.3-1.7-7-1.7c-0.2,0-0.3,0-0.5,0c-8.2,0.8-14.6,4.9-17.6,11.4
		c-3,6.5-2.1,14.2,2.7,21c2.6,3.8,7.9,7.6,12.9,7.6c2.1,0,4.1-0.6,6.1-1.9c6.4-4.1,9.3-6.2,10.1-9.2c3.1-10.9,13.8-18.9,25.3-18.9
		c1.7,0,3.5,0.2,5.1,0.5c12.7,2.6,21.3,14,20.8,27.8l0,0.3C203-1384.6,202.8-1381.9,201.9-1379.1z M478.4-1456.4L478.4-1456.4z
		 M426.2-1482.7c1.8,1,3.9,1.9,6.3,2.6c0.5-1.2,0.9-3.1,1.3-4.9c0.3-1.4,0.6-2.7,1-4.2c3.2-12.3,13.4-20.6,25.2-20.6
		c5.4,0,10.6,1.7,15.1,5.1c0.8-0.1,2.2-0.7,3.3-1.9c2.5-2.6,4.6-5.8,6.5-9.9c-0.1-0.2-0.3-0.5-0.5-0.7c-2.4-3.9-4.8-7.9-7-12.1
		c-1.5-2.8-2.6-4.3-3.3-5.1l-2.2,0.8h-3.1c-8.2,0-15.7,0.6-23,1.1c-3.3,0.2-6.8,0.5-10.2,0.7c-24.4,1.5-50.8,5.5-80.7,12.4
		c1.6,14.9,5.7,25.7,13.1,33.9c3.7-1.7,5.8-3.7,7.2-6.7c4.4-9.9,14.5-16.6,25.1-16.6c2.6,0,5.1,0.4,7.5,1.2
		C419.2-1504,426.1-1494.6,426.2-1482.7z M424.9-1483.5L424.9-1483.5z"/>
	<path class="st0" d="M1410.2-1343.6c-4.2-0.1-8.3-0.1-11.5-0.1l-11.3,0c-10,0-21.7-0.1-33.9-1c-16.4-1.2-30.9-7.4-41.9-18
		c-11.3-10.9-18.1-26.1-19.1-42.6c0-0.1,0-0.1,0-0.2c-0.3-5.4,0-10.6,0.9-15.7c-7.9-8.5-13.5-19.2-16-31.5c0-0.1-0.1-0.6-0.1-0.6
		c-5-25.8-5.3-51.3-0.9-75.5c0-0.1,0-0.2,0-0.2c5.9-31.6,33.7-54.5,66.1-54.5c1,0,2,0,3,0.1c14.4-3.6,27.3-3.6,35.6-3.6l3.2,0
		c1.5,0,3,0,4.5,0c6.1-0.1,11.6-0.2,16.8-0.2c23.9,0,43.6,1.5,62.2,4.6c31.2,5.2,51.9,26,56.6,57.2c0,0.1,0.1,0.5,0.1,0.5
		c3.2,22.4,4.3,41.2,3.5,59.3c-0.4,9.3-2.4,18.1-5.9,25.9c4.3,8.6,6.8,18.3,7,28.7c0.7,34.5-25.1,63.1-60,66.4
		c-0.1,0-0.5,0.1-0.6,0.1c-10.4,0.9-20,1-27.3,1c-3.5,0-7,0-10.5-0.1c-3.1,0-6.2-0.1-9.3-0.1c-3.3,0-6,0-8.5,0.1l-0.4,0
		c-0.4,0-0.8,0-1.2,0C1411-1343.6,1410.2-1343.6,1410.2-1343.6z"/>
	<path class="st0" d="M1410.8-1383.6c-4.4-0.1-8.8-0.1-12.1-0.1c-1.9,0-9.4,0-11.3,0c-9.3,0-20.1-0.1-31.1-0.9
		c-14.1-1-23.1-9.6-23.9-23.1c-0.6-11,4.3-19.7,12.9-24c-0.7-2.7-1-5.6-0.8-8.7c-2.1-0.2-4.2-0.4-6.2-0.6l-0.1,0
		c-11.2-1.2-19.3-8.5-21.6-19.7l0-0.2c-4.1-21-4.3-41.4-0.8-60.8c2.4-12.7,13.6-21.8,26.8-21.8c2.2,0,4.3,0.2,6.5,0.7
		c11.8-4.3,23.3-4.3,32.1-4.3l3.2,0c1.8,0,3.6,0,5.4,0c5.8-0.1,11-0.2,15.9-0.2c21.6,0,39.2,1.3,55.5,4c14.1,2.3,21.6,9.9,23.7,23.7
		l0,0.2c2.8,19.8,3.8,36.3,3.2,51.9c-0.4,9.5-4.2,21.3-19.2,25.6c0.3,2.6,0.3,5,0.3,7c0,0.1,0,0.3,0,0.4c12.1,2.5,19.8,11.6,20,24.1
		c0.3,13.6-9.8,24.5-23.9,25.8l-0.2,0c-8.9,0.8-17.5,0.8-24,0.8c-3.4,0-6.8,0-10.1-0.1c-3.2,0-6.4-0.1-9.6-0.1c-3.7,0-6.8,0-9.7,0.1
		l-0.4,0L1410.8-1383.6z"/>
	<path class="st0" d="M1080.1-1430.9c-1.2,0-2.5,0-3.7,0c-5.2,0-10.4-0.4-16.4-1.2c-34.6-4.7-58.6-34.4-55.6-69.1c0,0,0-0.1,0-0.1
		c0.2-2.2,0.5-4.4,0.9-6.6c-5.1-3-9.7-6.7-13.8-11.1c-11.9-12.6-18-29.2-17.3-46.8c0.8-18.4,9-34.8,22.1-46.2
		c2.6-10.1,7.5-19.3,14.6-27c11.8-12.9,28.2-20.3,46.3-21c0.1,0,0.1,0,0.2,0c2.4-0.1,5-0.1,7.7-0.1c12-10.5,27.7-16.4,44.1-16.4
		c3.8,0,7.7,0.3,11.6,1c0.1,0,0.1,0,0.2,0c13.3,2.3,25.2,8.3,34.4,17c1.8,0.1,5.7,0.2,5.8,0.2c7.3,0.3,13.6,1.4,18.2,2.2l1.4,0.2
		c20.8,3.4,37.8,16.3,46.9,34.2c7.6,3.3,14.4,8,20.1,13.9c11.6,11.9,18,28.1,18,45.4c0,23-11.2,42.6-28.8,54
		c1.2,6.8,1.3,13.8,0.2,21c0,0.1,0,0.1,0,0.2c-4.9,30.8-30.3,52.8-62,53.7c-5.3,0.1-10.7,0.3-16,0.4l-0.1,0
		c-15.5,0.4-31.6,0.8-47.1,1.5C1101.9-1431.3,1091.3-1430.9,1080.1-1430.9z"/>
	<path class="st0" d="M1080.1-1470.9c-1.2,0-2.3,0-3.5,0c-3.4,0-6.9-0.3-11.1-0.9c-13.6-1.9-22.4-12.6-21.2-26.1
		c0.7-7.7,4.3-14,10-18c0-0.1,0-0.3,0-0.4c-0.1-3.8,0.6-7.4,2-10.5c-2.3-3.4-3.7-7.4-4-11.8c-0.9,0-1.9,0-2.8,0c-3.2,0-6.3,0-9.5,0
		l-0.1,0c-9.8-0.2-15.8-4.4-19.1-7.9c-4.4-4.7-6.7-11-6.4-17.7c0.5-12.2,9-21.5,20.9-23.7c-0.4-1.7-0.7-3.6-0.9-5.5
		c-0.5-9.3,3.1-15.3,6.2-18.8c3.1-3.4,8.8-7.6,18.2-7.9c3.2-0.1,6.6-0.1,10.4-0.1c3.3,0,6.6,0,10,0.1c1.8,0,3.6,0,5.4,0
		c1.1-2.8,2.7-5.4,4.7-7.6c5-5.6,12.3-8.8,20.1-8.8c1.6,0,3.3,0.1,5,0.4c10,1.7,17.3,8.1,19.9,16.9c7.4,0.2,15.6,0.4,25.2,0.8
		c4.9,0.2,9.4,1,13.4,1.7l1.5,0.3c11.9,1.9,20,11.2,20.6,23.6c0.1,1.6,0.2,3.3,0.4,5.1c2.1,0.1,4.2,0.2,6.3,0.3
		c14.6,0.8,24.3,10.8,24.3,25c0,14.2-10.4,24.3-25.2,24.6c-1.9,0-3.8,0.1-5.7,0.1c-0.9,6-3.7,13.5-11.8,18.1
		c10.5,4.8,16.1,14.9,14.4,26.1c-1.9,11.8-11.1,19.6-23.6,19.9c-5.3,0.1-10.7,0.3-16.1,0.4c-15.7,0.4-32,0.8-48,1.6
		C1100.5-1471.3,1090.4-1470.9,1080.1-1470.9z"/>
	<path class="st0" d="M575.5-1214.2c-7,0-14.1-1.1-21.1-3.3c-34.3-10.7-52.6-43.7-43.6-78.6c1.7-6.4,3.3-12.8,5-19.1
		c0,0,3.6-14.1,5.3-20.6c-11.2-11.7-19.4-26-23.8-41.8c0,0,0-0.1,0-0.1c-7.3-26.5-3.7-54.7,9.7-77.3c12.7-21.4,33.1-36.5,57.6-42.7
		c1.9-7.2,3.9-14.4,5.8-21.7c7.4-28.3,31.4-47.4,59.7-47.4c7.6,0,15.2,1.4,22.6,4.2c17,3.2,31.4,12.7,40.5,26.8
		c9.5,14.6,12.1,32.6,7.4,50.5c0,0-0.1,0.4-0.1,0.5c-1.7,6.4-3.5,12.9-5.2,19.2c0.1,0.1,0.1,0.1,0.2,0.2
		c22.3,22.3,30.5,52.7,22.6,83.5c-7.6,29.9-24.2,53.5-47.8,68.4c-6.8,4.3-13.9,7.7-21.1,10.3c-2.3,8.2-4.6,16.4-6.9,24.4
		c-1.6,5.6-3.2,11.1-4.7,16.7c0,0-0.1,0.3-0.1,0.4C629-1233,604.7-1214.2,575.5-1214.2z"/>
	<path class="st0" d="M575.5-1254.2c-3,0-6-0.5-9.2-1.5c-13.9-4.3-20.5-16.2-16.8-30.4c1.8-6.8,3.5-13.5,5.3-20.2
		c3.8-14.7,7.7-29.8,11.7-44.8c-19.3-10.3-27.3-25.5-30.6-37.2c-4.4-16.1-2.4-33,5.5-46.3c7.4-12.4,19.5-21.2,34.2-24.7
		c3.9-0.9,7.6-1.3,11.2-1.3c3.1,0,6.1,0.3,9,1c2-7.5,4-14.9,5.9-22.2c2.4-9.1,4.9-18.3,7.3-27.4c3.4-12.9,13.1-17.6,21-17.6
		c3,0,6.2,0.6,9.4,1.9l0.1,0c1.4,0.6,3.2,1.1,5,1.4c8.4,1.4,12.8,5.9,15.1,9.4c3.4,5.2,4.2,11.4,2.3,18.5l0,0.1
		c-4.3,15.7-8.5,31.6-12.7,47.3c6.6,1.8,12.7,5.5,18.1,10.8c12.2,12.2,16.5,28.3,12.1,45.3c-5.1,20.1-15.4,35.1-30.4,44.6
		c-10.2,6.4-20.8,9.7-31.6,9.7c-4.4,16.1-9,32.2-13.5,47.9c-1.6,5.6-3.2,11.2-4.8,16.8l0,0.1
		C595.5-1261.3,586.8-1254.2,575.5-1254.2z M584.4-1404.9c-0.1,2.3,0.8,4,3,6.1c2.7,2.4,5.9,4.1,9.6,5.3
		C592.2-1396.4,587.9-1400.2,584.4-1404.9z"/>
	<path class="st0" d="M1366.6-1478.5c-11.4,0-22.7-0.2-33.6-0.4c-4.9,0-9.7-0.5-14.8-1.5c-0.2,0-1.2-0.2-1.3-0.3
		c-33.4-7.1-55.3-36.3-52.3-69.4c0-0.1,0-0.4,0-0.4c0.7-6.7,2.4-13.2,5-19.3c-2-7.3-2.8-15.1-2.1-22.9c2.9-34,31.2-59.7,65.8-59.7
		c0.8,0,1.7,0,2.6,0c0.2,0,0.8,0,0.9,0c2.8,0.1,5.6,0.3,8.7,0.3c12.8-15.6,32-25.3,53.4-25.3c13.9,0,27.5,4.1,39.3,12
		c0,0,0.4,0.3,0.4,0.3c5.8,3.9,10.9,8.6,15.1,13.9c3.6,0.1,7.2,0.1,10.8,0.2c32,0.5,48.2,17.7,55,28c9.3,14,10.7,28.7,10.7,36.2
		c0,1.1,0,2.3-0.1,3.4c7.6,11,11.9,24.4,11.6,38.6c-0.4,17.2-7.3,33.2-19.4,44.9c-12,11.5-28,17.9-45.1,17.9
		c-25.1,0.1-47.3,0.8-67.9,2.1C1396.3-1478.9,1382.8-1478.5,1366.6-1478.5z"/>
	<path class="st0" d="M1366.6-1518.5c-11.1,0-22.3-0.2-33.1-0.4c-2.5,0-5.1-0.3-7.9-0.8l-0.4-0.1c-13.6-2.9-21.9-13.6-20.7-26.6
		l0-0.1c0.9-8.6,6.2-16,13.7-19.9c-1.8-1.2-3.4-2.7-4.8-4.4c-4.4-5.2-6.5-11.7-5.9-18.4c1.1-13.4,12-23.1,25.9-23.1
		c0.4,0,0.8,0,1.1,0l0.2,0c7.6,0.4,15.7,0.6,26.4,0.6c2.9,0,5.8,0,8.8,0c2.3-14.8,14.4-25.4,29-25.4c6,0,11.9,1.8,17.2,5.3l0.1,0.1
		c7,4.8,11.1,11.9,11.8,20.3c3.6,0.1,7.1,0.1,10.7,0.2c8.4,0.2,16.8,0.3,25.1,0.5c24.4,0.3,26.3,18.6,26.3,24.2c0,6.8-2.2,12.6-6,17
		c10.5,2.9,17.8,12.4,17.5,24c-0.3,13.8-10.7,23.8-24.7,23.8c-25.9,0.1-48.9,0.8-70.3,2.2
		C1394.6-1518.9,1381.9-1518.5,1366.6-1518.5z"/>
	<path class="st0" d="M1104.4-1365.5c-13,0-24.7-0.8-35.7-2.5c-7.8-1.1-25.9-3.8-40.9-19.2c-14.6-14.9-17.4-32.6-18.8-41.1
		c0,0,0-0.3-0.1-0.4c-2.9-19.1-1.1-36.9,0.8-50.3c5-35.1,32.5-59.6,66.9-59.6c0.9,0,1.9,0,2.8,0.1c5.3-1.3,10.7-1.9,16.1-1.9
		c0.1,0,2.2,0,2.2,0c4,0,8.3-0.1,12.4-0.1l0.2,0c4.5-0.1,9.1-0.1,13.8-0.1c10.8,0,25,0.3,40.2,2.6c9.9,1.5,28.3,4.3,43.8,19.5
		c16.3,16,18.9,34.9,20.3,45c0,0,0,0.1,0,0.1c2.2,16.3,2.3,33.1,0.3,49.9c-3.4,30.1-27,53.1-57.4,55.9c-0.2,0-0.4,0-0.7,0.1
		l-5.3,0.4c-7,0.5-14.2,1.1-21.7,1.3c-4.7,0.2-9.6,0.3-15.9,0.3c-2.4,0-4.7,0-7.1,0c-1.8,0-3.7,0-5.5,0
		C1111.4-1365.6,1107.9-1365.5,1104.4-1365.5z"/>
	<path class="st0" d="M1104.4-1405.5c-11,0-20.8-0.7-29.8-2.1c-5.6-0.8-12.6-1.9-18.2-7.6c-5.3-5.4-6.7-12-7.9-19.4l0-0.1
		c-2.1-13.9-0.7-27.3,0.9-38.7c2.2-15.3,12.9-25.2,27.3-25.2c2.3,0,4.6,0.3,7,0.8c3.7-1.7,7.9-2.7,11.9-2.7c0.8,0,1.5,0,2.2,0
		c4.3,0,8.7-0.1,12.9-0.1c4.4-0.1,8.9-0.1,13.4-0.1c9.4,0,21.7,0.2,34.3,2.1c7.6,1.2,15.4,2.3,21.7,8.5c6.5,6.4,7.7,14.7,8.7,21.9
		c1.8,13.1,1.8,26.5,0.2,40c-1.3,11.5-9.6,19.5-21.3,20.6c0,0-3.7,0.3-5.3,0.4c-6.6,0.5-13.5,1-20.3,1.3c-4.2,0.2-8.6,0.3-14.3,0.3
		c-2.3,0-4.6,0-6.8,0c-2.1,0-4.2,0-6.3,0C1111-1405.6,1107.6-1405.5,1104.4-1405.5z"/>
	<path class="st0" d="M839.2-1362.1c-34.7,0-62.7-26.2-66.6-62.4c0,0,0-0.3,0-0.5c-2.6-26.2,9.9-49.9,30.9-62.5
		c-0.9-8-1.8-16.1-2.5-24.5c-0.4-4.6-0.9-9-1.3-13.5c-1.5-15.4-3-31.4-3.8-47.8c0-0.1,0-0.4,0-0.4c-0.3-6.4-0.6-15,0.8-25.1
		c2.7-19.6,12.2-36.2,27.3-47.9c12.3-9.6,26.9-14.6,42.2-14.6c34.2,0,62.7,26.1,66.3,60.7c0.1,0.8,0.2,1.6,0.3,2.4
		c0.7,5.7,1.6,13.9,1.3,24c1,11.3,2.2,23.3,3.3,35.6l0.9,9.6c1.1,11.8,2.1,22,3.2,31.3c0.9,7.7,1.9,15.5,2.8,22.4
		c0.9,7.4,1.9,15.1,2.8,22.8c0.6,5,0.9,10.1,0.9,16c0,0.1,0,1,0,1.1c-0.6,30.9-21.1,56.8-50.9,64.6c-21.5,5.6-38.9,8.3-56.4,8.6
		C840.4-1362.1,839.3-1362.1,839.2-1362.1z"/>
	<path class="st0" d="M839.2-1402.1c-11.9,0-24.8-8.2-26.8-26.7l0-0.1c-1.4-13.9,7.7-25.6,21.6-27.8c1.8-0.3,3.6-0.6,5.4-0.9
		c2.7-0.4,5.4-0.9,8.1-1.3c-2.7-18.2-4.9-36.9-6.8-56.8c-0.4-4.6-0.9-9.1-1.3-13.6c-1.4-14.9-2.9-30.3-3.7-45.8l0-0.2
		c-0.2-5.3-0.5-11.4,0.5-17.9c1.3-9.2,5.4-16.6,12.2-21.8c5.2-4.1,11.4-6.3,17.7-6.3c13.9,0,25,10.5,26.5,24.9c0.1,1,0.2,2,0.3,2.9
		c0.6,5.4,1.4,12.1,0.9,20.2c1.1,12.4,2.4,25.8,3.7,39.4l0.8,8.6c1.1,12.1,2.2,22.7,3.4,32.3c0.9,7.6,1.9,15.2,2.8,22.7
		c0.9,7.4,1.9,15.1,2.8,22.7c0.4,3.3,0.6,6.8,0.6,11.1l0,0.3c-0.2,12.7-8.7,23.4-21,26.6c-18.4,4.8-32.9,7.1-47.1,7.3L839.2-1402.1z
		"/>
	<path class="st0" d="M1292.5-1388.1c-32,0-57.9-21.7-64.5-54c0-0.1,0-0.1,0-0.2c-0.9-4.4-1.7-8.8-2.5-13.3
		c-14.2-6.3-25.9-17.7-33-32.8c0-0.1-0.3-0.6-0.3-0.7c-14.5-32.2-3-67.6,27.4-84.4c20.4-11.3,42.3-21.1,65.1-29.1
		c2.3-0.8,4.6-1.5,7-2.1l0.1,0c4.1-1.4,8.4-2.1,12.7-2.1c0.2,0,0.4,0,0.6,0l2.9,0c28.2,0.4,50.9,17.2,60.6,44.9l0,0.1
		c9.4,24,3.5,50-14,67.5c0.6,4,1.9,12,1.9,12c0.9,5.7,1.9,12.1,2.8,18.7c4.7,37.8-20.1,69.9-57.6,74.8
		C1298.7-1388.3,1295.6-1388.1,1292.5-1388.1z"/>
	<path class="st0" d="M1292.5-1428.1c-10.1,0-22-5.8-25.3-22c-2.5-12.7-4.7-25.9-6.7-41.5c-0.1,0-0.2,0.1-0.3,0.1
		c-2.8,1-5.7,1.5-8.6,1.5c-9.9,0-18.4-5.7-22.9-15.3l-0.1-0.2c-6-13.3-1.9-26.2,10.3-32.9c18.5-10.3,38.5-19.2,59.3-26.5
		c1.8-0.7,3.3-1,4.3-1.2l2-0.7l2.9,0c11.4,0.2,19.4,6.3,23.6,18.2c0.1,0.4,0.3,0.7,0.4,1.1c4.6,11.4,0.3,23.2-10.9,29.3
		c-2.8,1.6-5.9,3.3-9.3,5c2,12.3,3.9,24.7,5.8,36.8l0.1,0.3c0.9,5.6,1.8,11.4,2.6,17.3c1.9,15.8-7.6,28.2-23.1,30.2
		C1295.3-1428.2,1293.8-1428.1,1292.5-1428.1z"/>
	<path class="st0" d="M1124.6-1343.6c-4.4,0-8.6,0-12.7-0.1h-48.8c-4.4,0-11.1-0.2-18.7-1.6c-33.4-6.4-55.3-36.1-52.1-70.6
		c0-0.1,0.1-0.7,0.1-0.8c1.8-16.3,9.4-31,21.4-41.3c11.6-9.9,26.8-15.4,42.9-15.4c7.5,0,15,0,22.5,0.1l0.8,0
		c7.7,0,15.3,0.1,22.9,0.1c11.6,0,21.1-0.1,29.8-0.2c10.4-0.2,21.6-0.8,32.4-1.4l0.2,0c5.8-0.3,11.8-0.7,17.9-0.9c0.1,0,0.5,0,0.6,0
		c1.6-0.1,3.8-0.1,6.3-0.1c3.7,0,7,0.2,10.3,0.5c17.1,1.8,32.4,9.6,43.1,21.9c10.6,12.2,16,28.5,15.4,45.7c0,0,0,0.3,0,0.4
		c-0.7,16.8-7.5,32.3-19.1,43.6c-11.2,10.9-26.5,17.4-43,18.3c-0.1,0-0.1,0-0.2,0C1168.4-1344.3,1144.9-1343.6,1124.6-1343.6z"/>
	<path class="st0" d="M1124.6-1383.6c-4.3,0-8.4,0-12.4-0.1h-49.2c-3,0-6.9-0.1-11.1-0.9c-13.4-2.6-21.2-13.4-19.8-27.6l0-0.2
		c1.4-12.8,11-21.1,24.5-21.1c7.7,0,15.4,0,23.1,0.1c7.7,0,15.4,0.1,23,0.1c11.8,0,21.5-0.1,30.5-0.2c11.2-0.2,22.8-0.8,34-1.5
		c5.8-0.3,11.8-0.7,17.8-0.9l0.2,0c1.5-0.1,3.1-0.1,4.9-0.1c2.2,0,4.2,0.1,6.1,0.3c14.6,1.5,23.3,11.7,22.8,26.4l0,0.1
		c-0.6,13.6-10.1,22.9-24.3,23.7C1167.1-1384.2,1144.2-1383.6,1124.6-1383.6z"/>
	<path class="st0" d="M640.6-1457.9c-22.5,0-42.9-11.8-54.6-31.5c0-0.1-0.1-0.1-0.1-0.2c-5.4-9.3-9.6-17.2-13.1-25
		c-10.6-23.5-7.7-50.3,8.2-73.4c3.6-5.2,7.1-10,10.4-14.6c3.4-4.7,6.7-9.2,9.6-13.5c0.1-0.1,0.6-0.9,0.7-0.9
		c1.9-2.6,3.9-6.1,6.3-10.1c0.9-1.6,1.9-3.1,2.8-4.7l22.7-37.4c7.3-12.1,20.4-19.3,34.2-19.3c2.3,0,4.6,0.2,7,0.6
		c16.3,2.9,29.1,15.4,32.3,31.6l8.5,42.9c1.3,6.5,2.3,12.5,3.3,18.4c0.8,4.7,1.5,9.1,2.3,13.3c0,0.1,0,0.1,0,0.2
		c0.3,1.7,0.7,3.4,1,5.1l0,0.2c1.6,7.8,3.6,17.5,4,28.8c1,26.9-10.9,51.5-32.7,67.4c-5.9,4.3-12.9,9.3-21.2,13.8
		C662.2-1460.7,651.5-1457.9,640.6-1457.9z"/>
	<path class="st0" d="M640.6-1497.9c-8.3,0-15.7-4.4-20.2-11.9c-4.7-8-8.2-14.7-11.1-21.1c-3.4-7.5-5.4-19.6,4.7-34.4
		c3.2-4.7,6.6-9.3,9.8-13.7c3.6-5,7.1-9.7,10.3-14.6l0.2-0.3c2.7-3.9,5.3-8.1,8-12.7c0.9-1.5,1.8-3,2.7-4.5l22.7-37.4l8.5,42.9
		c1.2,5.8,2.1,11.6,3,17.1c0.8,5,1.6,9.6,2.5,14.4c0.4,2,0.8,4,1.2,5.9c1.4,7,2.9,14.2,3.2,22.2c0.5,13.9-5.1,25.5-16.3,33.6
		c-5.1,3.7-10.7,7.7-16.8,11.1C648.9-1499.1,644.8-1497.9,640.6-1497.9z"/>
	<path class="st0" d="M772.9-1399.7c-14.2,0-28.2-4.5-40.3-13c-25-17.5-34.7-47.6-24.8-76.7c0,0,0.1-0.3,0.1-0.4
		c6.7-19.2,13.6-37.8,20.6-55.1c2.7-6.7,5.6-13.1,8.2-18.7l0.9-2c7.4-16.1,19.7-28.6,35.6-36.1c0.1,0,0.8-0.4,0.9-0.4
		c8.9-4,18.4-6.1,28-6.1c18.5,0,35.6,7.4,48.3,20.8c13,13.7,19.5,31.9,18.5,51.3l-0.1,1.9c-0.2,3-0.7,5.9-1.5,8.8l-0.5,1.8
		c-0.1,0.4-0.2,0.8-0.3,1.2l-0.1,0.3c-0.9,3.2-2.1,8-4.2,13.4c0,0.1,0,0.1-0.1,0.2c-2.1,5.4-4.1,10.9-6.1,16.3l-0.1,0.3
		c-6.3,16.8-12.7,34.2-21,51.9c0,0,0,0.1,0,0.1C822.9-1415.1,799.2-1399.7,772.9-1399.7z"/>
	<path class="st0" d="M772.9-1439.7c-6,0-12-2-17.4-5.8c-10.4-7.2-14.1-18.9-9.9-31.2l0-0.1c6.4-18.6,13.1-36.5,19.9-53.2
		c2.4-5.9,5-11.6,7.5-17.1l0.9-1.9c3.4-7.5,9.1-13.2,16.4-16.7l0.3-0.1c3.7-1.7,7.6-2.5,11.6-2.5c7.4,0,14.2,2.9,19.3,8.3
		c5.3,5.6,8,13.3,7.6,21.6l-0.1,1.9l-0.5,1.8c-0.2,0.6-0.4,1.4-0.6,2.1c-0.7,2.7-1.6,6.1-3,9.6c-2.2,5.7-4.3,11.4-6.4,17
		c-6,16-12.1,32.6-19.7,48.7C793.4-1446.2,783.8-1439.7,772.9-1439.7z"/>
	<path class="st0" d="M955.2-1408.8c-27,0-50.5-15.8-61.4-41.3c-2.7-6.2-5.3-12.4-7.9-18.5l-0.4-1c-4.4-10.4-9-21.3-13.5-31.7
		c0-0.1-0.2-0.4-0.2-0.4c-1.4-3.2-3.1-6.8-5.4-11.2c-14.2-27.2-8.6-58.5,14.4-79.5c13.7-12.5,31-19.4,48.6-19.4
		c27.8,0,52.2,16.4,63.8,42.9l0.1,0.2c8.6,19.7,17.6,40.1,26.3,60.4c9.7,22.2,7.6,47.5-5.6,67.7c-12.7,19.5-34.1,31.4-57.2,31.8
		C956.3-1408.8,955.7-1408.8,955.2-1408.8z"/>
	<path class="st0" d="M955.2-1448.8c-11,0-20-6.2-24.6-17c-2.7-6.4-5.4-12.7-8.1-19.1c-4.5-10.6-9.1-21.6-13.8-32.3l-0.1-0.1
		c-1.8-4.2-3.9-8.7-6.7-14.1c-5.8-11-3.6-22.8,5.9-31.5c6.4-5.8,13.9-8.9,21.6-8.9c11.8,0,22,7.1,27.2,18.9
		c8.6,19.8,17.6,40.2,26.3,60.5c4.3,9.8,3.4,21-2.4,30c-5.5,8.4-14.7,13.5-24.5,13.6C955.7-1448.8,955.4-1448.8,955.2-1448.8z"/>
	<path class="st0" d="M888.4-1243.1c-25.6,0-54.2-16.3-60.5-52.8c-1.6-9.1-1.5-16.9-1.4-22.1c0-0.8,0-1.9,0-2.5l0-0.3
		c-0.1-1.4-0.2-2.8-0.2-4.2l0-3.8c0.1-10,0.2-21.3,2.5-34c0-0.1,0-0.1,0-0.2c5.6-30,29.9-50.9,59.3-50.9c3.4,0,6.7,0.3,10,0.8
		c1.6-0.1,3.5-0.2,5.5-0.2c2.3,0,4.6,0.1,6.8,0.3c23.6,2,43,10.7,57.6,25.8c15.9,16.3,23.5,38.5,20.8,60.8
		c-0.6,5.2-1.8,10.4-3.5,15.4c0.8,7.8,0.2,15.7-2,23.4c-4.6,16-15.3,29.2-30.2,37.2c-9.1,4.9-19.4,7.5-29.7,7.5
		c-6,0-11.8-0.9-17.3-2.5c-3.1,0.9-6.4,1.6-9.7,2C893.8-1243.3,891.1-1243.1,888.4-1243.1z"/>
	<path class="st0" d="M888.4-1283.1c-4.2,0-18-1.4-21.1-19.6c-1-5.5-0.9-10.5-0.9-14.9c0-2.4,0.1-4.6-0.1-6.3l-0.1-0.9l0-3.8
		c0.1-8.8,0.2-17.9,1.8-27.3c2.3-12.6,11.7-18.2,20-18.2c2.3,0,4.6,0.4,6.8,1.2c0,0,0,0,0.1,0c0.7,0,1.7-0.1,2.8-0.2
		c1.6-0.2,3.7-0.3,5.9-0.3c1.2,0,2.2,0,3.3,0.1c8.9,0.8,22,3,32.4,13.8c7.4,7.6,11,17.9,9.8,28.2c-0.7,5.8-2.9,11.2-6.3,15.9
		c2.8,5.3,3.5,11.2,2,16.6c-1.6,5.5-5.4,10.1-10.7,13c-3.4,1.8-7.1,2.8-10.8,2.8c-6.7,0-12.9-3.2-17.2-8.6
		c-3.8,5.1-9.5,7.7-14.8,8.4C890.4-1283.2,889.4-1283.1,888.4-1283.1z"/>
	<path class="st0" d="M1353.4-1244.1c-3.9,0-7.9-0.3-11.7-1c-1.8,0.2-3.7,0.3-5.6,0.3c-30.1,0-55.3-22.2-60-52.8
		c-3.5-22.2-2.2-42.8-0.3-61.7c1.5-15.1,8.2-29,18.9-39.2c11.2-10.7,26-16.6,41.7-16.6c1.7,0,3.3,0.1,5,0.2
		c3.7-0.6,7.5-0.8,11.3-0.8c36,0,70,25.4,79.2,59.1l0.3,1c1.6,5.4,4.5,15.5,4,28c-1,40-27.5,72.8-66.1,81.7c-0.1,0-0.1,0-0.2,0
		C1364.3-1244.8,1358.8-1244.1,1353.4-1244.1z"/>
	<path class="st0" d="M1353.4-1284.1c-3.6,0-7.2-0.6-10.7-1.8c-2.2,0.7-4.4,1.1-6.7,1.1c-10.4,0-18.8-7.8-20.5-18.9
		c-2.8-17.7-1.7-35.2,0-51.5c1.2-11.6,9.7-19.8,20.8-19.8c2,0,4,0.3,6,0.8c3.3-1,6.7-1.5,10.2-1.5c18.1,0,36.3,13.4,40.7,29.9
		c0.1,0.5,0.3,0.9,0.4,1.4c1.2,4.2,2.7,9.4,2.4,15.3c-0.4,22-14.1,39.3-35.1,44.1C1358.4-1284.4,1355.9-1284.1,1353.4-1284.1z"/>
	<path class="st0" d="M805.6-1242.9c-0.6,0-1.2,0-1.8,0c-7.4-0.2-14.4-1.7-20.9-4.2c-6.8,2.5-14.1,3.9-21.7,3.9
		c-2.7,0-5.5-0.2-8.2-0.5c-0.2,0-1-0.1-1-0.1c-0.2,0-0.4-0.1-0.5-0.1c-16.9-2.6-31.5-11.5-41.1-25c-9.5-13.3-13.2-29.7-10.4-46.2
		c3.2-19.5,10-48.3,31.9-73.5c0,0,0.1-0.1,0.1-0.1c14.4-16.4,33.6-25.4,54.1-25.4c21.1,0,41.3,9.9,55.4,27.2c0,0,0.2,0.2,0.2,0.3
		c16,19.8,25.2,47.6,25.4,76.1c0,0.1,0,0.4,0,0.4c0,0.9,0,1.9,0,2.8l0,0.2c0.7,17.3-5.2,33.3-16.6,45.4
		C838.9-1249.6,823-1242.9,805.6-1242.9z"/>
	<path class="st0" d="M805.6-1282.9c-0.2,0-0.5,0-0.7,0c-7.4-0.2-16-4.1-19.4-13.9c-0.2,0-0.5,0-0.7,0c-1.4,0-2.8-0.1-3.8-0.2
		c-3.2,8.5-10.6,13.8-19.8,13.8c0,0,0,0,0,0c-1,0-2.1-0.1-3.1-0.2l-0.5-0.1c-8-1.2-12.4-5.4-14.8-8.7c-2.3-3.2-4.8-8.7-3.5-16.4
		c2.6-15.9,7.5-36.5,22.6-53.8c6.7-7.6,15.2-11.8,24.1-11.8c9.2,0,17.9,4.4,24.4,12.5l0.1,0.1c10.2,12.7,16.4,31.9,16.6,51.3v0.1
		c0,0.7,0,1.4,0,2c0,0.8,0,1.5,0,2c0.5,8.4-2.8,13.8-5.7,16.9C817.4-1285.2,811.8-1282.9,805.6-1282.9z"/>
	<path class="st0" d="M1119.4-1243c-34.8,0-62.1-27.2-62.1-61.9c0-1.3,0-2.6,0-3.9c0-5.8,0-12.3,0.3-19.1c0.3-6.8,0.8-13.2,1.3-19.4
		l0-0.4c0.2-2.6,0.4-5.3,0.6-7.9c2.5-38.8,32.8-59,61.4-59c1.3,0,2.6,0,3.9,0.1c7.4,0.4,14.5,2.1,21.1,4.8c3.1-0.5,6.3-0.7,9.5-0.7
		c20.5,0,39.5,10.4,50.9,27.9c10,15.3,13,33,8.7,49.9c-0.7,2.5-1.5,5-2.4,7.4c2.7,8.2,3.7,17,2.8,25.8c-1.7,16.3-9.8,31.1-22.8,41.7
		c-11.1,9.1-25,14.1-39,14.1c-5.3,0-10.5-0.7-15.6-2.1C1132-1243.9,1125.8-1243,1119.4-1243z"/>
	<path class="st0" d="M1119.4-1283c-12.6,0-22.1-9.4-22.1-21.9c0-1.3,0-2.7,0-4c0-5.6,0-11.4,0.2-17.2c0.3-6.2,0.7-12.3,1.2-18.1
		c0.2-2.9,0.4-5.7,0.6-8.6c1-16,12.2-21.7,21.5-21.7c0.5,0,1,0,1.6,0c7.9,0.4,12.7,4.1,15.4,7.2c0.7,0.8,1.3,1.6,1.9,2.5
		c1.3-0.7,2.6-1.5,3.9-2.2c3.9-2.3,7.8-3.4,11.7-3.4c7,0,13.4,3.6,17.4,9.8c4.8,7.4,4.5,13.9,3.5,18c-1.1,4.1-3.9,9.9-11.5,13.9
		c-0.2,0.1-0.4,0.2-0.6,0.3c0.6,0.8,1.2,1.7,1.8,2.5c1.5,2.1,3,4.1,4.5,6c3.9,4.8,5.7,10.6,5.1,16.4c-0.6,5.7-3.5,11-8.3,14.9
		c-5.1,4.2-10.3,5.1-13.7,5.1c-3.7,0-10.6-1.1-16.6-8C1133-1286.3,1126.7-1283,1119.4-1283z"/>
	<path class="st0" d="M1466.7-1243.6c-23.7,0-44-8-60.3-23.7c-16.9-16.2-22.8-39.2-17.2-60.2c-2.5-11.4-2.2-23.2,1-34.6
		c6.8-23.9,25.5-42.6,50-50.1c7.7-2.4,15.7-3.6,23.7-3.6c19,0,34.4,6.7,45.6,12.5c14.7,7.5,25.3,20.4,29.9,36.2
		c3.4,11.6,3.1,24-0.6,35.4c2.1,9.9,2.1,20.3-0.2,30.4c-7.7,34-37.1,57.7-71.6,57.7C1467-1243.6,1466.7-1243.6,1466.7-1243.6z"/>
	<path class="st0" d="M1466.9-1283.6c-13.5,0-23.9-4-32.8-12.5c-8.7-8.4-9.3-20.7-1.6-29.8c-4.8-7.5-6.2-16.6-3.8-25.2
		c3.1-10.8,11.8-19.3,23.3-22.8c3.9-1.2,7.9-1.8,12-1.8c10.3,0,19.3,3.9,27.3,8c4.8,2.5,8.3,6.7,9.8,11.8c1.6,5.3,0.7,11.3-2.2,16.3
		c-1.2,2.1-2.5,3.8-3.9,5.3c5.6,7.9,6.4,16.8,4.7,24.1c-3.5,15.7-16.9,26.6-32.6,26.6L1466.9-1283.6z"/>
	<path class="st0" d="M1258.2-1244.1c-1.1,0-2.2,0-3.3-0.1c-6-0.3-12.3-0.5-18.3-0.7c0,0-0.2,0-0.3,0c-16.2-0.5-31.3-7-42.4-18.2
		c-11.3-11.5-17.6-26.8-17.6-43.2c0-8.9,1.8-17.4,5.2-25.2c-3.2-8.6-4.4-17.9-3.5-27.5c2.8-32.3,28.8-55.8,61.8-55.8
		c1,0,2.1,0,3.2,0.1c0.3,0,0.5,0,0.8,0c0,0,0.1,0,0.1,0c0.7,0,1.3,0,2,0l0.2,0c1.2,0,2.3,0,3.5,0h17c9.5,0,18.2,3.3,25.1,8.8
		c17.9,10.4,29.5,29.5,30.2,51.3c0.3,9.4-1.4,18.6-5,26.9c2.4,6.7,3.7,14,3.7,21.6C1320.6-1271.3,1293.2-1244.1,1258.2-1244.1z"/>
	<path class="st0" d="M1258.2-1284.1c-0.5,0-0.9,0-1.4,0c-6.4-0.3-12.9-0.5-19.2-0.7c-12.4-0.4-21.3-9.5-21.3-21.5
		c0-8.1,4-15,10.1-18.8c0.1-3.2,0.2-6.6,0.4-10.2c-1.3-0.9-2.5-2-3.6-3.2c-4.1-4.5-6-10.5-5.4-17c0.8-9.7,7.9-19.3,22-19.3
		c0.6,0,1.2,0,1.8,0c0.8,0,1.5,0,2.3,0c0.9,0,1.8,0,2.7,0c1,0,2,0,3,0h17v1.3c9,2.4,15,10,15.3,20c0.2,6.2-1.9,12-6,16.2
		c-1.5,1.6-3.3,2.9-5.2,3.9c-0.1,3-0.2,5.9-0.3,8.7c6.3,3.7,10.2,10.4,10.2,18.5C1280.6-1293.6,1271-1284.1,1258.2-1284.1z"/>
	<path class="st0" d="M1026.4-1243.4c-15.4,0-30-5.6-41.3-15.7c-12.3-11.1-19.6-26.9-20.6-44.5c0-0.1-0.1-1-0.1-1.3
		c-12.7-11-20.8-27-21.3-45l0-0.2c0-0.4,0-0.8,0-1.2v-0.3c0-34.7,27.1-61.8,61.7-61.8c0.6,0,1.3,0,1.9,0c0.2,0,1,0,1.1,0
		c0.5,0,1.2,0,1.9,0c2.8,0,6.3-0.2,10.2-0.5c4.6-0.3,9.8-0.6,15.5-0.7c0.1,0,8,0,8,0c34.5,0,60.8,24.4,62.5,58.1
		c0.9,17.1-4.9,33.3-16.2,45.5c-0.6,0.6-1.2,1.3-1.8,1.9c0.8,17.3-4.7,33.3-15.6,45.5c-11.3,12.6-27.2,19.8-44.6,20.2
		C1027.5-1243.4,1026.9-1243.4,1026.4-1243.4L1026.4-1243.4z"/>
	<path class="st0" d="M1026.4-1283.4c-10.3,0-21.1-7-22-22.5l0-0.2c-0.2-4.7-0.8-9.6-1.4-14.7c-0.4-3.1-0.7-6.2-1-9.4
		c-10.8-1.4-18.5-9.8-18.9-21l0-0.3v-0.3c0-12.6,9.1-21.8,21.7-21.8c0.3,0,0.5,0,0.8,0l0.3,0c1.2,0.1,2.5,0.1,3.8,0.1h0
		c4,0,8.2-0.3,12.7-0.5c4.3-0.3,8.8-0.5,13.4-0.6l7.7,0c15.9,0,22.1,10.8,22.6,20.1c0.4,8-2.8,13.3-5.6,16.3
		c-2.6,2.8-7.1,6.1-14.4,6.9c0.3,3.9,0.7,7.8,1,11.7c0.3,3.7,0.6,7.3,0.9,11c0.6,7.5-1.2,13.6-5.3,18.2c-3.9,4.3-9.5,6.8-15.7,6.9
		C1026.8-1283.4,1026.6-1283.4,1026.4-1283.4z"/>
	<path class="st0" d="M588.8-1351.3c-10.4,0-20.6-4-28.3-11.7c-12.2-12.2-15.2-30.7-7.5-46.1l22.6-45.4c2.8-5.6,6.5-10.8,11-15.3
		l8.7-8.7c7.7-7.7,18-11.8,28.4-11.8c6.1,0,12.3,1.4,18,4.3l11.2,5.6l30.3,15.3c13.5,6.8,22,20.7,22,35.8s-8.6,29-22.1,35.7
		l-28.1,14c-0.9,0.5-1.9,1.1-2.9,1.5l-45.4,22.6C600.9-1352.7,594.8-1351.3,588.8-1351.3z"/>
	<path class="st0" d="M611.4-1436.7c0.9-1.8,2.1-3.4,3.6-4.9l8.7-8.7l11.2,5.6l30.3,15.3l-29.4,14.7c-0.5,0.3-1,0.6-1.6,0.9
		l-45.4,22.7L611.4-1436.7z"/>
	<path class="st0" d="M288-1310.6c-21.9,0-42.3-8.5-57.6-23.9c-15.2-15.3-23.4-35.6-23.3-57.3c0.1-43.3,36.5-80.6,79.6-81.6
		c0.7,0,1.3,0,2,0c21.5,0,41.7,8.6,57.1,24.3c15.1,15.4,23.4,35.7,23.4,57.1c0,44.5-36.1,81-80.6,81.3
		C288.6-1310.6,288.1-1310.6,288-1310.6z"/>
	<path class="st0" d="M288-1350.6c-11.1,0-21.5-4.3-29.2-12c-7.6-7.7-11.8-18-11.7-28.9c0-21.9,18.9-41.3,40.5-41.7
		c0.4,0,0.7,0,1.1,0c22,0,40.5,19,40.5,41.4c0,22.6-18.3,41.1-40.9,41.3L288-1350.6z"/>
	<path class="st0" d="M450.2-1331.7c-0.6,0-1.2,0-1.8,0c-21.1-0.5-40.9-9.1-55.7-24.1c-14.9-15.1-23.2-35-23.2-56.1
		c-0.1-21.2,8.6-42.1,23.7-57.4c15.3-15.5,36.5-24.3,57.9-24.3c0.5,0,1,0,1.6,0c21.4,0.4,41.5,9.2,56.5,24.7
		c15.2,15.8,23.3,36.5,22.8,58.4c-0.5,21.4-9.4,41.3-25.1,56.2C491.5-1339.7,471.4-1331.7,450.2-1331.7z"/>
	<path class="st0" d="M450.2-1371.7c-0.3,0-0.6,0-0.9,0c-21.9-0.5-39.8-18.6-39.8-40.3c-0.1-10.6,4.4-21.2,12.1-29.1
		c7.9-8,18.7-12.5,29.6-12.5c0.3,0,0.6,0,0.8,0c10.8,0.2,20.9,4.6,28.4,12.5c7.8,8.1,11.9,18.6,11.6,29.8
		C491.6-1389.4,472.8-1371.7,450.2-1371.7z"/>
	<path class="st0" d="M367.8-1292.6c-18.4,0-36.4-4.5-53.5-13.4c-5.7-3-9.9-6-12.4-7.9c-0.3-0.2-0.6-0.5-0.9-0.7l-0.3-0.2
		c-0.5-0.4-1-0.7-1.6-1.1l-0.1-0.1c-20.6-15.4-29.1-40.8-21.7-64.8c0-0.1,0-0.1,0.1-0.2c7.7-24.8,30.5-41.4,56.7-41.4
		c0.6,0,1.1,0,1.7,0c6.8,0,14.2-0.7,22.7-2c12-1.8,24.7-6.2,39-11.3c1.1-0.4,2.2-0.8,3-1.1c0.2-0.1,0.4-0.1,0.7-0.2l34.2-13
		c4.6-1.8,9.4-2.6,14.2-2.6c10.2,0,20.3,3.9,27.9,11.3c11.2,10.9,15,27.2,9.9,41.9l-12.1,34.5c-7.4,21.2-21.2,38.9-39.7,51
		c0,0-0.3,0.2-0.4,0.3C413.4-1299.6,390.7-1292.6,367.8-1292.6z"/>
	<path class="st0" d="M367.8-1332.6c-11.9,0-23.7-3-35.1-8.9c-3-1.5-5.4-3.3-7.3-4.7c-0.5-0.4-1.1-0.8-1.6-1.1l-0.4-0.3l-0.4-0.3
		c-10.7-7.8-8.5-18.1-7.6-21.1c2.5-8.1,9.8-13.3,18.5-13.3c0.4,0,0.7,0,1.1,0l0.1,0c8.9,0,18.5-0.8,29.2-2.4
		c15.6-2.3,30.4-7.4,46.9-13.3c0.6-0.2,1.3-0.5,2-0.7c0.5-0.2,1.2-0.4,2.1-0.7l34.2-13l-12.1,34.5c-4.6,13-12.6,23.3-23.8,30.7
		l-0.1,0.1C398.3-1337.5,383-1332.6,367.8-1332.6z"/>
</g>
<path class="st1" d="M144.2-1460.6c-13.7-5.4-26.4-11.9-37.6-20.9c-11.6-9.3-22.4-19.3-24.2-35.3c-2.3-20.1,4.3-37.3,17.6-52.3
	c10.6-11.9,24.5-18.9,38.4-25.6c14.6-7,29.2-13.8,44-20.2c4.1-1.8,4.6-4,3.4-7.7c-3.5-10.7-10.3-18.9-19.6-25.1
	c-1.7-1.1-3.4-2.2-4.9-3.4c-5.1-4.2-6.3-9.2-3.6-14.1c3-5.3,9.8-7.8,15.6-5.8c3.9,1.4,6.8,4.2,9,7.6c6.8,10.7,12.2,22.2,16.4,34.2
	c2.2,6.1,2.1,6.1,8.1,3.4c30.7-13.9,60.2-29.7,89-47.4c33-20.3,69.3-31.2,108.1-33.5c25.9-1.5,51.3,0.7,75.6,10.1
	c26.1,10.2,44.4,28.2,51.6,55.7c7.5,28.7-2.1,53.1-20.9,74.6c-8.3,9.4-8.5,9.2-1.6,19.6c17.1,26,26.9,54.4,28.9,85.6
	c3.2,49.7-13.2,92.6-45.4,129.8c-31.2,36.1-71.1,57.4-117.9,65c-62,10-117.6-5-165.2-46.8c-15.2-13.3-27.5-28.9-36.8-46.8
	c-1.4-2.8-2.2-3.6-5.3-1.3c-38.3,29.2-79.8-1.7-83.8-38c-3.5-32,21.5-62.5,56.7-61.2C141.3-1460.5,142.7-1460.6,144.2-1460.6z
	 M513-1494.2c-1.7,2.5-2.7,4-3.7,5.4c-8.7,12.1-20,19.8-35.3,18.9c-6.2-0.3-9,1.7-11.4,7.2c-4.1,9.5-11,16.6-21.8,17.8
	c-15.9,1.8-29.9-3.1-41.5-14.2c-2.1-2.1-3.2-2.7-6-0.6c-20.9,15.8-44.5,11.9-57.8-9.3c-10.3-16.6-15.8-34.8-16.4-54.3
	c-0.1-4.2-1.4-4.6-5-3.5c-11.8,3.5-23.6,7-35.2,11.1c-35.3,12.4-69.1,27.8-101.8,46.1c-8.9,5-12.1,10.3-11.1,20.1
	c0.9,8.9-6.2,13.3-14.6,10c-4.9-1.9-10-3.2-15.1-2.8c-30.3,2.7-44.9,34-27.5,59c7.8,11.2,25.3,20.9,42.1,10.3
	c7.6-4.8,14.7-9.6,17.4-18.9c1.3-4.6,6.6-7.3,10.6-6.4c4.5,0.9,7.5,5.1,7.3,10.5c-0.1,1.8-0.3,3.8-1.1,5.3c-1.7,3.2-1,6,0.6,9
	c6.7,12.6,14.3,24.5,24.1,34.8c40.4,42.6,90.4,60.7,148.3,55.7c47.2-4.1,87.1-24.4,118.9-59.8c28.1-31.2,42.6-67.9,42.3-110.1
	C519.2-1466.6,517.4-1480,513-1494.2z M468.9-1550.7c-12.7,0-23.5,1.2-34.2,1.8c-28.6,1.7-56.8,6.6-84.7,13.1
	c-12.5,2.9-12.5,3-12.1,15.5c0,0.8,0,1.7,0.1,2.5c1.7,16.4,6.4,31.7,17.8,44.1c5.2,5.6,12.4,6.7,19.2,3.6
	c7.1-3.2,12.5-8.1,15.7-15.3c2.1-4.7,7.5-7.5,11.9-6.1c4.7,1.5,6.9,5,6.6,10c-0.4,5.9,2.6,9.8,7.2,12.7c4.1,2.6,8.6,4.3,13.3,5.5
	c7.8,2,12.7-0.1,16.9-7c2.8-4.5,3.4-9.7,4.7-14.6c1.8-6.9,8.3-10.3,13.8-6.2c8.6,6.4,19.5,2.6,25.7-3.9c5.6-5.9,9.3-13,12.1-20.5
	c0.8-2.1,0.2-3.9-0.8-5.7c-3.2-5.4-6.7-10.8-9.6-16.3C486.9-1547.8,479.9-1554.8,468.9-1550.7z"/>
<path class="st2" d="M1411.1-1400.6c-18.2-0.3-35.9,0.4-53.5-0.9c-5.7-0.4-7.9-2.2-8.2-7.2c-0.3-5.5,2-8.3,7.6-9
	c10.7-1.4,21.5-2,32.4-2c2.7,0,5.2,0.4,5.1-3.9c-0.1-4-1.1-5.5-5.4-5.4c-6.1,0.1-12.3-0.4-18.4-0.9c-6.8-0.6-9.6-3.8-9.2-9.8
	c0.3-4.6,3.9-7.5,9.9-7.6c6.1-0.1,12.3-1.2,18.4-0.4c2,0.3,3.7,0.1,3.5-2.7c-0.2-2.1,0.3-4.4-3.2-4.4c-8.5,0-17,0.2-25.4-0.8
	c-8.3-0.9-16.5-1.5-24.8-2.3c-3.8-0.4-5.9-2.3-6.7-6.2c-3.5-18.1-4.1-36.3-0.8-54.6c1.1-5.9,7.5-9.2,13.6-7.3
	c1.5,0.5,2.9,1.8,4.7,0.9c12.5-6.1,26.1-4.7,39.3-5c22.8-0.5,45.6-0.2,68.2,3.6c6.6,1.1,8.7,2.9,9.7,9.5c2.3,16.2,3.7,32.4,3,48.8
	c-0.3,7.2-2.8,9.6-9.9,10.7c-14.7,2.3-29.4,3-44.2,3c-2,0-4.4-0.7-4.5,2.9c0,3.3,1.3,4.2,4.4,4.3c9.3,0.4,18.6,1,27.9,1.7
	c6,0.5,7.7,3,7.4,10c-0.2,4.9-2.7,7.2-8.1,7.2c-8.8,0-17.7,0-26.5-0.4c-4.5-0.2-4.1,2.3-4.3,5.3c-0.2,3.4,1.1,4.2,4.3,4.1
	c15.3-0.4,30.6,0.2,45.9,1.3c5.8,0.4,8.6,2.9,8.7,8.1c0.1,4.8-3.3,8.1-8.5,8.6C1445.8-1399.9,1428.1-1401.1,1411.1-1400.6z
	 M1350.2-1496.2c-0.1,6.2,0.3,12.3,0.9,18.4c0.3,2.5,1.1,3.7,3.5,3.9c11.4,0.7,22.9,1.4,34.4,2c1.3,0.1,2.5,0.2,3-1.7
	c1.4-5.8-1.4-10.2-7.2-11c-4.1-0.6-8.2-1.4-12.3-1.9c-5.3-0.6-7.5-2.7-7.3-7.5c0.2-5.4,3.2-8.7,8.1-8.7c4.2,0,8.3,0.3,12.5,0.1
	c1.9-0.1,5.8,1.4,4.8-2.5c-0.7-2.9,2.3-8.1-4.6-8.4c-10.9-0.4-21.6,1.6-32.4,1.1c-2.6-0.1-3.4,1.4-3.4,3.8
	C1350.2-1504.5,1350.2-1500.4,1350.2-1496.2z M1448.2-1488.2c0.3-5.1-1.3-12-1.3-18.9c0-3.2-1.9-4-4.4-4.3
	c-8.8-0.8-17.5-1.8-26.3-2.3c-7.5-0.4-7-0.2-6.5,7.3c0.4,5,2.5,6,6.8,5.9c3,0,5.9,0.5,8.9,1c4.5,0.7,5.7,3.7,5.8,7.9
	c0,4.3-1,7.7-5.9,8.2c-3.6,0.4-7.3,0.6-10.9,0.5c-2.8-0.1-3.7,1.4-3.2,3.7c0.6,2.5-2,6.9,2.8,7.2c7.4,0.5,15,0.9,22.4-0.4
	c3.9-0.6,9.5,0.7,11.3-1.9C1449.7-1477,1448.2-1482.2,1448.2-1488.2z"/>
<path class="st2" d="M1068-1555.6c-9.3,0-18.7,0.1-28,0c-5.8-0.1-9-3.1-8.8-7.9c0.2-4.8,3.7-7.8,9-7.9c10.2-0.1,20.3,0,30.5-0.2
	c8.8-0.2,17.6-0.8,26.4-1c2.5-0.1,3.2-1.1,3-3.4c-0.1-1.5-0.2-3,0-4.5c0.3-3-1-4-4-4.2c-12.1-0.5-24.2-1.3-36.4-1.9
	c-5.3-0.3-8.2-2.8-8.5-7.8c-0.3-5.2,2.3-8.5,8-8.7c9.8-0.3,19.6,0,29.5,0c1.8,0,3.7,0.1,5.5,0.3c4.4,0.6,6.1-0.6,5.4-5.7
	c-0.9-7.4,4.6-12.1,11.8-10.9c4.1,0.7,6.6,3,6.7,7.4c0,1.5,0.1,3,0,4.5c-0.1,3.4,1.2,5,5,5.1c11.8,0.1,23.6,0.5,35.4,1
	c4.3,0.2,8.6,1,12.8,1.7c4.3,0.7,6.2,3.4,6.4,7.6c0.3,5.8,1,11.6,1.2,17.4c0.1,2.8,1.4,3.3,3.7,3.4c6,0.2,12,0.5,17.9,0.8
	c5.5,0.3,8.2,2.9,8.2,8c0,4.9-2.9,7.5-8.5,7.6c-5.8,0.1-11.7,0.1-17.5-0.1c-2.8-0.1-3.9,0.8-3.9,3.7c0,3.1-0.3,6.3-0.6,9.4
	c-0.4,6.1-2.7,8.2-9,9c-14.2,1.8-28.5,2.3-42.8,2.1c-0.5,0-1,0-1.5,0c-1.8,0.1-3.9-0.5-3.8,2.5c0.1,2.6,1.8,2.8,3.8,2.8
	c8.8-0.1,17.7-0.1,26.5-0.1c2.5,0,5,0,7.2,1.6c2.8,2.1,4.1,4.8,3.1,8.3c-0.9,3.5-3.1,5.1-6.9,5.1c-9.5,0.2-19,0.6-28.4,1
	c-1.6,0.1-3.5-0.4-3.7,2.2c-0.1,2.8,1.8,2.8,3.7,2.7c14.1-0.8,28.3-0.9,42.4-0.8c2.4,0,4.7,0.2,6.9,1.1c3.6,1.5,5.6,4.3,5,8.2
	c-0.6,3.8-3.3,5.4-7.2,5.5c-21.5,0.6-42.9,1-64.4,2c-10.8,0.5-21.6,0.9-32.4,0.8c-3,0-6-0.3-8.9-0.7c-4.4-0.6-7-3.1-6.6-7.8
	c0.4-4.5,3-6.8,7.6-7c10-0.4,20-0.8,29.9-1.3c1.6-0.1,4.2,1,4.2-1.9c0.1-3.3-2.7-2.3-4.4-2.3c-6-0.1-12,0-18-0.2
	c-6.2-0.2-9.2-2.8-9.3-7.5c-0.1-5,3-7.8,9.2-8.1c5.6-0.3,11.3-0.6,16.9-0.8c2.1-0.1,4,0.1,3.9-3c-0.1-2.9-2-3.1-4.1-3.1
	c-6.8,0-13.7,0-20.4-1c-4.6-0.7-7.6-3.6-7.6-7.7c0-4.5,3.4-8,8.3-8.1c6.5-0.2,13-0.4,19.5-0.2c3.1,0.1,3.5-1.6,3.8-3.9
	c0.4-3.3-1.8-3-3.8-3C1087.3-1555.5,1077.6-1555.5,1068-1555.6C1068-1555.5,1068-1555.5,1068-1555.6z M1134.7-1584.4
	c-3.5,0-7,0.1-10.5,0c-3.1-0.2-5.1,0.7-4.2,4.1c0.7,2.9-2.3,7.8,4.4,7.7c10.3-0.1,20.6-0.5,30.9,0.6c2.2,0.2,3.1-0.7,3-2.8
	c-0.1-1.8-0.2-3.7-0.1-5.5c0.1-2.3-0.8-3.2-3.2-3.4C1148.3-1584.1,1141.5-1585.1,1134.7-1584.4z M1139.5-1555.4
	C1139.5-1555.4,1139.5-1555.3,1139.5-1555.4c-5.3,0.1-10.7,0.2-16,0c-2.8-0.1-3.3,1.3-3.3,3.7c0.1,2.2,0.1,3.9,3.1,3.8
	c10.8-0.3,21.6,0.5,32.4-0.8c2.8-0.3,3.1-1.6,3.2-3.8c0.1-2.7-1.5-2.9-3.5-2.9C1150.2-1555.4,1144.9-1555.4,1139.5-1555.4z"/>
<path class="st1" d="M627.2-1429.6c10.2-4.9,19.8-4.1,28,4.1c8.1,8.1,10.5,18.1,7.7,29c-3.6,14.1-10.3,26.4-23,34.4
	c-8.9,5.6-18.6,8.3-29,6.5c-4.9-0.8-6.6,0.9-7.9,5.5c-6.6,24.1-13.5,48.1-20.3,72.1c-1.8,6.2-5.3,7.9-11.3,6
	c-5.2-1.6-6.8-4.5-5.4-9.9c6.5-25,12.9-49.9,19.5-74.8c0.9-3.5,0.3-4.8-3.1-6c-14.7-5.4-25.8-14.8-30.1-30.3
	c-6-21.9,3.9-44.4,27.2-49.9c9-2.1,17.3-0.7,23.9,6.3c2.9,3,3.3,2.2,4.3-1.4c5.8-22.4,11.9-44.7,17.8-67.1c1.1-4.2,3.1-6,7.6-4.2
	c2.7,1.1,5.7,1.9,8.6,2.4c4.3,0.7,4.8,3,3.8,6.8c-5.9,21.7-11.7,43.4-17.5,65.1C627.5-1433.2,626.8-1431.5,627.2-1429.6
	c-0.1,0.2-0.3,0.4-0.4,0.5C626.8-1429.3,627-1429.4,627.2-1429.6z M617.3-1372.5c4.4,0.1,8.3-1.1,12-3.2c9.9-5.9,14.2-15.5,17.1-26
	c1.4-5.3-0.4-9.9-4.1-12.4c-4.5-2.9-7.2,0.8-10,3c-13.8,10.4-30.4,6.2-37.5-9.5c-2.3-5.2-6.3-7.3-11.8-5.8
	c-7.7,2.1-12.7,6.9-14.7,14.8c-2.5,10,0.2,18.5,7.7,25.3C587.7-1375.7,602.8-1374.9,617.3-1372.5z"/>
<path class="st2" d="M1349.3-1577.4c-6-0.4-11.1-0.7-16.3-1.2c-5.2-0.4-8.9-4.5-8.5-9.2c0.4-4.7,4.2-7.7,9.5-7.5
	c15.3,0.8,30.6,0.6,46,0.5c5.9,0,7.7-2.1,6.9-8.1c-0.2-2-0.4-3.9-0.1-5.9c1.4-10,11.4-14.6,20-8.9c3.7,2.5,4.8,6.2,4.2,10.5
	c-0.4,2.8-0.5,5.7-1.3,8.4c-1,3.5,0.7,4,3.5,4c16.8,0.3,33.6,0.7,50.4,1c7.2,0.1,9.6,1.9,9.6,7.2c0,5.5-3,8.4-9.4,8.6
	c-6,0.2-12,0.2-18,0.2c-2.1,0-2.9,0.2-3.2,2.8c-1,6.7-4.5,12.8-7.4,20.4c8.7,0,16.6,0.2,24.6-0.1c6-0.2,11.9,0.9,17.9,1.2
	c4.5,0.2,7.1,3.3,7,7.5c-0.1,4.5-2.8,7.2-7.7,7.2c-23.8,0.1-47.6,0.7-71.4,2.2c-24,1.5-48,1.1-71.9,0.7c-1.7,0-3.3-0.2-4.9-0.5
	c-5.2-1.1-7.7-4.1-7.3-8.4c0.4-4,4.1-7.4,8.6-7.6c6.2-0.2,12.3-0.3,18.5-0.4c3.2-0.1,5.1-0.8,3.1-4.6c-1.4-2.6-2.1-5.6-3.5-8.3
	C1346.1-1569.6,1345.7-1573.2,1349.3-1577.4z M1366.8-1577.4c1.8,8.1,6.9,14.6,9,22.3c0.6,2.3,2.6,1.6,4.2,1.7
	c10.3,0.3,20.6-0.6,30.9-1.2c2.2-0.1,3.2-0.9,4-2.9c2.5-6,5.1-11.9,8-17.7c1.4-2.9,0.2-3.6-2.3-3.6c-4.2-0.1-8.3-0.1-12.5,0
	C1394.4-1578.5,1380.7-1578.7,1366.8-1577.4z"/>
<path class="st2" d="M1114.4-1422.7c-12.4,0.4-24.9,0.2-37.3-1.7c-8.9-1.3-10-1.6-11.8-12.9c-1.7-11.2-0.7-22.5,0.9-33.7
	c1.2-8.4,6.6-12.2,14.8-10c3.3,0.9,6,0.9,8.9-0.9c1.6-1,3.8-1.6,5.7-1.6c20.1,0.1,40.3-1.3,60.3,1.7c13.2,2,14.2,2.8,16,15.9
	c1.6,11.9,1.6,23.9,0.2,35.8c-0.4,3.7-2.6,5.3-5.9,5.6c-8.3,0.6-16.6,1.3-24.8,1.6C1132.3-1422.5,1123.3-1422.7,1114.4-1422.7z
	 M1140.6-1437.5c0-0.1,0-0.2,0-0.3c3,0,6,0,9,0c1.9,0,3.3-0.5,3.3-2.7c0.2-7.3,0.3-14.6-0.5-21.9c-0.3-2.6-1.6-3.2-3.8-3.6
	c-5.7-1-11.5-1.3-17.3-1.9c-3.6-0.4-4.4,0.8-4.1,4c0.3,2.9,1.4,4.7,4.4,4.9c2.5,0.2,5,0.3,7.4,0.8c4.6,0.8,6.4,3.2,5.9,8.2
	c-0.4,4.1-2.8,6.2-6.9,6.4c-1.8,0.1-3.7,0.1-5.5,0c-2-0.1-3.5,0.1-3.6,2.8c0,2.7,1,3.5,3.6,3.4
	C1135.3-1437.7,1137.9-1437.5,1140.6-1437.5z M1097-1459.9v0.1c3,0,6-0.2,8.9,0c2.6,0.2,4.2-0.2,3.9-3.4c-0.2-2.5,0.7-5.6-3.6-5.4
	c-5.8,0.2-11.6,0.1-17.4,0.1c-3,0-4.5,1.1-4.4,4.4c0,3.5,1.7,4.2,4.6,4C1091.7-1460,1094.3-1459.9,1097-1459.9z M1098-1437.7
	c0,0.1,0,0.1,0,0.2c3.3,0,6.6,0,9.9,0c2,0,3.2-0.5,3-2.8c-0.2-2,0.1-4.1-2.8-4.3c-6.4-0.6-12.8-1.2-19.2-2c-3.5-0.4-4.6,0.7-4.6,4.3
	c0,3.5,1.4,4.8,4.7,4.6C1092-1437.8,1095-1437.7,1098-1437.7z"/>
<path class="st1" d="M876.8-1573.1c1.4,15.4,3,32.4,4.6,49.5c1,10.9,2.1,21.8,3.4,32.7c1.8,15.2,3.8,30.3,5.6,45.5
	c0.4,3,0.5,6,0.5,9c-0.1,5.2-3.3,9.2-8.3,10.5c-14.2,3.7-28.5,6.5-43.2,6.8c-5.5,0.1-9.3-4.1-10.1-11.5c-0.5-5,2.2-8.5,7.4-9.3
	c8-1.3,16.1-2.7,24.1-3.8c4.1-0.6,6-2.1,5.2-6.8c-3.5-22.2-6.2-44.5-8.3-66.8c-1.8-19.5-4-39-4.9-58.6c-0.2-5-0.4-9.9,0.3-14.9
	c0.6-4.3,2.2-8,5.7-10.7c7.2-5.6,16-2.2,16.9,6.9C876.4-1588.1,877.5-1581.5,876.8-1573.1z"/>
<path class="st1" d="M1307.2-1549.7c6.4,0.1,6.9,4.9,8.5,8.8c1.5,3.7-0.2,6.2-3.3,7.9c-5.4,3-10.8,5.9-16.4,8.5
	c-2.7,1.2-3.3,2.7-2.9,5.4c2.5,15.2,4.9,30.5,7.3,45.8c0.9,5.6,1.8,11.2,2.5,16.8c0.8,6.5-2.2,10.4-8.4,11.2
	c-6,0.8-9.3-1.8-10.6-8.2c-3.8-19.1-6.4-38.3-8.6-57.7c-0.4-3.4-1.2-4-4.3-2.7c-5.3,2.3-10.8,4.4-16.3,6.3
	c-4.6,1.6-8.4-0.4-10.5-4.9c-2.3-5.1-1.6-8.5,3-11c18.2-10.1,37.2-18.5,56.9-25.4C1305.4-1549.4,1306.6-1549.5,1307.2-1549.7z"/>
<path class="st2" d="M1112.4-1400.7c-19.1,0-34.2,0-49.3,0c-2.6,0-5.3-0.1-7.9-0.6c-4.7-0.9-6.6-4-6.1-9.3c0.5-4.6,3.4-5.9,7.6-5.9
	c25.6,0,51.3,0.3,76.9-0.1c17.4-0.3,34.8-1.6,52.3-2.4c2.8-0.1,5.7-0.2,8.5,0.1c5.7,0.6,7.8,3.2,7.6,8.9c-0.2,4.8-2.7,7.1-8.2,7.4
	C1165.4-1401.2,1137-1400.3,1112.4-1400.7z"/>
<path class="st1" d="M659.5-1602.3c2.1,10.6,3.5,21,5.5,31.4c1.6,8.5,3.8,16.9,4.1,25.5c0.3,8.1-2.7,14.5-9.3,19.3
	c-4.8,3.5-9.7,7-15,9.9c-4.2,2.3-7.6,1.3-9.8-2.4c-3.7-6.3-7.2-12.7-10.2-19.4c-2.9-6.4-0.5-12.4,3.2-17.8
	c6.6-9.6,13.7-18.8,20.2-28.4C652.3-1590,655.8-1596.2,659.5-1602.3z"/>
<path class="st1" d="M812-1539.4c-0.8,2.8-1.7,6.7-3.1,10.4c-8.3,21.6-15.7,43.5-25.6,64.5c-3.8,8-10.9,10.1-18,5.1
	c-4.3-3-5.3-6.8-3.6-11.8c6.1-17.6,12.6-35.1,19.6-52.4c2.5-6.2,5.3-12.2,8.1-18.3c1.7-3.7,4.4-6.6,8.2-8.4
	C804.9-1553.6,812.5-1548.6,812-1539.4z"/>
<path class="st1" d="M955.7-1465.8c-4.9,0.2-7.7-2.5-9.5-6.7c-7.3-17.1-14.5-34.3-21.9-51.4c-2.2-5.2-4.7-10.3-7.3-15.3
	c-2.3-4.4-1.2-7.9,2.3-11.1c8-7.3,17.5-5.5,21.8,4.3c8.8,20.1,17.6,40.2,26.3,60.4C971.5-1476.3,965.2-1465.8,955.7-1465.8z"/>
<path class="st2" d="M883.3-1325.5c0.1-9.5,0-18.5,1.6-27.4c0.5-2.7,1.8-5,4.4-4c5.5,2.1,10.8,0,16.2,0.5c8.2,0.7,15.8,2.6,21.7,8.7
	c8,8.2,6.7,20.8-3,26.9c-2.1,1.3-2.4,2.3-1.2,4.3c1.7,2.9,3.1,5.9,4.8,8.8c1.6,2.8,1.2,5.3-1.6,6.8c-2.6,1.4-5.2,0.9-6.9-1.9
	c-0.9-1.4-2.2-2.7-2.5-4.3c-2.8-12.4-13.7-9.3-21.7-11.4c-2.1-0.6-1.8,1.4-1.8,2.7c0.1,3,0.3,5.9,0.4,8.9c0.1,3.2-0.3,6.2-4.3,6.7
	s-4.7-1.9-5.3-5.4C882.9-1312.5,883.9-1319.3,883.3-1325.5z M893.1-1334.8c-1,4.1-0.4,7.9,6.6,8.1c5.8,0.2,11.5,1.9,17.1-0.6
	c3.2-1.4,5.9-3.5,6.2-7.1c0.3-3.9-1.7-7-5-9.1c-4.1-2.6-8.7-3-13.4-3.2C893.1-1347.5,893.1-1347.6,893.1-1334.8z"/>
<path class="st1" d="M1379.1-1329.8c-0.1,14.6-8.4,25.1-21.9,28.2c-4,0.9-7.6,0.4-11.1-1.4c-2.5-1.3-4.5-1.9-7.2,0.1
	c-3.3,2.3-5.9,0.6-6.5-3.5c-2.5-15.7-1.5-31.5,0.1-47.2c0.4-4,2.9-5.5,6.6-3.8c2.2,1,3.9,1.1,6.1,0.2c12.4-5.5,28.9,4.9,31.7,15.8
	C1378-1337.5,1379.4-1333.5,1379.1-1329.8z M1369.1-1329.1c-0.1-15.7-11.3-23.3-24.6-18c-2.5,1-3.4,2.2-3.4,4.7
	c-0.1,7-1.1,13.9-0.1,20.9c0.6,4.6-0.8,10,6.8,9.1c0.3,0,0.6,0.2,0.9,0.3c6.4,2.4,12.8,0.5,16.4-5.2
	C1367.7-1321.2,1368.9-1325.5,1369.1-1329.1z"/>
<path class="st1" d="M810.2-1310.3c0,1.7-0.1,3.3,0,5c0.2,3.5-1.2,5.5-4.8,5.4c-3.4-0.1-4.1-2.3-4.3-5.4c-0.6-10.6-1.9-21.2-6-31.2
	c-1.7-4.2-2.9-9.7-8.5-10.2c-5.7-0.5-7.3,5-9.6,8.9c-1.8,3.2-3.1,6.6-4.6,9.9c-0.9,2-0.4,3.2,1.9,3.4c3,0.3,5.9,0.7,8.9,1.1
	c3.3,0.4,6.7,1.2,6.4,5.4c-0.3,4.4-3.7,4.4-7.1,4c-3.1-0.4-6.4-0.3-9.4-1c-4.5-1.2-5.9,1-6.4,4.8c-0.3,2-0.8,3.9-1.2,5.9
	c-0.6,2.9-2.1,4.4-5.2,4c-3.2-0.5-4.7-2.1-4.1-5.5c2.7-16.6,7.4-32.5,18.7-45.5c7.1-8.1,15.8-7.9,22.5,0.3
	C805.3-1341.2,810.1-1325.9,810.2-1310.3z"/>
<path class="st2" d="M1125.1-1337.2c9.5-5.4,18.2-10.2,26.9-15.1c2.4-1.4,4.6-1.9,6.4,0.9c2.1,3.2,2,5.7-1.8,7.7
	c-6.1,3.3-12.2,6.8-18.2,10.4c-1.2,0.7-2.8,1-3.6,3.2c4.3-1.6,6.4,0.9,8.8,3.5c5.1,5.3,8.9,11.6,13.5,17.3c2.2,2.7,1.9,5.3-0.7,7.4
	c-2.9,2.4-5.3,1-7.2-1.5c-4.8-6.1-9.6-12.3-14.4-18.5c-1.8-2.4-2.8-4.9-0.3-7.9c-7.8,1.1-9.5,2.9-9.7,9.1
	c-0.2,5.3-0.7,10.6-0.9,15.9c-0.1,3-1.4,4.8-4.5,4.8c-3.2,0-5.1-1.7-5.1-4.9c0-6.8-0.1-13.7,0.2-20.5c0.4-8.8,1.2-17.6,1.8-26.4
	c0.2-3.2,0.8-6.1,5.1-5.8c4.2,0.2,4.8,2.8,4.5,6.2C1125.6-1347,1125.4-1342.7,1125.1-1337.2z"/>
<path class="st2" d="M1466.9-1300.6c-9.9,0-15.9-2.9-21-7.8c-2.5-2.4-2.1-4.8,0-7c2.2-2.3,4.5-2.5,6.8,0.1c3.6,3.9,8.3,5.5,13.5,5
	c3.1-0.3,6-1.3,6.8-4.8c0.8-3.2-1.1-5.3-3.6-7c-3.8-2.5-8.1-3.8-12.2-5.7c-3.2-1.4-6.5-2.7-8.9-5.4c-7.5-8.5-3.3-20.9,8.7-24.5
	c9.6-3,18.3,0.8,26.6,5.1c1.8,0.9,1.6,2.9,0.7,4.4c-1.1,1.9-2.2,3.7-5.1,2.8c-4-1.3-8-2.4-12-3.2c-2.2-0.4-4.7-0.3-6.9,0
	c-2.7,0.4-5.1,1.7-5.7,4.8c-0.6,3.3,1.7,4.9,4.2,6c4.2,2,8.5,3.8,12.7,5.8c9.3,4.4,13.4,10.9,11.7,18
	C1481.3-1305.4,1474.4-1300.5,1466.9-1300.6z"/>
<path class="st2" d="M1249.6-1357.3c3.5,0,7,0,10.5,0c3,0,4.7,1.2,4.8,4.4c0.1,3.1-1.7,5.2-4.4,4.8c-6.5-0.9-6.7,2.8-6.7,7.6
	c0,8.1-0.4,16.3-0.9,24.4c-0.2,3.8,0.9,5.8,4.9,5.4c3.4-0.3,5.8,0.9,5.8,4.5c0,3.6-2.3,5.3-5.9,5.1c-6.5-0.3-13-0.5-19.5-0.7
	c-3-0.1-4.8-1.4-4.8-4.5c0-2.9,1.7-5.2,4.5-4.9c5.5,0.7,5.3-2.5,5.4-6.3c0.2-8.8,0.6-17.6,1.1-26.4c0.1-2.8-0.4-4.4-3.7-4.4
	c-3.7,0.1-6.3-1.6-5.9-5.7c0.3-3.9,3.3-3.9,6.3-3.8c2.8,0.1,5.7,0,8.5,0C1249.6-1357.5,1249.6-1357.4,1249.6-1357.3z"/>
<path class="st1" d="M1036-1357.5c2.5,0,5,0,7.5,0c2.8,0,5.4,0.1,5.6,4c0.2,4-2.1,5.3-5.6,5.4c-4.5,0.2-9,0.4-13.5,0.4
	c-2.1,0-2.6,0.4-2.3,2.9c1.4,12.6,2.3,25.2,3.4,37.7c0.3,3.5-0.2,6.6-4.5,6.7c-4.2,0.1-5-3-5.2-6.5c-0.6-12.5-3.2-24.8-3.1-37.3
	c0-2.5-1.2-2.7-3.1-2.7c-3.3,0-6.7-0.1-10-0.1c-3.2,0-5-1.4-5.1-4.7c0-3.4,1.8-4.9,5-4.8C1015.4-1356,1025.7-1357.4,1036-1357.5z"/>
<path class="st3" d="M627.2-1429.6c-0.2,0.1-0.4,0.3-0.6,0.4c0.1-0.2,0.3-0.4,0.4-0.5C627-1429.7,627.2-1429.6,627.2-1429.6z"/>
<path class="st2" d="M312.2-1391.9c0,13.1-10.9,24.2-24,24.3c-13.5,0.1-24.2-10.4-24.1-23.9c0-12.7,11.5-24.6,23.9-24.8
	C301-1416.7,312.2-1405.3,312.2-1391.9z"/>
<path class="st1" d="M451.7-1436.6c13.1,0.2,23.7,11.5,23.4,24.9c-0.3,12.7-12,23.3-25.4,23c-12.6-0.3-23.2-10.9-23.2-23.4
	C426.4-1425.3,438.2-1436.9,451.7-1436.6z"/>
<path class="st2" d="M421.4-1383.6c-3.5,10-9.3,17-17.1,22.1c-20.3,13-41.6,16.4-63.8,4.9c-2.5-1.3-4.7-3.1-7-4.7
	c-0.9-0.7-2.2-1.4-1.8-2.7c0.5-1.6,2.1-1.3,3.4-1.3c10.7,0,21.2-1,31.8-2.6c17.4-2.6,33.9-8.3,50.3-14.2
	C418.2-1382.5,419.3-1382.8,421.4-1383.6z"/>
<g>
	<g>
		<path class="st0" d="M1380.5,420.5c-4.2-0.1-8.3-0.1-11.5-0.1l-11.3,0c-10,0-21.7-0.1-33.9-1c-16.4-1.2-30.9-7.4-41.9-18
			c-11.3-10.9-18.1-26.1-19.1-42.6c0-0.1,0-0.1,0-0.2c-0.3-5.4,0-10.6,0.9-15.7c-7.9-8.5-13.5-19.2-16-31.5c0-0.1-0.1-0.6-0.1-0.6
			c-5-25.8-5.3-51.3-0.9-75.5c0-0.1,0-0.2,0-0.2c5.9-31.6,33.7-54.5,66.1-54.5c1,0,2,0,3,0.1c14.4-3.6,27.3-3.6,35.6-3.6l3.2,0
			c1.5,0,3,0,4.5,0c6.1-0.1,11.6-0.2,16.8-0.2c23.9,0,43.6,1.5,62.2,4.6c31.2,5.2,51.9,26,56.6,57.2c0,0.1,0.1,0.5,0.1,0.5
			c3.2,22.4,4.3,41.2,3.5,59.3c-0.4,9.3-2.4,18.1-5.9,25.9c4.3,8.6,6.8,18.3,7,28.7c0.7,34.5-25.1,63.1-60,66.4
			c-0.1,0-0.5,0.1-0.6,0.1c-10.4,0.9-20,1-27.3,1c-3.5,0-7,0-10.5-0.1c-3.1,0-6.2-0.1-9.3-0.1c-3.3,0-6,0-8.5,0.1l-0.4,0
			c-0.4,0-0.8,0-1.2,0C1381.3,420.5,1380.5,420.5,1380.5,420.5z"/>
		<path class="st0" d="M1381.1,380.5c-4.4-0.1-8.8-0.1-12.1-0.1c-1.9,0-9.4,0-11.3,0c-9.3,0-20.1-0.1-31.1-0.9
			c-14.1-1-23.1-9.6-23.9-23.1c-0.6-11,4.3-19.7,12.9-24c-0.7-2.7-1-5.6-0.8-8.7c-2.1-0.2-4.2-0.4-6.2-0.6l-0.1,0
			c-11.2-1.2-19.3-8.5-21.6-19.7l0-0.2c-4.1-21-4.3-41.4-0.8-60.8c2.4-12.7,13.6-21.8,26.8-21.8c2.2,0,4.3,0.2,6.5,0.7
			c11.8-4.3,23.3-4.3,32.1-4.3l3.2,0c1.8,0,3.6,0,5.4,0c5.8-0.1,11-0.2,15.9-0.2c21.6,0,39.2,1.3,55.5,4
			c14.1,2.3,21.6,9.9,23.7,23.7l0,0.2c2.8,19.8,3.8,36.3,3.2,51.9c-0.4,9.5-4.2,21.3-19.2,25.6c0.3,2.6,0.3,5,0.3,7
			c0,0.1,0,0.3,0,0.4c12.1,2.5,19.8,11.6,20,24.1c0.3,13.6-9.8,24.5-23.9,25.8l-0.2,0c-8.9,0.8-17.5,0.8-24,0.8
			c-3.4,0-6.8,0-10.1-0.1c-3.2,0-6.4-0.1-9.6-0.1c-3.7,0-6.8,0-9.7,0.1l-0.4,0L1381.1,380.5z"/>
		<path class="st0" d="M1050.4,333.2c-1.2,0-2.5,0-3.7,0c-5.2,0-10.4-0.4-16.4-1.2c-34.6-4.7-58.6-34.4-55.6-69.1c0,0,0-0.1,0-0.1
			c0.2-2.2,0.5-4.4,0.9-6.6c-5.1-3-9.7-6.7-13.8-11.1c-11.9-12.6-18-29.2-17.3-46.8c0.8-18.4,9-34.8,22.1-46.2
			c2.6-10.1,7.5-19.3,14.6-27c11.8-12.9,28.2-20.3,46.3-21c0.1,0,0.1,0,0.2,0c2.4-0.1,5-0.1,7.7-0.1c12-10.5,27.7-16.4,44.1-16.4
			c3.8,0,7.7,0.3,11.6,1c0.1,0,0.1,0,0.2,0c13.3,2.3,25.2,8.3,34.4,17c1.8,0.1,5.7,0.2,5.8,0.2c7.3,0.3,13.6,1.4,18.2,2.2l1.4,0.2
			c20.8,3.4,37.8,16.3,46.9,34.2c7.6,3.3,14.4,8,20.1,13.9c11.6,11.9,18,28.1,18,45.4c0,23-11.2,42.6-28.8,54
			c1.2,6.8,1.3,13.8,0.2,21c0,0.1,0,0.1,0,0.2c-4.9,30.8-30.3,52.8-62,53.7c-5.3,0.1-10.7,0.3-16,0.4l-0.1,0
			c-15.5,0.4-31.6,0.8-47.1,1.5C1072.2,332.8,1061.6,333.2,1050.4,333.2z"/>
		<path class="st0" d="M1050.4,293.2c-1.2,0-2.3,0-3.5,0c-3.4,0-6.9-0.3-11.1-0.9c-13.6-1.9-22.4-12.6-21.2-26.1
			c0.7-7.7,4.3-14,10-18c0-0.1,0-0.3,0-0.4c-0.1-3.8,0.6-7.4,2-10.5c-2.3-3.4-3.7-7.4-4-11.8c-0.9,0-1.9,0-2.8,0c-3.2,0-6.3,0-9.5,0
			l-0.1,0c-9.8-0.2-15.8-4.4-19.1-7.9c-4.4-4.7-6.7-11-6.4-17.7c0.5-12.2,9-21.5,20.9-23.7c-0.4-1.7-0.7-3.6-0.9-5.5
			c-0.5-9.3,3.1-15.3,6.2-18.8c3.1-3.4,8.8-7.6,18.2-7.9c3.2-0.1,6.6-0.1,10.4-0.1c3.3,0,6.6,0,10,0.1c1.8,0,3.6,0,5.4,0
			c1.1-2.8,2.7-5.4,4.7-7.6c5-5.6,12.3-8.8,20.1-8.8c1.6,0,3.3,0.1,5,0.4c10,1.7,17.3,8.1,19.9,16.9c7.4,0.2,15.6,0.4,25.2,0.8
			c4.9,0.2,9.4,1,13.4,1.7l1.5,0.3c11.9,1.9,20,11.2,20.6,23.6c0.1,1.6,0.2,3.3,0.4,5.1c2.1,0.1,4.2,0.2,6.3,0.3
			c14.6,0.8,24.3,10.8,24.3,25c0,14.2-10.4,24.3-25.2,24.6c-1.9,0-3.8,0.1-5.7,0.1c-0.9,6-3.7,13.5-11.8,18.1
			c10.5,4.8,16.1,14.9,14.4,26.1c-1.9,11.8-11.1,19.6-23.6,19.9c-5.3,0.1-10.7,0.3-16.1,0.4c-15.7,0.4-32,0.8-48,1.6
			C1070.8,292.8,1060.8,293.2,1050.4,293.2z"/>
		<path class="st0" d="M1337,285.6c-11.4,0-22.7-0.2-33.6-0.4c-4.9,0-9.7-0.5-14.8-1.5c-0.2,0-1.2-0.2-1.3-0.3
			c-33.4-7.1-55.3-36.3-52.3-69.4c0-0.1,0-0.4,0-0.4c0.7-6.7,2.4-13.2,5-19.3c-2-7.3-2.8-15.1-2.1-22.9c2.9-34,31.2-59.7,65.8-59.7
			c0.8,0,1.7,0,2.6,0c0.2,0,0.8,0,0.9,0c2.8,0.1,5.6,0.3,8.7,0.3c12.8-15.6,32-25.3,53.4-25.3c13.9,0,27.5,4.1,39.3,12
			c0,0,0.4,0.3,0.4,0.3c5.8,3.9,10.9,8.6,15.1,13.9c3.6,0.1,7.2,0.1,10.8,0.2c32,0.5,48.2,17.7,55,28c9.3,14,10.7,28.7,10.7,36.2
			c0,1.1,0,2.3-0.1,3.4c7.6,11,11.9,24.4,11.6,38.6c-0.4,17.2-7.3,33.2-19.4,44.9c-12,11.5-28,17.9-45.1,17.9
			c-25.1,0.1-47.3,0.8-67.9,2.1C1366.6,285.2,1353.1,285.6,1337,285.6z"/>
		<path class="st0" d="M1337,245.6c-11.1,0-22.3-0.2-33.1-0.4c-2.5,0-5.1-0.3-7.9-0.8l-0.4-0.1c-13.6-2.9-21.9-13.6-20.7-26.6l0-0.1
			c0.9-8.6,6.2-16,13.7-19.9c-1.8-1.2-3.4-2.7-4.8-4.4c-4.4-5.2-6.5-11.7-5.9-18.4c1.1-13.4,12-23.1,25.9-23.1c0.4,0,0.8,0,1.1,0
			l0.2,0c7.6,0.4,15.7,0.6,26.4,0.6c2.9,0,5.8,0,8.8,0c2.3-14.8,14.4-25.4,29-25.4c6,0,11.9,1.8,17.2,5.3l0.1,0.1
			c7,4.8,11.1,11.9,11.8,20.3c3.6,0.1,7.1,0.1,10.7,0.2c8.4,0.2,16.8,0.3,25.1,0.5c24.4,0.3,26.3,18.6,26.3,24.2
			c0,6.8-2.2,12.6-6,17c10.5,2.9,17.8,12.4,17.5,24c-0.3,13.8-10.7,23.8-24.7,23.8c-25.9,0.1-48.9,0.8-70.3,2.2
			C1365,245.2,1352.2,245.6,1337,245.6z"/>
		<path class="st0" d="M1074.7,398.6c-13,0-24.7-0.8-35.7-2.5c-7.8-1.1-25.9-3.8-40.9-19.2c-14.6-14.9-17.4-32.6-18.8-41.1
			c0,0,0-0.3-0.1-0.4c-2.9-19.1-1.1-36.9,0.8-50.3c5-35.1,32.5-59.6,66.9-59.6c0.9,0,1.9,0,2.8,0.1c5.3-1.3,10.7-1.9,16.1-1.9
			c0.1,0,2.2,0,2.2,0c4,0,8.3-0.1,12.4-0.1l0.2,0c4.5-0.1,9.1-0.1,13.8-0.1c10.8,0,25,0.3,40.2,2.6c9.9,1.5,28.3,4.3,43.8,19.5
			c16.3,16,18.9,34.9,20.3,45c0,0,0,0.1,0,0.1c2.2,16.3,2.3,33.1,0.3,49.9c-3.4,30.1-27,53.1-57.4,55.9c-0.2,0-0.4,0-0.7,0.1
			l-5.3,0.4c-7,0.5-14.2,1.1-21.7,1.3c-4.7,0.2-9.6,0.3-15.9,0.3c-2.4,0-4.7,0-7.1,0c-1.8,0-3.7,0-5.5,0
			C1081.8,398.5,1078.2,398.6,1074.7,398.6z"/>
		<path class="st0" d="M1074.7,358.6c-11,0-20.8-0.7-29.8-2.1c-5.6-0.8-12.6-1.9-18.2-7.6c-5.3-5.4-6.7-12-7.9-19.4l0-0.1
			c-2.1-13.9-0.7-27.3,0.9-38.7c2.2-15.3,12.9-25.2,27.3-25.2c2.3,0,4.6,0.3,7,0.8c3.7-1.7,7.9-2.7,11.9-2.7c0.8,0,1.5,0,2.2,0
			c4.3,0,8.7-0.1,12.9-0.1c4.4-0.1,8.9-0.1,13.4-0.1c9.4,0,21.7,0.2,34.3,2.1c7.6,1.2,15.4,2.3,21.7,8.5c6.5,6.4,7.7,14.7,8.7,21.9
			c1.8,13.1,1.8,26.5,0.2,40c-1.3,11.5-9.6,19.5-21.3,20.6c0,0-3.7,0.3-5.3,0.4c-6.6,0.5-13.5,1-20.3,1.3c-4.2,0.2-8.6,0.3-14.3,0.3
			c-2.3,0-4.6,0-6.8,0c-2.1,0-4.2,0-6.3,0C1081.3,358.5,1078,358.6,1074.7,358.6z"/>
		<path class="st0" d="M809.5,402c-34.7,0-62.7-26.2-66.6-62.4c0,0,0-0.3,0-0.5c-2.6-26.2,9.9-49.9,30.9-62.5
			c-0.9-8-1.8-16.1-2.5-24.5c-0.4-4.6-0.9-9-1.3-13.5c-1.5-15.4-3-31.4-3.8-47.8c0-0.1,0-0.4,0-0.4c-0.3-6.4-0.6-15,0.8-25.1
			c2.7-19.6,12.2-36.2,27.3-47.9c12.3-9.6,26.9-14.6,42.2-14.6c34.2,0,62.7,26.1,66.3,60.7c0.1,0.8,0.2,1.6,0.3,2.4
			c0.7,5.7,1.6,13.9,1.3,24c1,11.3,2.2,23.3,3.3,35.6l0.9,9.6c1.1,11.8,2.1,22,3.2,31.3c0.9,7.7,1.9,15.5,2.8,22.4
			c0.9,7.4,1.9,15.1,2.8,22.8c0.6,5,0.9,10.1,0.9,16c0,0.1,0,1,0,1.1c-0.6,30.9-21.1,56.8-50.9,64.6c-21.5,5.6-38.9,8.3-56.4,8.6
			C810.8,402,809.7,402,809.5,402z"/>
		<path class="st0" d="M809.5,362c-11.9,0-24.8-8.2-26.8-26.7l0-0.1c-1.4-13.9,7.7-25.6,21.6-27.8c1.8-0.3,3.6-0.6,5.4-0.9
			c2.7-0.4,5.4-0.9,8.1-1.3c-2.7-18.2-4.9-36.9-6.8-56.8c-0.4-4.6-0.9-9.1-1.3-13.6c-1.4-14.9-2.9-30.3-3.7-45.8l0-0.2
			c-0.2-5.3-0.5-11.4,0.5-17.9c1.3-9.2,5.4-16.6,12.2-21.8c5.2-4.1,11.4-6.3,17.7-6.3c13.9,0,25,10.5,26.5,24.9c0.1,1,0.2,2,0.3,2.9
			c0.6,5.4,1.4,12.1,0.9,20.2c1.1,12.4,2.4,25.8,3.7,39.4l0.8,8.6c1.1,12.1,2.2,22.7,3.4,32.3c0.9,7.6,1.9,15.2,2.8,22.7
			c0.9,7.4,1.9,15.1,2.8,22.7c0.4,3.3,0.6,6.8,0.6,11.1l0,0.3c-0.2,12.7-8.7,23.4-21,26.6c-18.4,4.8-32.9,7.1-47.1,7.3L809.5,362z"
			/>
		<path class="st0" d="M1262.8,376c-32,0-57.9-21.7-64.5-54c0-0.1,0-0.1,0-0.2c-0.9-4.4-1.7-8.8-2.5-13.3
			c-14.2-6.3-25.9-17.7-33-32.8c0-0.1-0.3-0.6-0.3-0.7c-14.5-32.2-3-67.6,27.4-84.4c20.4-11.3,42.3-21.1,65.1-29.1
			c2.3-0.8,4.6-1.5,7-2.1l0.1,0c4.1-1.4,8.4-2.1,12.7-2.1c0.2,0,0.4,0,0.6,0l2.9,0c28.2,0.4,50.9,17.2,60.6,44.9l0,0.1
			c9.4,24,3.5,50-14,67.5c0.6,4,1.9,12,1.9,12c0.9,5.7,1.9,12.1,2.8,18.7c4.7,37.8-20.1,69.9-57.6,74.8
			C1269.1,375.8,1265.9,376,1262.8,376z"/>
		<path class="st0" d="M1262.8,336c-10.1,0-22-5.8-25.3-22c-2.5-12.7-4.7-25.9-6.7-41.5c-0.1,0-0.2,0.1-0.3,0.1
			c-2.8,1-5.7,1.5-8.6,1.5c-9.9,0-18.4-5.7-22.9-15.3l-0.1-0.2c-6-13.3-1.9-26.2,10.3-32.9c18.5-10.3,38.5-19.2,59.3-26.5
			c1.8-0.7,3.3-1,4.3-1.2l2-0.7l2.9,0c11.4,0.2,19.4,6.3,23.6,18.2c0.1,0.4,0.3,0.7,0.4,1.1c4.6,11.4,0.3,23.2-10.9,29.3
			c-2.8,1.6-5.9,3.3-9.3,5c2,12.3,3.9,24.7,5.8,36.8l0.1,0.3c0.9,5.6,1.8,11.4,2.6,17.3c1.9,15.8-7.6,28.2-23.1,30.2
			C1265.6,335.9,1264.2,336,1262.8,336z"/>
		<path class="st0" d="M1095,420.5c-4.4,0-8.6,0-12.7-0.1h-48.8c-4.4,0-11.1-0.2-18.7-1.6c-33.4-6.4-55.3-36.1-52.1-70.6
			c0-0.1,0.1-0.7,0.1-0.8c1.8-16.3,9.4-31,21.4-41.3c11.6-9.9,26.8-15.4,42.9-15.4c7.5,0,15,0,22.5,0.1l0.8,0
			c7.7,0,15.3,0.1,22.9,0.1c11.6,0,21.1-0.1,29.8-0.2c10.4-0.2,21.6-0.8,32.4-1.4l0.2,0c5.8-0.3,11.8-0.7,17.9-0.9
			c0.1,0,0.5,0,0.6,0c1.6-0.1,3.8-0.1,6.3-0.1c3.7,0,7,0.2,10.3,0.5c17.1,1.8,32.4,9.6,43.1,21.9c10.6,12.2,16,28.5,15.4,45.7
			c0,0,0,0.3,0,0.4c-0.7,16.8-7.5,32.3-19.1,43.6c-11.2,10.9-26.5,17.4-43,18.3c-0.1,0-0.1,0-0.2,0
			C1138.8,419.8,1115.2,420.5,1095,420.5z"/>
		<path class="st0" d="M1095,380.5c-4.3,0-8.4,0-12.4-0.1h-49.2c-3,0-6.9-0.1-11.1-0.9c-13.4-2.6-21.2-13.4-19.8-27.6l0-0.2
			c1.4-12.8,11-21.1,24.5-21.1c7.7,0,15.4,0,23.1,0.1c7.7,0,15.4,0.1,23,0.1c11.8,0,21.5-0.1,30.5-0.2c11.2-0.2,22.8-0.8,34-1.5
			c5.8-0.3,11.8-0.7,17.8-0.9l0.2,0c1.5-0.1,3.1-0.1,4.9-0.1c2.2,0,4.2,0.1,6.1,0.3c14.6,1.5,23.3,11.7,22.8,26.4l0,0.1
			c-0.6,13.6-10.1,22.9-24.3,23.7C1137.4,379.9,1114.5,380.5,1095,380.5z"/>
		<path class="st0" d="M743.2,364.4c-14.2,0-28.2-4.5-40.3-13c-25-17.5-34.7-47.6-24.8-76.7c0,0,0.1-0.3,0.1-0.4
			c6.7-19.2,13.6-37.8,20.6-55.1c2.7-6.7,5.6-13.1,8.2-18.7l0.9-2c7.4-16.1,19.7-28.6,35.6-36.1c0.1,0,0.8-0.4,0.9-0.4
			c8.9-4,18.4-6.1,28-6.1c18.5,0,35.6,7.4,48.3,20.8c13,13.7,19.5,31.9,18.5,51.3l-0.1,1.9c-0.2,3-0.7,5.9-1.5,8.8l-0.5,1.8
			c-0.1,0.4-0.2,0.8-0.3,1.2l-0.1,0.3c-0.9,3.2-2.1,8-4.2,13.4c0,0.1,0,0.1-0.1,0.2c-2.1,5.4-4.1,10.9-6.1,16.3l-0.1,0.3
			c-6.3,16.8-12.7,34.2-21,51.9c0,0,0,0.1,0,0.1C793.3,349,769.6,364.4,743.2,364.4z"/>
		<path class="st0" d="M743.2,324.4c-6,0-12-2-17.4-5.8c-10.4-7.2-14.1-18.9-9.9-31.2l0-0.1c6.4-18.6,13.1-36.5,19.9-53.2
			c2.4-5.9,5-11.6,7.5-17.1l0.9-1.9c3.4-7.5,9.1-13.2,16.4-16.7l0.3-0.1c3.7-1.7,7.6-2.5,11.6-2.5c7.4,0,14.2,2.9,19.3,8.3
			c5.3,5.6,8,13.3,7.6,21.6l-0.1,1.9l-0.5,1.8c-0.2,0.6-0.4,1.4-0.6,2.1c-0.7,2.7-1.6,6.1-3,9.6c-2.2,5.7-4.3,11.4-6.4,17
			c-6,16-12.1,32.6-19.7,48.7C763.8,317.9,754.1,324.4,743.2,324.4z"/>
		<path class="st0" d="M925.5,355.3c-27,0-50.5-15.8-61.4-41.3c-2.7-6.2-5.3-12.4-7.9-18.5l-0.4-1c-4.4-10.4-9-21.3-13.5-31.7
			c0-0.1-0.2-0.4-0.2-0.4c-1.4-3.2-3.1-6.8-5.4-11.2c-14.2-27.2-8.6-58.5,14.4-79.5c13.7-12.5,31-19.4,48.6-19.4
			c27.8,0,52.2,16.4,63.8,42.9l0.1,0.2c8.6,19.7,17.6,40.1,26.3,60.4c9.7,22.2,7.6,47.5-5.6,67.7c-12.7,19.5-34.1,31.4-57.2,31.8
			C926.6,355.3,926.1,355.3,925.5,355.3z"/>
		<path class="st0" d="M925.5,315.3c-11,0-20-6.2-24.6-17c-2.7-6.4-5.4-12.7-8.1-19.1c-4.5-10.6-9.1-21.6-13.8-32.3l-0.1-0.1
			c-1.8-4.2-3.9-8.7-6.7-14.1c-5.8-11-3.6-22.8,5.9-31.5c6.4-5.8,13.9-8.9,21.6-8.9c11.8,0,22,7.1,27.2,18.9
			c8.6,19.8,17.6,40.2,26.3,60.5c4.3,9.8,3.4,21-2.4,30c-5.5,8.4-14.7,13.5-24.5,13.6C926.1,315.3,925.8,315.3,925.5,315.3z"/>
		<path class="st0" d="M858.7,521c-25.6,0-54.2-16.3-60.5-52.8c-1.6-9.1-1.5-16.9-1.4-22.1c0-0.8,0-1.9,0-2.5l0-0.3
			c-0.1-1.4-0.2-2.8-0.2-4.2l0-3.8c0.1-10,0.2-21.3,2.5-34c0-0.1,0-0.1,0-0.2c5.6-30,29.9-50.9,59.3-50.9c3.4,0,6.7,0.3,10,0.8
			c1.6-0.1,3.5-0.2,5.5-0.2c2.3,0,4.6,0.1,6.8,0.3c23.6,2,43,10.7,57.6,25.8c15.9,16.3,23.5,38.5,20.8,60.8
			c-0.6,5.2-1.8,10.4-3.5,15.4c0.8,7.8,0.2,15.7-2,23.4c-4.6,16-15.3,29.2-30.2,37.2c-9.1,4.9-19.4,7.5-29.7,7.5
			c-6,0-11.8-0.9-17.3-2.5c-3.1,0.9-6.4,1.6-9.7,2C864.1,520.8,861.4,521,858.7,521z"/>
		<path class="st0" d="M858.7,481c-4.2,0-18-1.4-21.1-19.6c-1-5.5-0.9-10.5-0.9-14.9c0-2.4,0.1-4.6-0.1-6.3l-0.1-0.9l0-3.8
			c0.1-8.8,0.2-17.9,1.8-27.3c2.3-12.6,11.7-18.2,20-18.2c2.3,0,4.6,0.4,6.8,1.2c0,0,0,0,0.1,0c0.7,0,1.7-0.1,2.8-0.2
			c1.6-0.2,3.7-0.3,5.9-0.3c1.2,0,2.2,0,3.3,0.1c8.9,0.8,22,3,32.4,13.8c7.4,7.6,11,17.9,9.8,28.2c-0.7,5.8-2.9,11.2-6.3,15.9
			c2.8,5.3,3.5,11.2,2,16.6c-1.6,5.5-5.4,10.1-10.7,13c-3.4,1.8-7.1,2.8-10.8,2.8c-6.7,0-12.9-3.2-17.2-8.6
			c-3.8,5.1-9.5,7.7-14.8,8.4C860.8,480.9,859.7,481,858.7,481z"/>
		<path class="st0" d="M1323.7,520c-3.9,0-7.9-0.3-11.7-1c-1.8,0.2-3.7,0.3-5.6,0.3c-30.1,0-55.3-22.2-60-52.8
			c-3.5-22.2-2.2-42.8-0.3-61.7c1.5-15.1,8.2-29,18.9-39.2c11.2-10.7,26-16.6,41.7-16.6c1.7,0,3.3,0.1,5,0.2
			c3.7-0.6,7.5-0.8,11.3-0.8c36,0,70,25.4,79.2,59.1l0.3,1c1.6,5.4,4.5,15.5,4,28c-1,40-27.5,72.8-66.1,81.7c-0.1,0-0.1,0-0.2,0
			C1334.7,519.3,1329.2,520,1323.7,520z"/>
		<path class="st0" d="M1323.7,480c-3.6,0-7.2-0.6-10.7-1.8c-2.2,0.7-4.4,1.1-6.7,1.1c-10.4,0-18.8-7.8-20.5-18.9
			c-2.8-17.7-1.7-35.2,0-51.5c1.2-11.6,9.7-19.8,20.8-19.8c2,0,4,0.3,6,0.8c3.3-1,6.7-1.5,10.2-1.5c18.1,0,36.3,13.4,40.7,29.9
			c0.1,0.5,0.3,0.9,0.4,1.4c1.2,4.2,2.7,9.4,2.4,15.3c-0.4,22-14.1,39.3-35.1,44.1C1328.7,479.7,1326.2,480,1323.7,480z"/>
		<path class="st0" d="M776,521.2c-0.6,0-1.2,0-1.8,0c-7.4-0.2-14.4-1.7-20.9-4.2c-6.8,2.5-14.1,3.9-21.7,3.9
			c-2.7,0-5.5-0.2-8.2-0.5c-0.2,0-1-0.1-1-0.1c-0.2,0-0.4-0.1-0.5-0.1c-16.9-2.6-31.5-11.5-41.1-25c-9.5-13.3-13.2-29.7-10.4-46.2
			c3.2-19.5,10-48.3,31.9-73.5c0,0,0.1-0.1,0.1-0.1c14.4-16.4,33.6-25.4,54.1-25.4c21.1,0,41.3,9.9,55.4,27.2c0,0,0.2,0.2,0.2,0.3
			c16,19.8,25.2,47.6,25.4,76.1c0,0.1,0,0.4,0,0.4c0,0.9,0,1.9,0,2.8l0,0.2c0.7,17.3-5.2,33.3-16.6,45.4
			C809.2,514.5,793.3,521.2,776,521.2z"/>
		<path class="st0" d="M776,481.2c-0.2,0-0.5,0-0.7,0c-7.4-0.2-16-4.1-19.4-13.9c-0.2,0-0.5,0-0.7,0c-1.4,0-2.8-0.1-3.8-0.2
			c-3.2,8.5-10.6,13.8-19.8,13.8c0,0,0,0,0,0c-1,0-2.1-0.1-3.1-0.2l-0.5-0.1c-8-1.2-12.4-5.4-14.8-8.7c-2.3-3.2-4.8-8.7-3.5-16.4
			c2.6-15.9,7.5-36.5,22.6-53.8c6.7-7.6,15.2-11.8,24.1-11.8c9.2,0,17.9,4.4,24.4,12.5l0.1,0.1c10.2,12.7,16.4,31.9,16.6,51.3v0.1
			c0,0.7,0,1.4,0,2c0,0.8,0,1.5,0,2c0.5,8.4-2.8,13.8-5.7,16.9C787.8,478.9,782.2,481.2,776,481.2z"/>
		<path class="st0" d="M1089.7,521.1c-34.8,0-62.1-27.2-62.1-61.9c0-1.3,0-2.6,0-3.9c0-5.8,0-12.3,0.3-19.1
			c0.3-6.8,0.8-13.2,1.3-19.4l0-0.4c0.2-2.6,0.4-5.3,0.6-7.9c2.5-38.8,32.8-59,61.4-59c1.3,0,2.6,0,3.9,0.1
			c7.4,0.4,14.5,2.1,21.1,4.8c3.1-0.5,6.3-0.7,9.5-0.7c20.5,0,39.5,10.4,50.9,27.9c10,15.3,13,33,8.7,49.9c-0.7,2.5-1.5,5-2.4,7.4
			c2.7,8.2,3.7,17,2.8,25.8c-1.7,16.3-9.8,31.1-22.8,41.7c-11.1,9.1-25,14.1-39,14.1c-5.3,0-10.5-0.7-15.6-2.1
			C1102.3,520.2,1096.1,521.1,1089.7,521.1z"/>
		<path class="st0" d="M1089.7,481.1c-12.6,0-22.1-9.4-22.1-21.9c0-1.3,0-2.7,0-4c0-5.6,0-11.4,0.2-17.2c0.3-6.2,0.7-12.3,1.2-18.1
			c0.2-2.9,0.4-5.7,0.6-8.6c1-16,12.2-21.7,21.5-21.7c0.5,0,1,0,1.6,0c7.9,0.4,12.7,4.1,15.4,7.2c0.7,0.8,1.3,1.6,1.9,2.5
			c1.3-0.7,2.6-1.5,3.9-2.2c3.9-2.3,7.8-3.4,11.7-3.4c7,0,13.4,3.6,17.4,9.8c4.8,7.4,4.5,13.9,3.5,18c-1.1,4.1-3.9,9.9-11.5,13.9
			c-0.2,0.1-0.4,0.2-0.6,0.3c0.6,0.8,1.2,1.7,1.8,2.5c1.5,2.1,3,4.1,4.5,6c3.9,4.8,5.7,10.6,5.1,16.4c-0.6,5.7-3.5,11-8.3,14.9
			c-5.1,4.2-10.3,5.1-13.7,5.1c-3.7,0-10.6-1.1-16.6-8C1103.3,477.8,1097.1,481.1,1089.7,481.1z"/>
		<path class="st0" d="M1437,520.5c-23.7,0-44-8-60.3-23.7c-16.9-16.2-22.8-39.2-17.2-60.2c-2.5-11.4-2.2-23.2,1-34.6
			c6.8-23.9,25.5-42.6,50-50.1c7.7-2.4,15.7-3.6,23.7-3.6c19,0,34.4,6.7,45.6,12.5c14.7,7.5,25.3,20.4,29.9,36.2
			c3.4,11.6,3.1,24-0.6,35.4c2.1,9.9,2.1,20.3-0.2,30.4c-7.7,34-37.1,57.7-71.6,57.7C1437.3,520.5,1437,520.5,1437,520.5z"/>
		<path class="st0" d="M1437.2,480.5c-13.5,0-23.9-4-32.8-12.5c-8.7-8.4-9.3-20.7-1.6-29.8c-4.8-7.5-6.2-16.6-3.8-25.2
			c3.1-10.8,11.8-19.3,23.3-22.8c3.9-1.2,7.9-1.8,12-1.8c10.3,0,19.3,3.9,27.3,8c4.8,2.5,8.3,6.7,9.8,11.8
			c1.6,5.3,0.7,11.3-2.2,16.3c-1.2,2.1-2.5,3.8-3.9,5.3c5.6,7.9,6.4,16.8,4.7,24.1c-3.5,15.7-16.9,26.6-32.6,26.6L1437.2,480.5z"/>
		<path class="st0" d="M1228.6,520c-1.1,0-2.2,0-3.3-0.1c-6-0.3-12.3-0.5-18.3-0.7c0,0-0.2,0-0.3,0c-16.2-0.5-31.3-7-42.4-18.2
			c-11.3-11.5-17.6-26.8-17.6-43.2c0-8.9,1.8-17.4,5.2-25.2c-3.2-8.6-4.4-17.9-3.5-27.5c2.8-32.3,28.8-55.8,61.8-55.8
			c1,0,2.1,0,3.2,0.1c0.3,0,0.5,0,0.8,0c0,0,0.1,0,0.1,0c0.7,0,1.3,0,2,0l0.2,0c1.2,0,2.3,0,3.5,0h17c9.5,0,18.2,3.3,25.1,8.8
			c17.9,10.4,29.5,29.5,30.2,51.3c0.3,9.4-1.4,18.6-5,26.9c2.4,6.7,3.7,14,3.7,21.6C1290.9,492.8,1263.5,520,1228.6,520z"/>
		<path class="st0" d="M1228.6,480c-0.5,0-0.9,0-1.4,0c-6.4-0.3-12.9-0.5-19.2-0.7c-12.4-0.4-21.3-9.5-21.3-21.5
			c0-8.1,4-15,10.1-18.8c0.1-3.2,0.2-6.6,0.4-10.2c-1.3-0.9-2.5-2-3.6-3.2c-4.1-4.5-6-10.5-5.4-17c0.8-9.7,7.9-19.3,22-19.3
			c0.6,0,1.2,0,1.8,0c0.8,0,1.5,0,2.3,0c0.9,0,1.8,0,2.7,0c1,0,2,0,3,0h17v1.3c9,2.4,15,10,15.3,20c0.2,6.2-1.9,12-6,16.2
			c-1.5,1.6-3.3,2.9-5.2,3.9c-0.1,3-0.2,5.9-0.3,8.7c6.3,3.7,10.2,10.4,10.2,18.5C1250.9,470.5,1241.3,480,1228.6,480z"/>
		<path class="st0" d="M996.7,520.7c-15.4,0-30-5.6-41.3-15.7c-12.3-11.1-19.6-26.9-20.6-44.5c0-0.1-0.1-1-0.1-1.3
			c-12.7-11-20.8-27-21.3-45l0-0.2c0-0.4,0-0.8,0-1.2v-0.3c0-34.7,27.1-61.8,61.7-61.8c0.6,0,1.3,0,1.9,0c0.2,0,1,0,1.1,0
			c0.5,0,1.2,0,1.9,0c2.8,0,6.3-0.2,10.2-0.5c4.6-0.3,9.8-0.6,15.5-0.7c0.1,0,8,0,8,0c34.5,0,60.8,24.4,62.5,58.1
			c0.9,17.1-4.9,33.3-16.2,45.5c-0.6,0.6-1.2,1.3-1.8,1.9c0.8,17.3-4.7,33.3-15.6,45.5c-11.3,12.6-27.2,19.8-44.6,20.2
			C997.8,520.7,997.3,520.7,996.7,520.7L996.7,520.7z"/>
		<path class="st0" d="M996.7,480.7c-10.3,0-21.1-7-22-22.5l0-0.2c-0.2-4.7-0.8-9.6-1.4-14.7c-0.4-3.1-0.7-6.2-1-9.4
			c-10.8-1.4-18.5-9.8-18.9-21l0-0.3v-0.3c0-12.6,9.1-21.8,21.7-21.8c0.3,0,0.5,0,0.8,0l0.3,0c1.2,0.1,2.5,0.1,3.8,0.1h0
			c4,0,8.2-0.3,12.7-0.5c4.3-0.3,8.8-0.5,13.4-0.6l7.7,0c15.9,0,22.1,10.8,22.6,20.1c0.4,8-2.8,13.3-5.6,16.3
			c-2.6,2.8-7.1,6.1-14.4,6.9c0.3,3.9,0.7,7.8,1,11.7c0.3,3.7,0.6,7.3,0.9,11c0.6,7.5-1.2,13.6-5.3,18.2c-3.9,4.3-9.5,6.8-15.7,6.9
			C997.1,480.7,996.9,480.7,996.7,480.7z"/>
		<path class="st2" d="M1381.4,363.5c-18.2-0.3-35.9,0.4-53.5-0.9c-5.7-0.4-7.9-2.2-8.2-7.2c-0.3-5.5,2-8.3,7.6-9
			c10.7-1.4,21.5-2,32.4-2c2.7,0,5.2,0.4,5.1-3.9c-0.1-4-1.1-5.5-5.4-5.4c-6.1,0.1-12.3-0.4-18.4-0.9c-6.8-0.6-9.6-3.8-9.2-9.8
			c0.3-4.6,3.9-7.5,9.9-7.6c6.1-0.1,12.3-1.2,18.4-0.4c2,0.3,3.7,0.1,3.5-2.7c-0.2-2.1,0.3-4.4-3.2-4.4c-8.5,0-17,0.2-25.4-0.8
			c-8.3-0.9-16.5-1.5-24.8-2.3c-3.8-0.4-5.9-2.3-6.7-6.2c-3.5-18.1-4.1-36.3-0.8-54.6c1.1-5.9,7.5-9.2,13.6-7.3
			c1.5,0.5,2.9,1.8,4.7,0.9c12.5-6.1,26.1-4.7,39.3-5c22.8-0.5,45.6-0.2,68.2,3.6c6.6,1.1,8.7,2.9,9.7,9.5c2.3,16.2,3.7,32.4,3,48.8
			c-0.3,7.2-2.8,9.6-9.9,10.7c-14.7,2.3-29.4,3-44.2,3c-2,0-4.4-0.7-4.5,2.9c0,3.3,1.3,4.2,4.4,4.3c9.3,0.4,18.6,1,27.9,1.7
			c6,0.5,7.7,3,7.4,10c-0.2,4.9-2.7,7.2-8.1,7.2c-8.8,0-17.7,0-26.5-0.4c-4.5-0.2-4.1,2.3-4.3,5.3c-0.2,3.4,1.1,4.2,4.3,4.1
			c15.3-0.4,30.6,0.2,45.9,1.3c5.8,0.4,8.6,2.9,8.7,8.1c0.1,4.8-3.3,8.1-8.5,8.6C1416.1,364.2,1398.4,363,1381.4,363.5z
			 M1320.5,267.9c-0.1,6.2,0.3,12.3,0.9,18.4c0.3,2.5,1.1,3.7,3.5,3.9c11.4,0.7,22.9,1.4,34.4,2c1.3,0.1,2.5,0.2,3-1.7
			c1.4-5.8-1.4-10.2-7.2-11c-4.1-0.6-8.2-1.4-12.3-1.9c-5.3-0.6-7.5-2.7-7.3-7.5c0.2-5.4,3.2-8.7,8.1-8.7c4.2,0,8.3,0.3,12.5,0.1
			c1.9-0.1,5.8,1.4,4.8-2.5c-0.7-2.9,2.3-8.1-4.6-8.4c-10.9-0.4-21.6,1.6-32.4,1.1c-2.6-0.1-3.4,1.4-3.4,3.8
			C1320.5,259.6,1320.5,263.7,1320.5,267.9z M1418.5,275.9c0.3-5.1-1.3-12-1.3-18.9c0-3.2-1.9-4-4.4-4.3c-8.8-0.8-17.5-1.8-26.3-2.3
			c-7.5-0.4-7-0.2-6.5,7.3c0.4,5,2.5,6,6.8,5.9c3,0,5.9,0.5,8.9,1c4.5,0.7,5.7,3.7,5.8,7.9c0,4.3-1,7.7-5.9,8.2
			c-3.6,0.4-7.3,0.6-10.9,0.5c-2.8-0.1-3.7,1.4-3.2,3.7c0.6,2.5-2,6.9,2.8,7.2c7.4,0.5,15,0.9,22.4-0.4c3.9-0.6,9.5,0.7,11.3-1.9
			C1420,287.1,1418.5,281.9,1418.5,275.9z"/>
		<path class="st2" d="M1038.3,208.5c-9.3,0-18.7,0.1-28,0c-5.8-0.1-9-3.1-8.8-7.9c0.2-4.8,3.7-7.8,9-7.9c10.2-0.1,20.3,0,30.5-0.2
			c8.8-0.2,17.6-0.8,26.4-1c2.5-0.1,3.2-1.1,3-3.4c-0.1-1.5-0.2-3,0-4.5c0.3-3-1-4-4-4.2c-12.1-0.5-24.2-1.3-36.4-1.9
			c-5.3-0.3-8.2-2.8-8.5-7.8c-0.3-5.2,2.3-8.5,8-8.7c9.8-0.3,19.6,0,29.5,0c1.8,0,3.7,0.1,5.5,0.3c4.4,0.6,6.1-0.6,5.4-5.7
			c-0.9-7.4,4.6-12.1,11.8-10.9c4.1,0.7,6.6,3,6.7,7.4c0,1.5,0.1,3,0,4.5c-0.1,3.4,1.2,5,5,5.1c11.8,0.1,23.6,0.5,35.4,1
			c4.3,0.2,8.6,1,12.8,1.7c4.3,0.7,6.2,3.4,6.4,7.6c0.3,5.8,1,11.6,1.2,17.4c0.1,2.8,1.4,3.3,3.7,3.4c6,0.2,12,0.5,17.9,0.8
			c5.5,0.3,8.2,2.9,8.2,8c0,4.9-2.9,7.5-8.5,7.6c-5.8,0.1-11.7,0.1-17.5-0.1c-2.8-0.1-3.9,0.8-3.9,3.7c0,3.1-0.3,6.3-0.6,9.4
			c-0.4,6.1-2.7,8.2-9,9c-14.2,1.8-28.5,2.3-42.8,2.1c-0.5,0-1,0-1.5,0c-1.8,0.1-3.9-0.5-3.8,2.5c0.1,2.6,1.8,2.8,3.8,2.8
			c8.8-0.1,17.7-0.1,26.5-0.1c2.5,0,5,0,7.2,1.6c2.8,2.1,4.1,4.8,3.1,8.3c-0.9,3.5-3.1,5.1-6.9,5.1c-9.5,0.2-19,0.6-28.4,1
			c-1.6,0.1-3.5-0.4-3.7,2.2c-0.1,2.8,1.8,2.8,3.7,2.7c14.1-0.8,28.3-0.9,42.4-0.8c2.4,0,4.7,0.2,6.9,1.1c3.6,1.5,5.6,4.3,5,8.2
			c-0.6,3.8-3.3,5.4-7.2,5.5c-21.5,0.6-42.9,1-64.4,2c-10.8,0.5-21.6,0.9-32.4,0.8c-3,0-6-0.3-8.9-0.7c-4.4-0.6-7-3.1-6.6-7.8
			c0.4-4.5,3-6.8,7.6-7c10-0.4,20-0.8,29.9-1.3c1.6-0.1,4.2,1,4.2-1.9c0.1-3.3-2.7-2.3-4.4-2.3c-6-0.1-12,0-18-0.2
			c-6.2-0.2-9.2-2.8-9.3-7.5c-0.1-5,3-7.8,9.2-8.1c5.6-0.3,11.3-0.6,16.9-0.8c2.1-0.1,4,0.1,3.9-3c-0.1-2.9-2-3.1-4.1-3.1
			c-6.8,0-13.7,0-20.4-1c-4.6-0.7-7.6-3.6-7.6-7.7c0-4.5,3.4-8,8.3-8.1c6.5-0.2,13-0.4,19.5-0.2c3.1,0.1,3.5-1.6,3.8-3.9
			c0.4-3.3-1.8-3-3.8-3C1057.6,208.6,1047.9,208.6,1038.3,208.5C1038.3,208.6,1038.3,208.6,1038.3,208.5z M1105,179.7
			c-3.5,0-7,0.1-10.5,0c-3.1-0.2-5.1,0.7-4.2,4.1c0.7,2.9-2.3,7.8,4.4,7.7c10.3-0.1,20.6-0.5,30.9,0.6c2.2,0.2,3.1-0.7,3-2.8
			c-0.1-1.8-0.2-3.7-0.1-5.5c0.1-2.3-0.8-3.2-3.2-3.4C1118.6,180,1111.8,179,1105,179.7z M1109.8,208.7
			C1109.8,208.7,1109.8,208.8,1109.8,208.7c-5.3,0.1-10.7,0.2-16,0c-2.8-0.1-3.3,1.3-3.3,3.7c0.1,2.2,0.1,3.9,3.1,3.8
			c10.8-0.3,21.6,0.5,32.4-0.8c2.8-0.3,3.1-1.6,3.2-3.8c0.1-2.7-1.5-2.9-3.5-2.9C1120.5,208.7,1115.2,208.7,1109.8,208.7z"/>
		<path class="st2" d="M1319.6,186.7c-6-0.4-11.1-0.7-16.3-1.2c-5.2-0.4-8.9-4.5-8.5-9.2s4.2-7.7,9.5-7.5c15.3,0.8,30.6,0.6,46,0.5
			c5.9,0,7.7-2.1,6.9-8.1c-0.2-2-0.4-3.9-0.1-5.9c1.4-10,11.4-14.6,20-8.9c3.7,2.5,4.8,6.2,4.2,10.5c-0.4,2.8-0.5,5.7-1.3,8.4
			c-1,3.5,0.7,4,3.5,4c16.8,0.3,33.6,0.7,50.4,1c7.2,0.1,9.6,1.9,9.6,7.2c0,5.5-3,8.4-9.4,8.6c-6,0.2-12,0.2-18,0.2
			c-2.1,0-2.9,0.2-3.2,2.8c-1,6.7-4.5,12.8-7.4,20.4c8.7,0,16.6,0.2,24.6-0.1c6-0.2,11.9,0.9,17.9,1.2c4.5,0.2,7.1,3.3,7,7.5
			c-0.1,4.5-2.8,7.2-7.7,7.2c-23.8,0.1-47.6,0.7-71.4,2.2c-24,1.5-48,1.1-71.9,0.7c-1.7,0-3.3-0.2-4.9-0.5c-5.2-1.1-7.7-4.1-7.3-8.4
			c0.4-4,4.1-7.4,8.6-7.6c6.2-0.2,12.3-0.3,18.5-0.4c3.2-0.1,5.1-0.8,3.1-4.6c-1.4-2.6-2.1-5.6-3.5-8.3
			C1316.4,194.5,1316,190.9,1319.6,186.7z M1337.1,186.7c1.8,8.1,6.9,14.6,9,22.3c0.6,2.3,2.6,1.6,4.2,1.7
			c10.3,0.3,20.6-0.6,30.9-1.2c2.2-0.1,3.2-0.9,4-2.9c2.5-6,5.1-11.9,8-17.7c1.4-2.9,0.2-3.6-2.3-3.6c-4.2-0.1-8.3-0.1-12.5,0
			C1364.7,185.6,1351,185.4,1337.1,186.7z"/>
		<path class="st2" d="M1084.7,341.4c-12.4,0.4-24.9,0.2-37.3-1.7c-8.9-1.3-10-1.6-11.8-12.9c-1.7-11.2-0.7-22.5,0.9-33.7
			c1.2-8.4,6.6-12.2,14.8-10c3.3,0.9,6,0.9,8.9-0.9c1.6-1,3.8-1.6,5.7-1.6c20.1,0.1,40.3-1.3,60.3,1.7c13.2,2,14.2,2.8,16,15.9
			c1.6,11.9,1.6,23.9,0.2,35.8c-0.4,3.7-2.6,5.3-5.9,5.6c-8.3,0.6-16.6,1.3-24.8,1.6C1102.6,341.6,1093.6,341.4,1084.7,341.4z
			 M1110.9,326.6c0-0.1,0-0.2,0-0.3c3,0,6,0,9,0c1.9,0,3.3-0.5,3.3-2.7c0.2-7.3,0.3-14.6-0.5-21.9c-0.3-2.6-1.6-3.2-3.8-3.6
			c-5.7-1-11.5-1.3-17.3-1.9c-3.6-0.4-4.4,0.8-4.1,4c0.3,2.9,1.4,4.7,4.4,4.9c2.5,0.2,5,0.3,7.4,0.8c4.6,0.8,6.4,3.2,5.9,8.2
			c-0.4,4.1-2.8,6.2-6.9,6.4c-1.8,0.1-3.7,0.1-5.5,0c-2-0.1-3.5,0.1-3.6,2.8c0,2.7,1,3.5,3.6,3.4
			C1105.6,326.4,1108.2,326.6,1110.9,326.6z M1067.3,304.2v0.1c3,0,6-0.2,8.9,0c2.6,0.2,4.2-0.2,3.9-3.4c-0.2-2.5,0.7-5.6-3.6-5.4
			c-5.8,0.2-11.6,0.1-17.4,0.1c-3,0-4.5,1.1-4.4,4.4c0,3.5,1.7,4.2,4.6,4C1062,304.1,1064.6,304.2,1067.3,304.2z M1068.3,326.4
			c0,0.1,0,0.1,0,0.2c3.3,0,6.6,0,9.9,0c2,0,3.2-0.5,3-2.8c-0.2-2,0.1-4.1-2.8-4.3c-6.4-0.6-12.8-1.2-19.2-2
			c-3.5-0.4-4.6,0.7-4.6,4.3c0,3.5,1.4,4.8,4.7,4.6C1062.3,326.3,1065.3,326.4,1068.3,326.4z"/>
		<path class="st1" d="M847.1,191c1.4,15.4,3,32.4,4.6,49.5c1,10.9,2.1,21.8,3.4,32.7c1.8,15.2,3.8,30.3,5.6,45.5c0.4,3,0.5,6,0.5,9
			c-0.1,5.2-3.3,9.2-8.3,10.5c-14.2,3.7-28.5,6.5-43.2,6.8c-5.5,0.1-9.3-4.1-10.1-11.5c-0.5-5,2.2-8.5,7.4-9.3
			c8-1.3,16.1-2.7,24.1-3.8c4.1-0.6,6-2.1,5.2-6.8c-3.5-22.2-6.2-44.5-8.3-66.8c-1.8-19.5-4-39-4.9-58.6c-0.2-5-0.4-9.9,0.3-14.9
			c0.6-4.3,2.2-8,5.7-10.7c7.2-5.6,16-2.2,16.9,6.9C846.7,176,847.8,182.6,847.1,191z"/>
		<path class="st1" d="M1277.5,214.4c6.4,0.1,6.9,4.9,8.5,8.8c1.5,3.7-0.2,6.2-3.3,7.9c-5.4,3-10.8,5.9-16.4,8.5
			c-2.7,1.2-3.3,2.7-2.9,5.4c2.5,15.2,4.9,30.5,7.3,45.8c0.9,5.6,1.8,11.2,2.5,16.8c0.8,6.5-2.2,10.4-8.4,11.2
			c-6,0.8-9.3-1.8-10.6-8.2c-3.8-19.1-6.4-38.3-8.6-57.7c-0.4-3.4-1.2-4-4.3-2.7c-5.3,2.3-10.8,4.4-16.3,6.3
			c-4.6,1.6-8.4-0.4-10.5-4.9c-2.3-5.1-1.6-8.5,3-11c18.2-10.1,37.2-18.5,56.9-25.4C1275.7,214.7,1276.9,214.6,1277.5,214.4z"/>
		<path class="st2" d="M1082.7,363.4c-19.1,0-34.2,0-49.3,0c-2.6,0-5.3-0.1-7.9-0.6c-4.7-0.9-6.6-4-6.1-9.3c0.5-4.6,3.4-5.9,7.6-5.9
			c25.6,0,51.3,0.3,76.9-0.1c17.4-0.3,34.8-1.6,52.3-2.4c2.8-0.1,5.7-0.2,8.5,0.1c5.7,0.6,7.8,3.2,7.6,8.9c-0.2,4.8-2.7,7.1-8.2,7.4
			C1135.7,362.9,1107.3,363.8,1082.7,363.4z"/>
		<path class="st1" d="M782.3,224.7c-0.8,2.8-1.7,6.7-3.1,10.4c-8.3,21.6-15.7,43.5-25.6,64.5c-3.8,8-10.9,10.1-18,5.1
			c-4.3-3-5.3-6.8-3.6-11.8c6.1-17.6,12.6-35.1,19.6-52.4c2.5-6.2,5.3-12.2,8.1-18.3c1.7-3.7,4.4-6.6,8.2-8.4
			C775.2,210.5,782.8,215.5,782.3,224.7z"/>
		<path class="st1" d="M926,298.3c-4.9,0.2-7.7-2.5-9.5-6.7c-7.3-17.1-14.5-34.3-21.9-51.4c-2.2-5.2-4.7-10.3-7.3-15.3
			c-2.3-4.4-1.2-7.9,2.3-11.1c8-7.3,17.5-5.5,21.8,4.3c8.8,20.1,17.6,40.2,26.3,60.4C941.8,287.8,935.5,298.3,926,298.3z"/>
		<path class="st2" d="M853.6,438.6c0.1-9.5,0-18.5,1.6-27.4c0.5-2.7,1.8-5,4.4-4c5.5,2.1,10.8,0,16.2,0.5
			c8.2,0.7,15.8,2.6,21.7,8.7c8,8.2,6.7,20.8-3,26.9c-2.1,1.3-2.4,2.3-1.2,4.3c1.7,2.9,3.1,5.9,4.8,8.8c1.6,2.8,1.2,5.3-1.6,6.8
			c-2.6,1.4-5.2,0.9-6.9-1.9c-0.9-1.4-2.2-2.7-2.5-4.3c-2.8-12.4-13.7-9.3-21.7-11.4c-2.1-0.6-1.8,1.4-1.8,2.7
			c0.1,3,0.3,5.9,0.4,8.9c0.1,3.2-0.3,6.2-4.3,6.7s-4.7-1.9-5.3-5.4C853.2,451.6,854.2,444.8,853.6,438.6z M863.4,429.3
			c-1,4.1-0.4,7.9,6.6,8.1c5.8,0.2,11.5,1.9,17.1-0.6c3.2-1.4,5.9-3.5,6.2-7.1c0.3-3.9-1.7-7-5-9.1c-4.1-2.6-8.7-3-13.4-3.2
			C863.4,416.6,863.4,416.5,863.4,429.3z"/>
		<path class="st1" d="M1349.4,434.3c-0.1,14.6-8.4,25.1-21.9,28.2c-4,0.9-7.6,0.4-11.1-1.4c-2.5-1.3-4.5-1.9-7.2,0.1
			c-3.3,2.3-5.9,0.6-6.5-3.5c-2.5-15.7-1.5-31.5,0.1-47.2c0.4-4,2.9-5.5,6.6-3.8c2.2,1,3.9,1.1,6.1,0.2c12.4-5.5,28.9,4.9,31.7,15.8
			C1348.3,426.6,1349.7,430.6,1349.4,434.3z M1339.4,435c-0.1-15.7-11.3-23.3-24.6-18c-2.5,1-3.4,2.2-3.4,4.7
			c-0.1,7-1.1,13.9-0.1,20.9c0.6,4.6-0.8,10,6.8,9.1c0.3,0,0.6,0.2,0.9,0.3c6.4,2.4,12.8,0.5,16.4-5.2
			C1338,442.9,1339.2,438.6,1339.4,435z"/>
		<path class="st1" d="M780.5,453.8c0,1.7-0.1,3.3,0,5c0.2,3.5-1.2,5.5-4.8,5.4c-3.4-0.1-4.1-2.3-4.3-5.4c-0.6-10.6-1.9-21.2-6-31.2
			c-1.7-4.2-2.9-9.7-8.5-10.2c-5.7-0.5-7.3,5-9.6,8.9c-1.8,3.2-3.1,6.6-4.6,9.9c-0.9,2-0.4,3.2,1.9,3.4c3,0.3,5.9,0.7,8.9,1.1
			c3.3,0.4,6.7,1.2,6.4,5.4c-0.3,4.4-3.7,4.4-7.1,4c-3.1-0.4-6.4-0.3-9.4-1c-4.5-1.2-5.9,1-6.4,4.8c-0.3,2-0.8,3.9-1.2,5.9
			c-0.6,2.9-2.1,4.4-5.2,4c-3.2-0.5-4.7-2.1-4.1-5.5c2.7-16.6,7.4-32.5,18.7-45.5c7.1-8.1,15.8-7.9,22.5,0.3
			C775.6,422.9,780.4,438.2,780.5,453.8z"/>
		<path class="st2" d="M1095.4,426.9c9.5-5.4,18.2-10.2,26.9-15.1c2.4-1.4,4.6-1.9,6.4,0.9c2.1,3.2,2,5.7-1.8,7.7
			c-6.1,3.3-12.2,6.8-18.2,10.4c-1.2,0.7-2.8,1-3.6,3.2c4.3-1.6,6.4,0.9,8.8,3.5c5.1,5.3,8.9,11.6,13.5,17.3
			c2.2,2.7,1.9,5.3-0.7,7.4c-2.9,2.4-5.3,1-7.2-1.5c-4.8-6.1-9.6-12.3-14.4-18.5c-1.8-2.4-2.8-4.9-0.3-7.9c-7.8,1.1-9.5,2.9-9.7,9.1
			c-0.2,5.3-0.7,10.6-0.9,15.9c-0.1,3-1.4,4.8-4.5,4.8c-3.2,0-5.1-1.7-5.1-4.9c0-6.8-0.1-13.7,0.2-20.5c0.4-8.8,1.2-17.6,1.8-26.4
			c0.2-3.2,0.8-6.1,5.1-5.8c4.2,0.2,4.8,2.8,4.5,6.2C1095.9,417.1,1095.7,421.4,1095.4,426.9z"/>
		<path class="st2" d="M1437.2,463.5c-9.9,0-15.9-2.9-21-7.8c-2.5-2.4-2.1-4.8,0-7c2.2-2.3,4.5-2.5,6.8,0.1c3.6,3.9,8.3,5.5,13.5,5
			c3.1-0.3,6-1.3,6.8-4.8c0.8-3.2-1.1-5.3-3.6-7c-3.8-2.5-8.1-3.8-12.2-5.7c-3.2-1.4-6.5-2.7-8.9-5.4c-7.5-8.5-3.3-20.9,8.7-24.5
			c9.6-3,18.3,0.8,26.6,5.1c1.8,0.9,1.6,2.9,0.7,4.4c-1.1,1.9-2.2,3.7-5.1,2.8c-4-1.3-8-2.4-12-3.2c-2.2-0.4-4.7-0.3-6.9,0
			c-2.7,0.4-5.1,1.7-5.7,4.8c-0.6,3.3,1.7,4.9,4.2,6c4.2,2,8.5,3.8,12.7,5.8c9.3,4.4,13.4,10.9,11.7,18
			C1451.6,458.7,1444.7,463.6,1437.2,463.5z"/>
		<path class="st2" d="M1219.9,406.8c3.5,0,7,0,10.5,0c3,0,4.7,1.2,4.8,4.4c0.1,3.1-1.7,5.2-4.4,4.8c-6.5-0.9-6.7,2.8-6.7,7.6
			c0,8.1-0.4,16.3-0.9,24.4c-0.2,3.8,0.9,5.8,4.9,5.4c3.4-0.3,5.8,0.9,5.8,4.5s-2.3,5.3-5.9,5.1c-6.5-0.3-13-0.5-19.5-0.7
			c-3-0.1-4.8-1.4-4.8-4.5c0-2.9,1.7-5.2,4.5-4.9c5.5,0.7,5.3-2.5,5.4-6.3c0.2-8.8,0.6-17.6,1.1-26.4c0.1-2.8-0.4-4.4-3.7-4.4
			c-3.7,0.1-6.3-1.6-5.9-5.7c0.3-3.9,3.3-3.9,6.3-3.8c2.8,0.1,5.7,0,8.5,0C1219.9,406.6,1219.9,406.7,1219.9,406.8z"/>
		<path class="st1" d="M1006.3,406.6c2.5,0,5,0,7.5,0c2.8,0,5.4,0.1,5.6,4c0.2,4-2.1,5.3-5.6,5.4c-4.5,0.2-9,0.4-13.5,0.4
			c-2.1,0-2.6,0.4-2.3,2.9c1.4,12.6,2.3,25.2,3.4,37.7c0.3,3.5-0.2,6.6-4.5,6.7c-4.2,0.1-5-3-5.2-6.5c-0.6-12.5-3.2-24.8-3.1-37.3
			c0-2.5-1.2-2.7-3.1-2.7c-3.3,0-6.7-0.1-10-0.1c-3.2,0-5-1.4-5.1-4.7c0-3.4,1.8-4.9,5-4.8C985.7,408.1,996,406.7,1006.3,406.6z"/>
	</g>
	<path class="st3" d="M602.3,334.5c-0.2,0.1-0.4,0.3-0.6,0.4c0.1-0.2,0.3-0.4,0.4-0.5C602.1,334.4,602.3,334.5,602.3,334.5z"/>
	<g>
		<path class="st0" d="M313.1,557.8c-62.2,0-118.3-21.5-166.6-64c-8.2-7.2-15.8-14.9-22.9-23.2c-4.5,0.6-8.9,0.9-13.5,0.9
			c-27.7,0-54.3-11.1-74.8-31.3c-18.9-18.6-31-43.1-33.8-69.1c-2.8-25.4,3.2-50.9,16.7-72.3C10,287.3,2.9,272.4,0.8,253.7
			c-4-35.2,6.9-68.6,31.6-96.5c14.5-16.2,31.2-26.4,45-33.5c-5.3-17-3.7-35.6,5.4-52.2c0-0.1,0.3-0.5,0.3-0.6
			c12.4-21.8,35.8-35.4,61.1-35.4c7.8,0,15.4,1.3,22.7,3.8c0.1,0,0.6,0.2,0.7,0.2c13.6,4.9,25.3,13.6,34.2,25.4
			c13-7,26-14.5,39.2-22.6c40.4-24.9,85.7-38.9,134.6-41.8c6.1-0.4,12.1-0.5,17.8-0.5c30,0,56.8,4.7,81.7,14.4c0,0,0.1,0,0.1,0
			c44.1,17.2,74.6,50.7,86,94.4c9.3,35.6,3.9,70.6-15.5,102.6c13.7,27.6,21.6,57.1,23.6,88c2,31.4-2,61.9-12.1,90.7
			c-9.9,28.5-25.8,55.4-47.1,80.1c-39.6,45.8-90.7,74-151.9,84C343.1,556.6,327.8,557.8,313.1,557.8L313.1,557.8
			C313.1,557.8,313.1,557.8,313.1,557.8z M218.3,376.1c2.6,4,5.2,7.3,7.9,10.1c24.8,26.1,53.7,38.8,88.5,38.8c4.4,0,9-0.2,13.6-0.6
			c32.5-2.8,59.1-16.3,81.4-41.1c2-2.2,3.9-4.5,5.7-6.8c-1.9,0.1-3.9,0.2-5.8,0.2c-14.8,0-29.2-3-42.6-8.9
			c-8.2,2.2-16.6,3.4-24.9,3.4c-32,0-61.9-17.1-79.8-45.7c0-0.1-0.1-0.1-0.1-0.2c-3.2-5.2-6.1-10.4-8.7-15.8
			c-17.2,6.7-34.2,14.4-50.9,22.8C212.5,344.1,218.3,359.5,218.3,376.1z"/>
		<path class="st0" d="M313.1,517.8c-52.2,0-99.4-18.2-140.3-54c-13.1-11.5-24.4-24.7-33.5-39.3c-9.4,4.6-19.2,7-29.2,7c0,0,0,0,0,0
			c-17.1,0-33.8-7-46.8-19.8c-12.4-12.1-20.2-28.1-22.1-44.9c-2.2-20.5,4.4-41,18.2-56.4c4.3-4.8,9.1-8.9,14.3-12.3
			c-0.9-0.7-1.9-1.4-2.8-2.2c-13.4-10.7-27.9-24.1-30.4-46.7c-2.8-24,4.6-46.1,21.8-65.5c13.4-15,30.9-23.5,43.7-29.6
			c12.8-6.1,23.9-11.3,34.1-15.9c-2.2-2.8-4.9-5.4-8.3-7.6c-1.9-1.2-4-2.6-6.2-4.3l-0.2-0.2c-11.4-9.4-14.4-23.3-7.7-35.4l0.1-0.2
			c5.3-9.3,15.3-15.1,26.2-15.1c3.3,0,6.6,0.5,9.7,1.6l0.2,0.1c7.1,2.6,13,7.4,17.5,14.4l0.1,0.1c5.2,8.2,9.8,17,13.7,26.3
			c25.9-12.2,51-25.8,76.5-41.5c34.7-21.4,73.8-33.5,116-36c5.3-0.3,10.5-0.5,15.4-0.5c25,0,47,3.8,67.3,11.7
			c32.3,12.6,53.7,35.9,61.9,67.2c8.3,31.6,0.1,61.8-24.3,89.8c18.6,28.5,29.1,59.9,31.2,93.2c3.4,52.4-13.3,100.2-49.5,142
			c-33.3,38.5-76.3,62.3-128,70.7C338.8,516.7,325.7,517.8,313.1,517.8z M177,385c6.6,12.1,13,21.3,20.1,28.7
			c32.2,34,71.8,51.2,117.5,51.2c0,0,0,0,0,0c5.5,0,11.3-0.3,17-0.7c42.5-3.7,78.7-21.9,107.7-54.2c25.4-28.3,38.2-61.4,37.9-98.6
			c0-2.3-0.1-4.5-0.2-6.7c-9.2,5.1-18.1,6.6-25.3,6.7c-7.2,14.4-19.2,23.2-34.1,24.8c-2.7,0.3-5.5,0.5-8.2,0.5
			c-14.3,0-27.8-4.5-39.5-13c-9,4.9-18.5,7.5-27.9,7.5c-18.5,0-35.2-9.8-45.9-26.9c-8.9-14.3-14.7-29.7-17.4-46
			c-6.5,2-12.9,4.1-19.2,6.3c-33.7,11.9-67.1,27-99.2,44.9c-1.4,0.8-2.2,1.4-2.6,1.7c0,0.4,0,1,0.1,1.9c0.8,8.2-1.5,15.8-6.6,21.4
			c-4.9,5.4-11.9,8.4-19.6,8.4c-3.9,0-7.8-0.8-11.6-2.3c-2.9-1.1-5.3-1.7-7-1.7c-0.2,0-0.3,0-0.5,0c-8.2,0.8-14.6,4.9-17.6,11.4
			c-3,6.5-2.1,14.2,2.7,21c2.6,3.8,7.9,7.6,12.9,7.6c2.1,0,4.1-0.6,6.1-1.9c6.4-4.1,9.3-6.2,10.1-9.2c3.1-10.9,13.8-18.9,25.3-18.9
			c1.7,0,3.5,0.2,5.1,0.5c12.7,2.6,21.3,14,20.8,27.8l0,0.3C178.1,379.5,177.8,382.2,177,385z M453.5,307.7L453.5,307.7z
			 M401.3,281.4c1.8,1,3.9,1.9,6.3,2.6c0.5-1.2,0.9-3.1,1.3-4.9c0.3-1.4,0.6-2.7,1-4.2c3.2-12.3,13.4-20.6,25.2-20.6
			c5.4,0,10.6,1.7,15.1,5.1c0.8-0.1,2.2-0.7,3.3-1.9c2.5-2.6,4.6-5.8,6.5-9.9c-0.1-0.2-0.3-0.5-0.5-0.7c-2.4-3.9-4.8-7.9-7-12.1
			c-1.5-2.8-2.6-4.3-3.3-5.1l-2.2,0.8H444c-8.2,0-15.7,0.6-23,1.1c-3.3,0.2-6.8,0.5-10.2,0.7c-24.4,1.5-50.8,5.5-80.7,12.4
			c1.6,14.9,5.7,25.7,13.1,33.9c3.7-1.7,5.8-3.7,7.2-6.7c4.4-9.9,14.5-16.6,25.1-16.6c2.6,0,5.1,0.4,7.5,1.2
			C394.2,260.1,401.2,269.5,401.3,281.4z M400,280.6L400,280.6z"/>
		<path class="st0" d="M550.6,549.9c-7,0-14.1-1.1-21.1-3.3c-34.3-10.7-52.6-43.7-43.6-78.6c1.7-6.4,3.3-12.8,5-19.1
			c0,0,3.6-14.1,5.3-20.6c-11.2-11.7-19.4-26-23.8-41.8c0,0,0-0.1,0-0.1c-7.3-26.5-3.7-54.7,9.7-77.3c12.7-21.4,33.1-36.5,57.6-42.7
			c1.9-7.2,3.9-14.4,5.8-21.7c7.4-28.3,31.4-47.4,59.7-47.4c7.6,0,15.2,1.4,22.6,4.2c17,3.2,31.4,12.7,40.5,26.8
			c9.5,14.6,12.1,32.6,7.4,50.5c0,0-0.1,0.4-0.1,0.5c-1.7,6.4-3.5,12.9-5.2,19.2c0.1,0.1,0.1,0.1,0.2,0.2
			c22.3,22.3,30.5,52.7,22.6,83.5c-7.6,29.9-24.2,53.5-47.8,68.4c-6.8,4.3-13.9,7.7-21.1,10.3c-2.3,8.2-4.6,16.4-6.9,24.4
			c-1.6,5.6-3.2,11.1-4.7,16.7c0,0-0.1,0.3-0.1,0.4C604.1,531.1,579.8,549.9,550.6,549.9z"/>
		<path class="st0" d="M550.6,509.9c-3,0-6-0.5-9.2-1.5c-13.9-4.3-20.5-16.2-16.8-30.4c1.8-6.8,3.5-13.5,5.3-20.2
			c3.8-14.7,7.7-29.8,11.7-44.8c-19.3-10.3-27.3-25.5-30.6-37.2c-4.4-16.1-2.4-33,5.5-46.3c7.4-12.4,19.5-21.2,34.2-24.7
			c3.9-0.9,7.6-1.3,11.2-1.3c3.1,0,6.1,0.3,9,1c2-7.5,4-14.9,5.9-22.2c2.4-9.1,4.9-18.3,7.3-27.4c3.4-12.9,13.1-17.6,21-17.6
			c3,0,6.2,0.6,9.4,1.9l0.1,0c1.4,0.6,3.2,1.1,5,1.4c8.4,1.4,12.8,5.9,15.1,9.4c3.4,5.2,4.2,11.4,2.3,18.5l0,0.1
			c-4.3,15.7-8.5,31.6-12.7,47.3c6.6,1.8,12.7,5.5,18.1,10.8c12.2,12.2,16.5,28.3,12.1,45.3c-5.1,20.1-15.4,35.1-30.4,44.6
			c-10.2,6.4-20.8,9.7-31.6,9.7c-4.4,16.1-9,32.2-13.5,47.9c-1.6,5.6-3.2,11.2-4.8,16.8l0,0.1C570.6,502.8,561.8,509.9,550.6,509.9z
			 M559.4,359.2c-0.1,2.3,0.8,4,3,6.1c2.7,2.4,5.9,4.1,9.6,5.3C567.3,367.7,562.9,363.9,559.4,359.2z"/>
		<path class="st0" d="M615.7,306.2c-22.5,0-42.9-11.8-54.6-31.5c0-0.1-0.1-0.1-0.1-0.2c-5.4-9.3-9.6-17.2-13.1-25
			c-10.6-23.5-7.7-50.3,8.2-73.4c3.6-5.2,7.1-10,10.4-14.6c3.4-4.7,6.7-9.2,9.6-13.5c0.1-0.1,0.6-0.9,0.7-0.9
			c1.9-2.6,3.9-6.1,6.3-10.1c0.9-1.6,1.9-3.1,2.8-4.7l22.7-37.4c7.3-12.1,20.4-19.3,34.2-19.3c2.3,0,4.6,0.2,7,0.6
			c16.3,2.9,29.1,15.4,32.3,31.6l8.5,42.9c1.3,6.5,2.3,12.5,3.3,18.4c0.8,4.7,1.5,9.1,2.3,13.3c0,0.1,0,0.1,0,0.2
			c0.3,1.7,0.7,3.4,1,5.1l0,0.2c1.6,7.8,3.6,17.5,4,28.8c1,26.9-10.9,51.5-32.7,67.4c-5.9,4.3-12.9,9.3-21.2,13.8
			C637.3,303.4,626.6,306.2,615.7,306.2z"/>
		<path class="st0" d="M615.7,266.2c-8.3,0-15.7-4.4-20.2-11.9c-4.7-8-8.2-14.7-11.1-21.1c-3.4-7.5-5.4-19.6,4.7-34.4
			c3.2-4.7,6.6-9.3,9.8-13.7c3.6-5,7.1-9.7,10.3-14.6l0.2-0.3c2.7-3.9,5.3-8.1,8-12.7c0.9-1.5,1.8-3,2.7-4.5l22.7-37.4l8.5,42.9
			c1.2,5.8,2.1,11.6,3,17.1c0.8,5,1.6,9.6,2.5,14.4c0.4,2,0.8,4,1.2,5.9c1.4,7,2.9,14.2,3.2,22.2c0.5,13.9-5.1,25.5-16.3,33.6
			c-5.1,3.7-10.7,7.7-16.8,11.1C624,265,619.8,266.2,615.7,266.2z"/>
		<path class="st0" d="M563.8,412.8c-10.4,0-20.6-4-28.3-11.7c-12.2-12.2-15.2-30.7-7.5-46.1l22.6-45.4c2.8-5.6,6.5-10.8,11-15.3
			l8.7-8.7c7.7-7.7,18-11.8,28.4-11.8c6.1,0,12.3,1.4,18,4.3l11.2,5.6l30.3,15.3c13.5,6.8,22,20.7,22,35.8s-8.6,29-22.1,35.7
			l-28.1,14c-0.9,0.5-1.9,1.1-2.9,1.5l-45.4,22.6C576,411.4,569.9,412.8,563.8,412.8z"/>
		<path class="st0" d="M586.4,327.4c0.9-1.8,2.1-3.4,3.6-4.9l8.7-8.7l11.2,5.6l30.3,15.3l-29.4,14.7c-0.5,0.3-1,0.6-1.6,0.9
			l-45.4,22.7L586.4,327.4z"/>
		<path class="st0" d="M263.1,453.5c-21.9,0-42.3-8.5-57.6-23.9c-15.2-15.3-23.4-35.6-23.3-57.3c0.1-43.3,36.5-80.6,79.6-81.6
			c0.7,0,1.3,0,2,0c21.5,0,41.7,8.6,57.1,24.3c15.1,15.4,23.4,35.7,23.4,57.1c0,44.5-36.1,81-80.6,81.3
			C263.7,453.5,263.1,453.5,263.1,453.5z"/>
		<path class="st0" d="M263.1,413.5c-11.1,0-21.5-4.3-29.2-12c-7.6-7.7-11.8-18-11.7-28.9c0-21.9,18.9-41.3,40.5-41.7
			c0.4,0,0.7,0,1.1,0c22,0,40.5,19,40.5,41.4c0,22.6-18.3,41.1-40.9,41.3L263.1,413.5z"/>
		<path class="st0" d="M425.3,432.4c-0.6,0-1.2,0-1.8,0c-21.1-0.5-40.9-9.1-55.7-24.1c-14.9-15.1-23.2-35-23.2-56.1
			c-0.1-21.2,8.6-42.1,23.7-57.4c15.3-15.5,36.5-24.3,57.9-24.3c0.5,0,1,0,1.6,0c21.4,0.4,41.5,9.2,56.5,24.7
			c15.2,15.8,23.3,36.5,22.8,58.4c-0.5,21.4-9.4,41.3-25.1,56.2C466.6,424.4,446.5,432.4,425.3,432.4z"/>
		<path class="st0" d="M425.3,392.4c-0.3,0-0.6,0-0.9,0c-21.9-0.5-39.8-18.6-39.8-40.3c-0.1-10.6,4.4-21.2,12.1-29.1
			c7.9-8,18.7-12.5,29.6-12.5c0.3,0,0.6,0,0.8,0c10.8,0.2,20.9,4.6,28.4,12.5c7.8,8.1,11.9,18.6,11.6,29.8
			C466.6,374.7,447.9,392.4,425.3,392.4z"/>
		<path class="st0" d="M342.8,471.5c-18.4,0-36.4-4.5-53.5-13.4c-5.7-3-9.9-6-12.4-7.9c-0.3-0.2-0.6-0.5-0.9-0.7l-0.3-0.2
			c-0.5-0.4-1-0.7-1.6-1.1l-0.1-0.1c-20.6-15.4-29.1-40.8-21.7-64.8c0-0.1,0-0.1,0.1-0.2c7.7-24.8,30.5-41.4,56.7-41.4
			c0.6,0,1.1,0,1.7,0c6.8,0,14.2-0.7,22.7-2c12-1.8,24.7-6.2,39-11.3c1.1-0.4,2.2-0.8,3-1.1c0.2-0.1,0.4-0.1,0.7-0.2l34.2-13
			c4.6-1.8,9.4-2.6,14.2-2.6c10.2,0,20.3,3.9,27.9,11.3c11.2,10.9,15,27.2,9.9,41.9l-12.1,34.5c-7.4,21.2-21.2,38.9-39.7,51
			c0,0-0.3,0.2-0.4,0.3C388.4,464.5,365.8,471.5,342.8,471.5z"/>
		<path class="st0" d="M342.8,431.5c-11.9,0-23.7-3-35.1-8.9c-3-1.5-5.4-3.3-7.3-4.7c-0.5-0.4-1.1-0.8-1.6-1.1l-0.4-0.3l-0.4-0.3
			c-10.7-7.8-8.5-18.1-7.6-21.1c2.5-8.1,9.8-13.3,18.5-13.3c0.4,0,0.7,0,1.1,0l0.1,0c8.9,0,18.5-0.8,29.2-2.4
			c15.6-2.3,30.4-7.4,46.9-13.3c0.6-0.2,1.3-0.5,2-0.7c0.5-0.2,1.2-0.4,2.1-0.7l34.2-13l-12.1,34.5c-4.6,13-12.6,23.3-23.8,30.7
			l-0.1,0.1C373.4,426.6,358,431.5,342.8,431.5z"/>
		<path class="st1" d="M119.3,303.5c-13.7-5.4-26.4-11.9-37.6-20.9c-11.6-9.3-22.4-19.3-24.2-35.3c-2.3-20.1,4.3-37.3,17.6-52.3
			c10.6-11.9,24.5-18.9,38.4-25.6c14.6-7,29.2-13.8,44-20.2c4.1-1.8,4.6-4,3.4-7.7c-3.5-10.7-10.3-18.9-19.6-25.1
			c-1.7-1.1-3.4-2.2-4.9-3.4c-5.1-4.2-6.3-9.2-3.6-14.1c3-5.3,9.8-7.8,15.6-5.8c3.9,1.4,6.8,4.2,9,7.6c6.8,10.7,12.2,22.2,16.4,34.2
			c2.2,6.1,2.1,6.1,8.1,3.4c30.7-13.9,60.2-29.7,89-47.4c33-20.3,69.3-31.2,108.1-33.5c25.9-1.5,51.3,0.7,75.6,10.1
			c26.1,10.2,44.4,28.2,51.6,55.7c7.5,28.7-2.1,53.1-20.9,74.6c-8.3,9.4-8.5,9.2-1.6,19.6c17.1,26,26.9,54.4,28.9,85.6
			c3.2,49.7-13.2,92.6-45.4,129.8c-31.2,36.1-71.1,57.4-117.9,65c-62,10-117.6-5-165.2-46.8c-15.2-13.3-27.5-28.9-36.8-46.8
			c-1.4-2.8-2.2-3.6-5.3-1.3c-38.3,29.2-79.8-1.7-83.8-38c-3.5-32,21.5-62.5,56.7-61.2C116.4,303.6,117.8,303.5,119.3,303.5z
			 M488.1,269.9c-1.7,2.5-2.7,4-3.7,5.4c-8.7,12.1-20,19.8-35.3,18.9c-6.2-0.3-9,1.7-11.4,7.2c-4.1,9.5-11,16.6-21.8,17.8
			C400,321,386,316.1,374.4,305c-2.1-2.1-3.2-2.7-6-0.6c-20.9,15.8-44.5,11.9-57.8-9.3c-10.3-16.6-15.8-34.8-16.4-54.3
			c-0.1-4.2-1.4-4.6-5-3.5c-11.8,3.5-23.6,7-35.2,11.1c-35.3,12.4-69.1,27.8-101.8,46.1c-8.9,5-12.1,10.3-11.1,20.1
			c0.9,8.9-6.2,13.3-14.6,10c-4.9-1.9-10-3.2-15.1-2.8c-30.3,2.7-44.9,34-27.5,59c7.8,11.2,25.3,20.9,42.1,10.3
			c7.6-4.8,14.7-9.6,17.4-18.9c1.3-4.6,6.6-7.3,10.6-6.4c4.5,0.9,7.5,5.1,7.3,10.5c-0.1,1.8-0.3,3.8-1.1,5.3c-1.7,3.2-1,6,0.6,9
			c6.7,12.6,14.3,24.5,24.1,34.8c40.4,42.6,90.4,60.7,148.3,55.7c47.2-4.1,87.1-24.4,118.9-59.8c28.1-31.2,42.6-67.9,42.3-110.1
			C494.3,297.5,492.5,284.1,488.1,269.9z M444,213.4c-12.7,0-23.5,1.2-34.2,1.8c-28.6,1.7-56.8,6.6-84.7,13.1
			c-12.5,2.9-12.5,3-12.1,15.5c0,0.8,0,1.7,0.1,2.5c1.7,16.4,6.4,31.7,17.8,44.1c5.2,5.6,12.4,6.7,19.2,3.6
			c7.1-3.2,12.5-8.1,15.7-15.3c2.1-4.7,7.5-7.5,11.9-6.1c4.7,1.5,6.9,5,6.6,10c-0.4,5.9,2.6,9.8,7.2,12.7c4.1,2.6,8.6,4.3,13.3,5.5
			c7.8,2,12.7-0.1,16.9-7c2.8-4.5,3.4-9.7,4.7-14.6c1.8-6.9,8.3-10.3,13.8-6.2c8.6,6.4,19.5,2.6,25.7-3.9c5.6-5.9,9.3-13,12.1-20.5
			c0.8-2.1,0.2-3.9-0.8-5.7c-3.2-5.4-6.7-10.8-9.6-16.3C462,216.3,455,209.3,444,213.4z"/>
		<path class="st1" d="M602.3,334.5c10.2-4.9,19.8-4.1,28,4.1c8.1,8.1,10.5,18.1,7.7,29c-3.6,14.1-10.3,26.4-23,34.4
			c-8.9,5.6-18.6,8.3-29,6.5c-4.9-0.8-6.6,0.9-7.9,5.5c-6.6,24.1-13.5,48.1-20.3,72.1c-1.8,6.2-5.3,7.9-11.3,6
			c-5.2-1.6-6.8-4.5-5.4-9.9c6.5-25,12.9-49.9,19.5-74.8c0.9-3.5,0.3-4.8-3.1-6c-14.7-5.4-25.8-14.8-30.1-30.3
			c-6-21.9,3.9-44.4,27.2-49.9c9-2.1,17.3-0.7,23.9,6.3c2.9,3,3.3,2.2,4.3-1.4c5.8-22.4,11.9-44.7,17.8-67.1c1.1-4.2,3.1-6,7.6-4.2
			c2.7,1.1,5.7,1.9,8.6,2.4c4.3,0.7,4.8,3,3.8,6.8c-5.9,21.7-11.7,43.4-17.5,65.1C602.6,330.9,601.9,332.6,602.3,334.5
			c-0.1,0.2-0.3,0.4-0.4,0.5C601.9,334.8,602.1,334.7,602.3,334.5z M592.4,391.6c4.4,0.1,8.3-1.1,12-3.2c9.9-5.9,14.2-15.5,17.1-26
			c1.4-5.3-0.4-9.9-4.1-12.4c-4.5-2.9-7.2,0.8-10,3c-13.8,10.4-30.4,6.2-37.5-9.5c-2.3-5.2-6.3-7.3-11.8-5.8
			c-7.7,2.1-12.7,6.9-14.7,14.8c-2.5,10,0.2,18.5,7.7,25.3C562.8,388.4,577.9,389.2,592.4,391.6z"/>
		<path class="st1" d="M634.6,161.8c2.1,10.6,3.5,21,5.5,31.4c1.6,8.5,3.8,16.9,4.1,25.5c0.3,8.1-2.7,14.5-9.3,19.3
			c-4.8,3.5-9.7,7-15,9.9c-4.2,2.3-7.6,1.3-9.8-2.4c-3.7-6.3-7.2-12.7-10.2-19.4c-2.9-6.4-0.5-12.4,3.2-17.8
			c6.6-9.6,13.7-18.8,20.2-28.4C627.4,174.1,630.9,167.9,634.6,161.8z"/>
		<path class="st2" d="M287.3,372.2c0,13.1-10.9,24.2-24,24.3c-13.5,0.1-24.2-10.4-24.1-23.9c0-12.7,11.5-24.6,23.9-24.8
			C276.1,347.4,287.3,358.8,287.3,372.2z"/>
		<path class="st1" d="M426.8,327.5c13.1,0.2,23.7,11.5,23.4,24.9c-0.3,12.7-12,23.3-25.4,23c-12.6-0.3-23.2-10.9-23.2-23.4
			C401.5,338.8,413.3,327.2,426.8,327.5z"/>
		<path class="st2" d="M396.5,380.5c-3.5,10-9.3,17-17.1,22.1c-20.3,13-41.6,16.4-63.8,4.9c-2.5-1.3-4.7-3.1-7-4.7
			c-0.9-0.7-2.2-1.4-1.8-2.7c0.5-1.6,2.1-1.3,3.4-1.3c10.7,0,21.2-1,31.8-2.6c17.4-2.6,33.9-8.3,50.3-14.2
			C393.3,381.6,394.4,381.3,396.5,380.5z"/>
	</g>
	<polygon class="st0" points="970.4,331 965.5,375.4 898.4,362 917.5,337.3 	"/>
	<path class="st0" d="M674.2,266.2c0,0-14.9,23.4-13,27.1c1.9,3.7,28.6,99.2,28.6,99.2l41.4-27.6l-30-40.4L674.2,266.2z"/>
</g>
</svg>
