<?xml version="1.0" encoding="utf-8"?>
<!-- Generator: Adobe Illustrator 22.1.0, SVG Export Plug-In . SVG Version: 6.00 Build 0)  -->
<svg version="1.1" id="Layer_1" xmlns="http://www.w3.org/2000/svg" xmlns:xlink="http://www.w3.org/1999/xlink" x="0px" y="0px"
	 viewBox="0 0 401.4 57.4" style="enable-background:new 0 0 401.4 57.4;" xml:space="preserve">
<style type="text/css">
	.st0{fill:#3AB7CE;}
	.st1{fill:#F5FAFD;}
	.st2{fill:#FDFDFD;}
	.st3{fill:#EEF4FA;}
	.st4{fill:#F4F9FC;}
	.st5{fill:#90D4E1;}
	.st6{fill:#8AD1DF;}
	.st7{fill:#91D4E1;}
	.st8{fill:#F5FAFB;}
	.st9{fill:#95D6E2;}
	.st10{fill:#EBF7F9;}
	.st11{fill:#45BAD1;}
	.st12{fill:#E1F4F7;}
	.st13{fill:#DDF2F6;}
	.st14{fill:#D7F0F5;}
	.st15{fill:#40B7CD;}
	.st16{opacity:0.79;fill:#91D4E1;}
</style>
<path class="st16" d="M401.4,5c-33.5-4.6-66.5-5.5-100.2-1.2c-16.6,2.1-33.1,5-49.9,5.4c-17.9,0.5-35.4-1.7-53.1-3.9
	c-33.6-4-65.1-4.7-98.7,0.1c-33.3,4.8-66.2,5-99.5-0.1c0,10.4,0.7,20.9,0.7,31.3c0,2.7-1.6,12.7,0,14.6c2.2,2.7,6.7,1.5,10.4,1.5
	c20.8,0,41.6,0,62.5,0c42.4,0,84.8,0,127.2,0s84.8,0,127.2,0c20.8,0,41.6,0,62.5,0c3.8,0,8.3,1.2,10.4-1.5c1.4-1.7,0-9.9,0-12.6
	C400.7,27.4,401.4,16.2,401.4,5z"/>
<path class="st0" d="M401.4,51.2l-0.1-32.3c0.1-3.2,0.1-6.4,0.1-9.6c-33.5-4.6-66.5-5.5-100.2-1.3c-16.6,2.1-33.1,5-49.9,5.4
	c-17.9,0.5-35.4-1.7-53.1-3.9c-33.6-4-65.1-4.7-98.7,0.1c-33.3,4.8-66.2,5-99.5-0.1c0,3.8,0,7.7,0,11.5C0,27.8,0,34.4,0,41
	c0,2.1-0.5,8.8,0,12.5v3.9h401.4l0-4.5C401.4,52.4,401.4,51.8,401.4,51.2z"/>
</svg>
