<?xml version="1.0" encoding="utf-8"?>
<!-- Generator: Adobe Illustrator 22.1.0, SVG Export Plug-In . SVG Version: 6.00 Build 0)  -->
<svg version="1.1" id="Layer_1" xmlns="http://www.w3.org/2000/svg" xmlns:xlink="http://www.w3.org/1999/xlink" x="0px" y="0px"
	 viewBox="0 0 937.6 937.6" style="enable-background:new 0 0 937.6 937.6;" xml:space="preserve">
<style type="text/css">
	.st0{fill:none;stroke:#000000;stroke-width:0.6025;stroke-miterlimit:10;}
	.st1{fill:#F3F7FB;}
	.st2{fill:#FFFFFF;}
	.st3{fill:#F5F8FC;}
	.st4{fill:#FDFDFD;}
	.st5{fill:#60B3CA;}
	.st6{fill:#CEE9EF;}
	.st7{fill:#EEF6FB;}
	.st8{fill:#F3F5F7;}
	.st9{fill:#E1F3FC;}
	.st10{fill:#D3EFFB;}
	.st11{fill:#7DCBD5;}
	.st12{fill:#FCF6E8;}
	.st13{fill:#2E3A53;}
	.st14{fill:#DB415B;}
	.st15{fill:#9A9FAB;}
	.st16{fill:#7D976E;}
	.st17{fill:#F9F9F9;}
	.st18{fill:none;}
	.st19{fill:none;stroke:#A5A5A5;stroke-miterlimit:10;}
	.st20{fill:none;stroke:#A5A5A5;stroke-miterlimit:10;stroke-dasharray:6.9294,11.879;}
	.st21{fill:none;stroke:#A5A5A5;stroke-miterlimit:10;stroke-dasharray:6.9493,11.9131;}
	.st22{fill:none;stroke:#65D0D9;stroke-width:3;stroke-miterlimit:10;}
	.st23{fill:#65D0D9;}
	.st24{fill:none;stroke:#7BF2DA;stroke-width:2.5225;stroke-miterlimit:10;}
	.st25{fill:none;stroke:#7BF2DA;stroke-width:2;stroke-miterlimit:10;}
	.st26{fill:#5FCFD8;}
	.st27{fill:#EEFAF7;}
	.st28{fill:none;stroke:#050505;stroke-width:2.013;stroke-miterlimit:10;}
	.st29{fill:none;stroke:#050505;stroke-width:1.13;stroke-miterlimit:10;}
	.st30{fill:#6A6A6A;}
	.st31{fill:#E4564A;}
	.st32{fill:#F2F2F2;}
	.st33{fill:#F0F0F0;}
	.st34{fill:#FBBA0A;}
	.st35{fill:none;stroke:#000000;stroke-width:0.8495;stroke-miterlimit:10;}
	.st36{fill:#E94436;stroke:#E94436;stroke-width:0.8495;stroke-miterlimit:10;}
	.st37{fill:#1C73E4;stroke:#1C73E4;stroke-width:0.8495;stroke-miterlimit:10;}
	.st38{fill:#4387F4;stroke:#4387F4;stroke-width:0.8495;stroke-miterlimit:10;}
	.st39{fill:#33A954;stroke:#33A954;stroke-width:0.8495;stroke-miterlimit:10;}
	.st40{fill:#FBBA0A;stroke:#FBBA0A;stroke-width:0.8495;stroke-miterlimit:10;}
	.st41{fill:#FFFFFF;stroke:#FFFFFF;stroke-width:0.8495;stroke-miterlimit:10;}
	.st42{clip-path:url(#SVGID_2_);fill:none;stroke:#000000;stroke-width:0.6025;stroke-miterlimit:10;}
	.st43{clip-path:url(#SVGID_4_);fill:#E4564A;}
	.st44{clip-path:url(#SVGID_6_);fill:none;stroke:#000000;stroke-width:0.8495;stroke-miterlimit:10;}
	.st45{clip-path:url(#SVGID_8_);fill:none;stroke:#000000;stroke-width:0.8495;stroke-miterlimit:10;}
	.st46{clip-path:url(#SVGID_10_);fill:#E94436;stroke:#E94436;stroke-width:0.8495;stroke-miterlimit:10;}
	.st47{clip-path:url(#SVGID_12_);fill:#1C73E4;stroke:#1C73E4;stroke-width:0.8495;stroke-miterlimit:10;}
	.st48{clip-path:url(#SVGID_14_);fill:#4387F4;stroke:#4387F4;stroke-miterlimit:10;}
	.st49{clip-path:url(#SVGID_16_);fill:#33A954;stroke:#33A954;stroke-width:0.8495;stroke-miterlimit:10;}
	.st50{clip-path:url(#SVGID_18_);fill:#FBBA0A;stroke:#FBBA0A;stroke-width:0.8495;stroke-miterlimit:10;}
	.st51{fill:#1A73E8;}
	.st52{fill:#EA4335;}
	.st53{fill:#4285F4;}
	.st54{fill:#FBBC04;}
	.st55{fill:#34A853;}
	.st56{fill:#FFFFFF;stroke:#AD6868;}
	.st57{fill:#FCBC01;}
	.st58{fill:#ED412E;}
	.st59{fill:#3E81F6;}
	.st60{fill:#2DA850;}
	.st61{fill:#FCBD02;}
	.st62{fill:#FEFEFD;}
	.st63{fill:none;stroke:#FCBC01;stroke-miterlimit:10;}
	.st64{clip-path:url(#SVGID_20_);}
</style>
<g>
	<defs>
		<circle id="SVGID_19_" cx="468.8" cy="468.8" r="468.8"/>
	</defs>
	<clipPath id="SVGID_2_">
		<use xlink:href="#SVGID_19_"  style="overflow:visible;"/>
	</clipPath>
	<g style="clip-path:url(#SVGID_2_);">
		<path class="st57" d="M1062.5,1807.4c1.3-9.9,0.1-20.8,0.1-30.8c0-10.4,0-20.9,0-31.3c0-20.5,0-41,0-61.5c0-41.4,0-82.8,0-124.2
			c0-83.2,0-166.4,0-249.6c0-82.8,0-165.6,0-248.4c0-83.2,0-166.4,0-249.6c0-82.8,0-165.6,0-248.4c0-10.4,0-20.9,0-31.3
			c-96.1,29-190.9,62.6-283.2,102c-77.6,33.1-153.6,70.3-226.6,112.6c-62.1,36-122.2,75.6-179,119.5
			C326,903,280.7,942.8,238.6,985.8c-18.5,19-36.4,38.6-53.6,58.9c-4.1,4.8-8.1,9.6-12,14.5c-1.8,2.3-3.7,4.5-5.5,6.8
			c-1.1,1.4-4.3,7.1-6,7.5c-0.7,0.2-2-2-3-1.8c-0.5,0.1-2.3,2.7-2.7,3.2c-2.3,2.7-4.5,5.4-6.7,8.2c-4.4,5.5-8.7,11.2-12.8,16.8
			c-7.9,10.8-15.6,21.8-23.1,32.9c-29.5,43.9-54.7,90.6-74.5,139.6c-18.9,46.6-33.3,96.6-39.6,146.6c-5.8,46-7.7,93.2-2.9,139.4
			c5.6,54,18.4,107.1,37.5,157.9c9.4,25,20.3,49.4,32.4,73.2c1.5,2.9,3,5.9,4.5,8.8c1.5,3,2.8,7.3,5,9.8c1.9,2.1-0.5,1.4,3.2,2
			c1.3,0.2,3.1,0,4.5,0c4.1,0,8.2,0,12.3,0c14.2,0,28.3,0,42.5,0c56.3,0,112.5,0,168.8,0c113.3,0,226.6,0,339.8,0
			c112.5,0,225.1,0,337.6,0.1c13.4,0,26.8,0,40.2,0c7.1,0,14.2,0,21.2,0c3.4,0,6.7,0,10.1,0c1.7,0,5.3-0.9,6.7,0
			C1062.5,1809.3,1062.5,1808.3,1062.5,1807.4z"/>
		<path class="st58" d="M1057.7-383c-228.2,0.1-456.4,0.1-684.6,0.1c-108.4,0-216.8,0-325.2,0c-57,0-114.1,0-171.1,0
			c-10.6,0-51.6-3.3-53.8,0c-3.4,4.9-38.1,27-2.5,27C16.3-282.5,189.8-140.6,308,30.9c53.1,77.2,96.1,161.3,125.7,250.2
			c7,21,9.3,74.3,24.2,89.7c10.2,10.5,80,8.7,94.3,11.4c31.1,6,61.9,14.1,92.1,23.6c92.2,29,182.3,71.6,266.6,122
			c28.5,17,42.1,30.5,72,29.7c11.5-0.3,71.6-14.6,79.6-25.5c11.5-15.6,0-78.4,0-101.1C1062.5,358.8,1066.5-383,1057.7-383z"/>
		<path class="st59" d="M464.5,371.6C414.1,166.7,295.3-24.7,135.4-164.7C59.8-230.9-72.7-344.4-179.5-355.9c0,289.3,0,578.7,0,868
			C9.9,408.7,246.2,339.1,464.5,371.6z"/>
		<path class="st60" d="M-179.5,512.1c0,272.7,0,545.5,0,818.2c0,134.6,0,269.1-0.1,403.7c0,15.8-8.2,57,0.1,69.4
			c8.3,12.5,31.3,6.8,47.9,6.8c69.4-0.1,138.7,0,208.1,0c-320-627.5,386.4-1069.8,889.9-1247C638.3,312,167.4,296.5-179.5,512.1z"/>
	</g>
</g>
</svg>
