<?xml version="1.0" encoding="utf-8"?>
<!-- Generator: Adobe Illustrator 22.1.0, SVG Export Plug-In . SVG Version: 6.00 Build 0)  -->
<svg version="1.1" id="Layer_1" xmlns="http://www.w3.org/2000/svg" xmlns:xlink="http://www.w3.org/1999/xlink" x="0px" y="0px"
	 viewBox="0 0 354.1 354.1" style="enable-background:new 0 0 354.1 354.1;" xml:space="preserve">
<style type="text/css">
	.st0{fill:none;stroke:#000000;stroke-width:0.6025;stroke-miterlimit:10;}
	.st1{fill:#F3F7FB;}
	.st2{fill:#FFFFFF;}
	.st3{fill:#F5F8FC;}
	.st4{fill:#FDFDFD;}
	.st5{fill:#60B3CA;}
	.st6{fill:#CEE9EF;}
	.st7{fill:#EEF6FB;}
	.st8{fill:#F3F5F7;}
	.st9{fill:#E1F3FC;}
	.st10{fill:#D3EFFB;}
	.st11{fill:#7DCBD5;}
	.st12{fill:#FCF6E8;}
	.st13{fill:#2E3A53;}
	.st14{fill:#DB415B;}
	.st15{fill:#9A9FAB;}
	.st16{fill:#7D976E;}
	.st17{fill:#F9F9F9;}
	.st18{fill:none;}
	.st19{fill:none;stroke:#A5A5A5;stroke-miterlimit:10;}
	.st20{fill:none;stroke:#A5A5A5;stroke-miterlimit:10;stroke-dasharray:6.9294,11.879;}
	.st21{fill:none;stroke:#A5A5A5;stroke-miterlimit:10;stroke-dasharray:6.9493,11.9131;}
	.st22{fill:none;stroke:#65D0D9;stroke-width:3;stroke-miterlimit:10;}
	.st23{fill:#65D0D9;}
	.st24{fill:none;stroke:#7BF2DA;stroke-width:2.5225;stroke-miterlimit:10;}
	.st25{fill:none;stroke:#7BF2DA;stroke-width:2;stroke-miterlimit:10;}
	.st26{fill:#5FCFD8;}
	.st27{fill:#EEFAF7;}
	.st28{fill:none;stroke:#050505;stroke-width:2.013;stroke-miterlimit:10;}
	.st29{fill:none;stroke:#050505;stroke-width:1.13;stroke-miterlimit:10;}
	.st30{fill:#6A6A6A;}
	.st31{fill:#E4564A;}
	.st32{fill:#F2F2F2;}
	.st33{fill:#F0F0F0;}
	.st34{fill:#FBBA0A;}
	.st35{fill:none;stroke:#000000;stroke-width:0.8495;stroke-miterlimit:10;}
	.st36{fill:#E94436;stroke:#E94436;stroke-width:0.8495;stroke-miterlimit:10;}
	.st37{fill:#1C73E4;stroke:#1C73E4;stroke-width:0.8495;stroke-miterlimit:10;}
	.st38{fill:#4387F4;stroke:#4387F4;stroke-width:0.8495;stroke-miterlimit:10;}
	.st39{fill:#33A954;stroke:#33A954;stroke-width:0.8495;stroke-miterlimit:10;}
	.st40{fill:#FBBA0A;stroke:#FBBA0A;stroke-width:0.8495;stroke-miterlimit:10;}
	.st41{fill:#FFFFFF;stroke:#FFFFFF;stroke-width:0.8495;stroke-miterlimit:10;}
	.st42{clip-path:url(#SVGID_2_);fill:none;stroke:#000000;stroke-width:0.6025;stroke-miterlimit:10;}
	.st43{clip-path:url(#SVGID_4_);fill:#E4564A;}
	.st44{clip-path:url(#SVGID_6_);fill:none;stroke:#000000;stroke-width:0.8495;stroke-miterlimit:10;}
	.st45{clip-path:url(#SVGID_8_);fill:none;stroke:#000000;stroke-width:0.8495;stroke-miterlimit:10;}
	.st46{clip-path:url(#SVGID_10_);fill:#E94436;stroke:#E94436;stroke-width:0.8495;stroke-miterlimit:10;}
	.st47{clip-path:url(#SVGID_12_);fill:#1C73E4;stroke:#1C73E4;stroke-width:0.8495;stroke-miterlimit:10;}
	.st48{clip-path:url(#SVGID_14_);fill:#4387F4;stroke:#4387F4;stroke-miterlimit:10;}
	.st49{clip-path:url(#SVGID_16_);fill:#33A954;stroke:#33A954;stroke-width:0.8495;stroke-miterlimit:10;}
	.st50{clip-path:url(#SVGID_18_);fill:#FBBA0A;stroke:#FBBA0A;stroke-width:0.8495;stroke-miterlimit:10;}
	.st51{fill:#1A73E8;}
	.st52{fill:#EA4335;}
	.st53{fill:#4285F4;}
	.st54{fill:#FBBC04;}
	.st55{fill:#34A853;}
	.st56{fill:#FFFFFF;stroke:#AD6868;}
	.st57{fill:#FCBC01;}
	.st58{fill:#ED412E;}
	.st59{fill:#3E81F6;}
	.st60{fill:#2DA850;}
	.st61{fill:#FCBD02;}
	.st62{fill:#FEFEFD;}
	.st63{fill:none;stroke:#FCBC01;stroke-miterlimit:10;}
	.st64{clip-path:url(#SVGID_20_);}
</style>
<g>
	<g>
		<defs>
			<circle id="SVGID_1_" cx="177" cy="177" r="177"/>
		</defs>
		<clipPath id="SVGID_2_">
			<use xlink:href="#SVGID_1_"  style="overflow:visible;"/>
		</clipPath>
		<rect x="-1.7" y="-4.5" class="st42" width="361.7" height="361.7"/>
	</g>
	<g>
		<defs>
			<circle id="SVGID_3_" cx="177" cy="177" r="177"/>
		</defs>
		<clipPath id="SVGID_4_">
			<use xlink:href="#SVGID_3_"  style="overflow:visible;"/>
		</clipPath>
		<path class="st43" d="M70.4,308.3c1.7,3.7,1.7,7.4,0,11.1C69.7,315.7,69.6,312,70.4,308.3z"/>
	</g>
	<g>
		<defs>
			<circle id="SVGID_5_" cx="177" cy="177" r="177"/>
		</defs>
		<clipPath id="SVGID_6_">
			<use xlink:href="#SVGID_5_"  style="overflow:visible;"/>
		</clipPath>
		<line class="st44" x1="253.3" y1="120.7" x2="6.5" y2="408.5"/>
	</g>
	<g>
		<defs>
			<circle id="SVGID_7_" cx="177" cy="177" r="177"/>
		</defs>
		<clipPath id="SVGID_8_">
			<use xlink:href="#SVGID_7_"  style="overflow:visible;"/>
		</clipPath>
		<line class="st45" x1="219.8" y1="56.2" x2="-27" y2="344"/>
	</g>
	<g>
		<defs>
			<circle id="SVGID_9_" cx="177" cy="177" r="177"/>
		</defs>
		<clipPath id="SVGID_10_">
			<use xlink:href="#SVGID_9_"  style="overflow:visible;"/>
		</clipPath>
		<polygon class="st46" points="-1.7,314.4 147.4,139.6 -1.7,18.4 		"/>
	</g>
	<g>
		<defs>
			<circle id="SVGID_11_" cx="177" cy="177" r="177"/>
		</defs>
		<clipPath id="SVGID_12_">
			<use xlink:href="#SVGID_11_"  style="overflow:visible;"/>
		</clipPath>
		<polyline class="st47" points="147.4,139.6 273.4,-4.5 -1.7,-4.5 -1.7,18.4 		"/>
	</g>
	<g>
		<defs>
			<circle id="SVGID_13_" cx="177" cy="177" r="177"/>
		</defs>
		<clipPath id="SVGID_14_">
			<use xlink:href="#SVGID_13_"  style="overflow:visible;"/>
		</clipPath>
		<polyline class="st48" points="364.8,-6 201.6,182 147.4,139.6 273.4,-6 360.1,-6 		"/>
	</g>
	<g>
		<defs>
			<circle id="SVGID_15_" cx="177" cy="177" r="177"/>
		</defs>
		<clipPath id="SVGID_16_">
			<use xlink:href="#SVGID_15_"  style="overflow:visible;"/>
		</clipPath>
		<polygon class="st49" points="50.5,357.2 360.1,0 360.1,357.2 		"/>
	</g>
	<g>
		<defs>
			<circle id="SVGID_17_" cx="177" cy="177" r="177"/>
		</defs>
		<clipPath id="SVGID_18_">
			<use xlink:href="#SVGID_17_"  style="overflow:visible;"/>
		</clipPath>
		<polygon class="st50" points="147.4,139.6 200.8,182.1 48.4,359.7 -1.7,357.2 -1.7,314.4 		"/>
	</g>
</g>
<path class="st2" d="M253.3,118.6L253.3,118.6L253.3,118.6L253.3,118.6L253.3,118.6c-10.4-20-28.4-35.4-50.3-42.3
	c-8.2-2.6-16.9-4-26-4c-26.4,0-50,11.9-65.8,30.7c-12.5,14.9-20.1,34.2-20.1,55.2c0,16.1,3.2,29.3,8.5,41
	c8.9,19.8,23.8,35.7,39,55.7c4.9,6.4,9.8,13.1,14.6,20.6c17.4,26.9,12.6,43.1,23.8,43.1s6.4-16.2,23.8-43.1
	c28.7-44.8,62.1-65.2,62.1-117.3C262.9,143.9,259.4,130.5,253.3,118.6z M177.1,191.1c-18.1,0-32.9-14.7-32.9-32.9
	c0-8,2.8-15.5,7.6-21.1c6-7.2,15.1-11.7,25.2-11.7c18.1,0,32.9,14.7,32.9,32.9c0,7.4-2.5,14.2-6.6,19.8l-2.3,2.8
	C195,187.1,186.5,191.1,177.1,191.1z"/>
</svg>
