<?xml version="1.0" encoding="utf-8"?>
<!-- Generator: Adobe Illustrator 22.1.0, SVG Export Plug-In . SVG Version: 6.00 Build 0)  -->
<svg version="1.1" id="Layer_1" xmlns="http://www.w3.org/2000/svg" xmlns:xlink="http://www.w3.org/1999/xlink" x="0px" y="0px"
	 viewBox="0 0 93.5 37.3" style="enable-background:new 0 0 93.5 37.3;" xml:space="preserve">
<style type="text/css">
	.st0{fill:#FFFFFF;}
	.st1{fill:url(#SVGID_1_);}
	.st2{fill:url(#SVGID_2_);}
	.st3{fill:#575756;}
	.st4{fill:#DB0011;enable-background:new    ;}
</style>
<rect x="125.4" y="-32.1" class="st0" width="100" height="100"/>
<image style="overflow:visible;enable-background:new    ;" width="1152" height="1385" xlink:href="D429B163.png"  transform="matrix(6.760509e-02 0 0 6.760509e-02 139.1826 -27.4181)">
</image>
<g>
	<g>
		
			<linearGradient id="SVGID_1_" gradientUnits="userSpaceOnUse" x1="104.5447" y1="0.7954" x2="140.8085" y2="0.7954" gradientTransform="matrix(2.236 0 0 2.236 9.4067 36.6756)">
			<stop  offset="0" style="stop-color:#5BC4F1"/>
			<stop  offset="0.1279" style="stop-color:#56BBE9"/>
			<stop  offset="0.3366" style="stop-color:#47A3D3"/>
			<stop  offset="0.6" style="stop-color:#307BAE"/>
			<stop  offset="0.905" style="stop-color:#0F447D"/>
			<stop  offset="1" style="stop-color:#04326C"/>
		</linearGradient>
		<path class="st1" d="M250.7,51.1c0.1,0.1,0.1,0.1,0.1,0.2c0,0.2-0.1,0.3-0.3,0.2c-0.1-0.1-0.1-0.1-0.2-0.2
			c-0.1-0.2-0.2-0.3-0.4-0.4c-0.1-0.1-0.3-0.3-0.3-0.4s0-0.1,0-0.2c0,0,0.1-0.1,0.2,0C250.2,50.6,250.4,50.8,250.7,51.1z
			 M251.2,37.7c0.1,0.1,0.3,0.3,0.6,0.3c0-0.2-0.3-0.4-0.4-0.5c-0.7-0.7-1.1-1.5-1.3-1.7c-1.3-2-1.6-5-1.5-5.3c0-0.1,0-1.7-0.2-2
			c-0.1,0.1-0.1,0.3-0.1,0.3c-0.1,0.8-0.1,1.7,0,2.6C248.3,31.6,249,35.5,251.2,37.7z M243.7,31.4L243.7,31.4
			c0.1-0.8,0.1-2.3,0.2-3.1c-0.1,0-0.1,0-0.1,0c-0.1,0.8,0,2.1-0.1,2.9C243.6,31.3,243.6,31.3,243.7,31.4z M251.7,38.7
			c0,0.1,0,0.1,0,0.2c0.1,0.1,0.3,0.2,0.4,0.1c-0.1-0.2-0.1-0.3-0.3-0.3C251.8,38.6,251.7,38.7,251.7,38.7z M245.1,38.1
			c0.1,0.4,0.2,0.8,0.4,1.1c0.1,0.3,0.6,1.6,0.8,1.6c0.1-0.1-0.9-2-1-3.3c-0.1,0-0.1,0-0.2,0C245.1,37.8,245.1,37.9,245.1,38.1z
			 M244.3,33.8c-0.2,0.6-0.2,0.9,0.3,1.6C244.4,34.8,244.7,34.8,244.3,33.8z M246.6,43.1c-0.1-0.1-0.1-0.1-0.1-0.2
			c-0.1,0.7-0.1,0.7,0.5,0.9C246.8,43.5,246.7,43.2,246.6,43.1z M243.5,35.6c-0.1-0.4-0.2-2.2-0.2-2.8c0-0.1,0-0.3,0-0.4
			c-0.1,0.1-0.1,0.2-0.1,0.3c-0.1,0.9,0,2.6,0,3.1c0.1,1.1,0.9,4.9,1.2,6.1c0.6,1.9,1.9,4.1,2.3,4.6c0.1,0.2,0.3,0.3,0.5,0.3
			c-0.7-0.8-1.3-2-1.3-2C244.1,41.2,243.6,36.4,243.5,35.6z M292.7,56.8c-0.1-0.1-0.4-0.1-0.4,0.1c-0.1,0.3-0.4,0.3-0.6,0.4
			c-0.1,0.1-0.2,0.2-0.1,0.3c0.1,0.1,0.2,0.1,0.3,0.1c0.4-0.1,0.7-0.2,0.9-0.6C292.7,57.1,292.9,56.9,292.7,56.8z M290.7,58
			c0.1,0.1,0.2,0.2,0.3,0.1c0.1,0,0.1-0.2,0.2-0.3c-0.1-0.1-0.2-0.1-0.3-0.2C290.8,57.9,290.7,58,290.7,58z M249.9,50.3
			c-0.1,0-0.1,0-0.2,0c0,0.1-0.1,0.1,0,0.2s0.2,0.3,0.3,0.4c0.2,0.1,0.3,0.2,0.4,0.4c0,0.1,0.1,0.1,0.2,0.2c0.1,0.1,0.3,0,0.3-0.2
			c0-0.1,0-0.2-0.1-0.2C250.4,50.8,250.2,50.6,249.9,50.3z M324.1,17.1c0,0.1,0,0.1,0,0.2c-0.1,0.2-0.1,0.4-0.2,0.6
			c0,0-5.4,32.4-6.4,32.9c-0.4-0.2-2.5-5.7-2.5-5.7l-0.2-0.2l-0.1-0.6l-0.1-0.2c-0.3,0.3-0.6,0.6-0.9,0.8c-0.1,0.1-0.1,0.1-0.3,0.1
			c0-0.1,0-0.2,0-0.3c-0.4,0.3-0.9,0.8-1.7,1.5c-1.1,1.1-2.6,2.5-4.9,3.9c-0.2,0.3-0.9,0.8-0.8,0.8c-0.3,0.2-0.6,0.4-0.9,0.6
			c-0.1,0.3-0.3,0.3-0.4,0.4c-0.3,0.3-0.6,0.4-0.9,0.6c-0.8,0.4-1.5,0.8-2.3,1.2c-0.5,0.3-1.1,0.6-1.6,0.9c-0.2,0.1-0.3,0.3-0.5,0.3
			c-1.6,1-3.3,1.8-5.2,2.5c-0.4,0.1-0.8,0.3-1.1,0.4c-0.8,0.6-1.6,0.9-2.5,1.1s-1.9,0.6-2.9,0.8c-4,1.1-7.6,1.5-11.7,1.8
			c-2.6,0.2-6.2-0.3-6.7-0.3c0.2-0.2,0.3-0.3,0.6-0.2c0.1,0.1,0.3,0.1,0.5,0.1s0.4-0.1,0.6-0.1c2,0.3,6.5-0.1,7.3-0.2
			c8.1-0.8,14.1-5,14.1-5s-8.2,4-14.6,4.5c-5.7,0.4-10.9-0.1-11.4-0.1c-0.3-0.1-1.3-0.2-2.6-0.5c-0.8-0.1-1.7-0.3-3-0.8
			c-0.2,0-0.4,0-0.5-0.2l0,0c-0.2-0.1-0.4-0.1-0.6-0.2c-0.1,0-0.1,0-0.2,0c-0.1-0.1-0.3-0.1-0.4-0.2s-0.2-0.1-0.3-0.2
			c-0.9-0.4-1.8-0.8-2.6-1.3c-0.7-0.4-1.4-0.9-2.1-1.4c-0.4-0.2-0.7-0.4-1-0.7c-0.3-0.3-0.6-0.6-0.9-0.9c-3-2.7-4.7-5.4-4.8-5.5
			c0.2-0.1,0.3,0,0.3,0.1c0.1,0.1,1.3,1.6,1.6,1.6c0.1-0.2,0-0.3-0.1-0.5c-0.4-0.5-0.1-0.3-0.6-0.8c-0.2-0.2-0.1-0.3,0.3,0
			c0.8,0.6,0.8,0.4,1.1,0.7c0.1,0.1,0.4,0.2,0.7,0.1c0.1-0.2-0.4-0.9-0.6-1.1c-0.3-0.5-0.9-1.1-1.1-1.1c-0.3-0.1,0.1-0.1,0-0.4
			c-0.1-0.2-0.8-0.7-0.8-1c0.1-0.3,0.6,0.6,0.9,0.9c0.1,0.1,0.3,0.1,0.5,0.3c0.2,0.1,1.4,2,1.6,2.3c0.3,0.3,1.8,1.8,2.5,2.4
			c0.4,0.3,2.4,1.9,5.5,3c2.4,0.9,8.1,1.2,8.1,1.2s-5.5-1.1-7.6-2c-5.6-2.3-7.4-4.8-7.5-5c-0.7-0.8-3.9-4.4-4.2-4.7
			c-0.1-0.4-0.6-0.9-0.6-1.1s0.3-0.1,0.3-0.1c0.1,0.1,0.5,1,0.7,0.8c0.3-0.2-0.3-0.4-0.3-0.6c-0.1-0.6-0.4-1.4-0.7-1.6
			s-0.4-0.6-0.7-1.2c-0.1-0.2-0.1-0.4-0.1-0.6c0.1,0,0.1,0,0.1-0.1c0.1,0.1,0.2,0.3,0.3,0.4c0.2,0.4,1.4,2.5,1.5,2.5
			c0.3,0.4,0.6,0.8,0.9,1.2c0.5,0.7,1.2,1.5,2,2.1c1.2,1.1,2.4,1.6,2.4,1.6c-2.8-2-3.8-3.4-5.4-6.2c-0.6-1.1-0.8-2.1-1-2.3
			c-0.2-0.4-0.3-0.9-0.4-1.1c-0.2-0.4-0.5-0.7-0.8-1.1c-0.2,0.1,0.1,0.8,0.1,1c0.1,0.2,0.2,0.3,0.1,0.6c-0.1,0.1-0.3-0.1-0.3-0.1
			c-0.2-0.3-0.6-1.3-0.7-1.5c-0.8-1.8-0.7-3.2-0.7-3.9c-0.1-0.9,0-1.6,0-2.3c0-0.9,0.4-4.2,0.5-5c0-0.1,0.1-0.2,0.1-0.4
			c0.2,0.4,0.1,0.8,0.1,1.1s0,2.1,0,2.5c-0.1,1.4-0.1,2.6,0.4,3.9c0.5,1.2,0.2,1.3,1.5,4.4c4,9.3,12.1,10.1,12.1,10.1
			s-7.9-2.8-11.4-9.5c-1-2-0.3-0.1-1.2-3.5c-0.1-0.5-0.3-1.2,0-1.2c0.2,0,0.2-0.6,0.3-0.8c0-0.2-0.1-0.5,0.1-0.6
			c0.2-0.1,0.1,0.9,0.3,1.3s-0.4,0,0.5,2.2c0.1,0.2,1.3,3.1,4.6,5.7l0,0c0.1,0.1,0.3,0.1,0.4,0.2c0.4,0.3,0.9,0.7,1.4,0.9
			c0.3,0.2,0.7,0.3,1,0.4c0.7,0.3,1.3,0.7,2,1c0,0,0.3,0.1,0.8,0.4c0.2,0.1,0.4,0.1,0.6,0.2c0.4,0.1,0.8,0.3,1.2,0.3
			c0.1,0,0.1,0,0.2,0c0.6,0.1,1.1,0.3,1.6,0.3c0.4,0.1,1.6,0.1,1.9,0.3c1.2,0.1,2.5,0.2,3.7,0.2c0.3,0,0.6-0.1,0.8-0.1
			c0.1,0,0.3-0.1,0.3,0.1c0,0,0,0,0.1,0c1.5-0.1,3-0.3,4.4-0.5l0,0c0.6-0.1,1.3-0.2,1.8-0.3h0.1l0,0c0.2,0,0.4-0.1,0.5-0.1
			c-0.1,0,0.3-0.1,0.4-0.1c0.2-0.1,0.4-0.2,0.6-0.3c0.7-0.2,1.3-0.5,2-0.8c1.4-0.5,2.8-1.1,4.2-1.6c0,0,0.6-0.3,1.6-0.7
			c1.3-0.6,2.6-1.3,3.8-2c0.2-0.1,0.4-0.3,0.6-0.1c0.6-0.3,1.1-0.6,1.7-0.9c2.8-1.8,7.1-5.2,7-5.2c0.4-0.3,1.1-0.9,1.1-0.9
			c0.7-0.6,0.8-0.7,0.8-0.9s-0.9-0.4-0.9-0.4s-7-1.5-7-1.7c0-0.3,4-1.5,6.9-2.5l0,0c0.2-0.1,0.4-0.3,0.6-0.4
			c2.6-0.7,7.2-3.2,9.8-3.8c8.3-3.5,13.2-6,13.8-6.3c1.5-0.7,1.5,0.8,1.5,0.8L324.1,17.1L324.1,17.1z M300.5,32.1
			c-0.9,0.8-1.7,1.5-2.6,2.2c-0.9,0.8-1.8,1.5-2.6,2.1c-0.9,0.7-1.8,1.3-2.8,2c-0.5,0.3-0.9,0.6-1.5,0.9c-0.5,0.3-1,0.6-1.5,0.8
			c1.1-0.4,2.1-0.9,3.1-1.5s2-1.2,2.8-1.9c0.9-0.7,1.8-1.4,2.6-2.2c0.4-0.4,0.8-0.8,1.3-1.2C299.7,32.9,300.1,32.5,300.5,32.1z"/>
		
			<linearGradient id="SVGID_2_" gradientUnits="userSpaceOnUse" x1="112.8454" y1="-17.4875" x2="143.1336" y2="-17.4875" gradientTransform="matrix(2.236 0 0 2.236 9.4067 36.6756)">
			<stop  offset="0" style="stop-color:#04326C"/>
			<stop  offset="0.1279" style="stop-color:#093B74"/>
			<stop  offset="0.3366" style="stop-color:#18538A"/>
			<stop  offset="0.6" style="stop-color:#2F7BAE"/>
			<stop  offset="0.905" style="stop-color:#50B2E0"/>
			<stop  offset="1" style="stop-color:#5BC4F1"/>
		</linearGradient>
		<path class="st2" d="M313.4,0.2c0.1,0.4-0.1,0.7-0.3,0.7c-0.3-3.7-1.8-6.4-1.9-6.6c0.3-0.1,0.5,0.1,0.6,0.3
			C312-5,313-2.7,313.4,0.2z M311.2-6.1c0-0.6-3.6-4.3-4-4.4c-0.1,0-0.1,0-0.3,0.1c0.1,0.1,3,2.6,3.7,4C310.8-6.2,311-6.1,311.2-6.1
			z M305.5-11.6c-0.1,0-0.1,0-0.3,0c0.3,0.3,1.1,0.8,1.3,0.8C306.6-10.8,305.9-11.4,305.5-11.6z M313.2,2.9c0,0.1,0.1,0.3,0.3,0.3
			c0-0.6,0.1-1.2-0.1-1.6c-0.1,0-0.1,0.1-0.1,0.1C313.2,2,313.2,2.4,313.2,2.9z M329.3,4.5c-0.1,0.7-0.3,1.3-0.4,2l0,0
			c-0.1,0.6-0.4,1.6-0.9,2.5c-0.1,0.2-0.1,0.3-0.3,0.5l0,0l0,0c-0.3,0.5-0.4,0.9-0.6,1.1c-0.3,0.5-0.6,0.9-0.7,1.1l0,0
			c-0.2,0.3-0.4,0.6-0.6,0.9c-0.1,0.1-0.3,0-0.3-0.1c0.6-1.3,0.8-2.4,0.9-3.4c-0.3,0.8-1.2,1.6-1.3,1.9c-0.1,0.3-0.6,1.1-0.7,1.1
			c-0.4,0.3-1,1-1.3,1.5c-0.2,0.3-0.9,0.7-0.9,0.8c-0.1,0.2-0.3,0.3-0.6,0.4c0.1-0.6,0.4-0.6,0.6-1.1c0.3-0.4,0.4-0.7,0.6-1.2
			c-0.3,0-0.6,0.8-0.8,0.8c-0.3,0.1-0.4-0.1-0.5-0.1c0.1-0.3,0.2-0.7,0.4-0.9c0.4-0.3,0.9-2.6,0.9-2.8c0-0.5,0.4-1.8,0.6-2.2
			c0.1-0.3-0.3-1.1-0.1-1.8c0.1-0.2-0.2-0.4-0.3-0.4c-0.3,0.1-0.4,1.1-0.4,1.4c0,0,0,0.1-0.1,0.3c0.1,0.3,0.1,0.4,0.1,0.4
			c0,0.2-0.1,0.7-0.1,1.5c-0.1,0.8-0.7,2.6-1.2,3.3c-0.4,0.6-0.3,0.4-0.9,0.8c-0.6,0.4,0.6-0.1-0.8,0.6c-1.4,0.7-1.6,0.9-1.6,1.1
			c-0.1,0.2-0.1-0.7,0.3-0.9c0-0.1,0.1-0.1,0.1-0.2l1.6-4.1c0.4-1.5,0.5-3.4,0.5-3.5c0.3-2.1-0.9-6.7-0.9-6.7s0.8,4.9,0.3,7.1
			c-0.1,1.3-0.6,4.4-2.3,7c-0.1,0.2-1.4,2.1-1.5,2.1c-0.6,0.3-1.2,1.9-1.5,1.8c-0.2-0.3,0-1,0.4-1.3c0.3-0.2,0.8-0.6,0.8-0.9
			c0-0.1,0.6-1.8,0.8-2c0.2-0.3,0.4-1.1,0.1-1.1c-0.2-0.1-0.4,0.1-0.4,0.3c-0.1,0.4-0.6,1.3-0.7,1.3c-0.4,0.2-0.6,0.5-0.8,0.8
			c-0.1,0.1-2,2.8-2.3,2.8c-0.2,0-1.2,0.8-1.4,0.9c-0.1,0.2-0.3,0.4-0.5,0.6c-0.1,0.1-0.4,0.1-0.6,0.1c-0.1,0-0.2,0-0.2,0.1l0.1-0.1
			l0,0c0,0,0.4-0.4,0.7-0.9c-0.1,0.1-0.1,0.3-0.2,0.4l0,0c0.1-0.1,0.1-0.1,0.1-0.2c0,0,0,0,0-0.1c0.1-0.1,0.1-0.2,0.1-0.3
			c0,0,0,0,0-0.1c0.1-0.1,0.1-0.2,0.1-0.3V17c0.1-0.1,0.1-0.2,0.1-0.3s0.1-0.1,0.1-0.3c0,0,0-0.1,0.1-0.1c0.2-0.4,0.4-0.8,0.5-1.1
			c1.2-2.5,1.6-3.9,2.3-6.6c0.2-0.9,0.5-4.4,0.5-4.8c0-0.7,0-1.1-0.1-1.3c-0.3-7.7-3.7-12.2-7.7-14.8c-0.1-0.1-0.3-0.1-0.3-0.2
			c-0.5-0.3-0.9-0.6-1.5-0.9c-0.3-0.2-0.7-0.3-1.1-0.4c-0.7-0.3-1.4-0.6-2.1-0.9c0,0-0.3-0.1-0.9-0.3c-0.7-0.2-1.5-0.4-2.1-0.6
			c-0.1,0-0.1,0-0.1-0.1c-1.5-0.3-2.8-0.4-3.6-0.4c-2.6,0-5.6,0.2-8.4,0.7c-0.2,0.1-0.4,0.1-0.6,0.1c-0.4,0.1-0.7,0.3-1.1,0.3
			c-0.8,0.2-1.5,0.3-2.2,0.5c0,0-0.3,0.1-0.8,0.2c-0.1,0-0.1,0-0.1,0.1c-0.7,0.3-1.3,0.5-2,0.8c-0.1,0-0.1,0.1-0.2,0.1h-0.1
			c-2.1,0.8-3.9,1.5-5.7,2.3c-0.1,0.1-0.4,0.3-0.4,0.3l0,0c-0.9,0.4-1.8,1-2.8,1.6l3.1,1c-0.6,0.3-5.4,1.8-8.8,2.6
			c-0.6,0.2-1.1,0.4-1.6,0.5l0,0l0,0c0-0.1,0.2-0.1,0.3-0.2c-0.6,0.1-1.1,0.3-1.5,0.3c-0.2,0-0.3,0-0.4-0.1
			c-0.4-0.4,6.8-10.1,6.8-10.1l0,0l0,0l-0.1,3c0,0,7.4-5.5,15.9-8.3c0.1-0.1,0.3-0.1,0.4-0.1s0.1-0.1,0.1-0.1
			c0.8-0.3,1.7-0.6,2.6-0.8c0.2,0,0.4-0.1,0.6-0.2c0.4-0.2,1.7-0.4,2-0.4c3.6-0.8,7.3-1.3,10.8-1.3c0.4,0,0.8-0.1,1.2-0.1
			c0.1,0,0.3,0,0.4,0c0.1-0.1,0.2-0.1,0.3-0.1c0.1,0,0.2,0,0.3,0.1l0,0c0.2,0,0.3,0,0.5,0.1c0.1-0.1,0.2-0.1,0.3-0.1l0,0l0,0
			c0.2,0,0.3,0,0.5,0c0.5,0.1,1.1,0.3,1.6,0.3c0.3,0.1,0.5,0.1,0.7,0.1c0.9,0.1,1.8,0.3,2.6,0.6c0.2,0.1,0.4,0.1,0.6,0.1
			c0.4,0,0.8,0.1,1.2,0.3c0.2,0.1,0.4,0.2,0.6,0.3c4.8,1.6,9.3,4.4,13.1,8.7c0,0,0.3,0.3,0.7,0.9c0.1,0.1,0.1,0.2,0.3,0.4l0.1,0.1
			c0,0,0,0.1,0.1,0.1c0,0.1,0.1,0.1,0.1,0.1l0,0c1.1,1.7,3.7,6.5,3.5,12.6C329.4,2.6,329.4,3.5,329.3,4.5z M323.3-11.9L323.3-11.9
			c1.1,1.2,2.2,2.6,3.1,4.2c0.2,0.4,0.4,0.7,0.6,1.1c-0.3-0.9-0.6-1.7-1-2.5c-0.6-1.1-1.2-2.1-2-3l0,0c-1.1-1.4-2.3-2.5-3.2-3.2
			c-1.4-1.1-3.4-2.4-5.4-3.2c-0.1,0,4.3,2.8,6.3,4.9C322.3-13,322.8-12.4,323.3-11.9L323.3-11.9L323.3-11.9z M280.3-17.6
			c-1.9,0.8-5.9,2.9-7.1,4c1.3-0.7,5.5-2.9,7.3-3.6c4-1.6,6.7-2.6,8.1-3C286.1-19.9,282.6-18.6,280.3-17.6z"/>
	</g>
	<g>
		<g>
			<path class="st3" d="M244.2,13c1.6-2.7,2.8-4.7,3.9-5.9c1-1.3,2.1-2.3,3.3-3.1c1.2-0.8,2.6-1.5,4-1.8c1.5-0.4,3.2-0.6,5-0.6h6.3
				l-2.1,3.7h-6.7c-1.8,0-3.3,0.4-4.6,1.2c-1.3,0.8-2.5,2.1-3.5,3.9h11.8l-2.1,3.7h-11.8l-5,8.7h-4.2L244.2,13z"/>
			<path class="st3" d="M270,1.6h9c1.5,0,2.6,0.1,3.5,0.3c0.8,0.2,1.4,0.4,1.7,0.8c0.5,0.6,0.8,1.4,0.6,2.4c-0.1,1-0.6,2.1-1.3,3.4
				c-0.8,1.3-1.6,2.3-2.5,3.3c-0.9,0.9-1.9,1.6-3,2.3c-0.9,0.5-1.8,0.8-2.8,1.1c-0.9,0.2-2.3,0.3-4,0.3h-5l-4.2,7.4h-4.1L270,1.6z
				 M276.8,5.3H272l-3.6,6.2h5c1.3,0,2.3-0.3,3.2-0.8c0.9-0.5,1.6-1.3,2.3-2.3c0.6-1.1,0.8-2,0.5-2.4C279.1,5.6,278.2,5.3,276.8,5.3
				z"/>
			<path class="st3" d="M305.2,5.3H295c-1.1,0-2,0.2-2.8,0.6s-1.5,1.1-2,2.1c-0.4,0.8-0.6,1.3-0.3,1.7c0.2,0.4,0.8,0.6,1.6,0.6h5.4
				c2.3,0,3.6,0.4,4,1.4c0.4,0.9,0,2.5-1.2,4.6c-1.3,2.2-2.7,3.8-4.4,4.8c-1.7,1-3.7,1.5-6.1,1.5h-11.1l2.2-3.8h10.3
				c1.2,0,2.1-0.2,2.8-0.6c0.7-0.4,1.3-1,1.8-1.8c0.5-0.9,0.6-1.5,0.4-1.9c-0.3-0.4-0.9-0.6-2-0.6h-4.9c-2.3,0-3.6-0.5-4.1-1.5
				c-0.5-0.9-0.1-2.5,1.1-4.6c1.3-2.3,2.8-3.9,4.5-4.9s3.7-1.6,6.1-1.6h10.8L305.2,5.3z"/>
		</g>
	</g>
</g>
<image style="overflow:visible;enable-background:new    ;" width="1516" height="759" xlink:href="D429B166.png"  transform="matrix(6.018858e-02 0 0 6.018858e-02 139.0236 93.432)">
</image>
<image style="overflow:visible;enable-background:new    ;" width="801" height="329" xlink:href="D429B165.png"  transform="matrix(0.1228 0 0 0.1228 -139.6659 -138.3915)">
</image>
<image style="overflow:visible;enable-background:new    ;" width="801" height="329" xlink:href="D429B162.png"  transform="matrix(0.1228 0 0 0.1228 -8.9992 -68.9397)">
</image>
<g>
	<path class="st4" d="M72.1,25.8c-0.7,0-0.9-0.6-1-0.9c-1-2.5-1.9-5-2.9-7.5L67,14.3v10.4c0,0.9-0.1,1-1,1.1l-0.3,0
		c-0.2,0-0.6,0-0.8-0.3c-0.2-0.2-0.2-0.5-0.1-0.8l0-3c0-3.2,0-6.4,0-9.5c0-0.3,0-0.6,0.2-0.8c0.1-0.1,0.3-0.2,0.6-0.2
		c0.1,0,0.1,0,0.2,0c0.3,0,0.5,0,0.8,0c0.3,0,0.6,0,0.9,0l0.1,0c0.6,0,0.8,0.4,0.9,0.7c1.3,3.5,2.7,7,4,10.4c0,0.1,0.1,0.2,0.1,0.2
		c0,0,0.6-1.7,0.6-1.7c1.1-3,2.2-5.9,3.4-8.9c0.1-0.4,0.4-0.8,1-0.8c0,0,0.1,0,0.1,0c0.3,0,0.6,0,1,0c0.2,0,0.5,0,0.7,0l0.1,0
		c0.3,0,0.4,0.1,0.6,0.2c0.2,0.2,0.2,0.5,0.2,0.7c0,2.9,0,5.8,0,8.6l0,3c0,0.4,0,0.9,0,1.3c0,0.2,0,0.5-0.2,0.6
		c-0.2,0.2-0.4,0.2-0.6,0.2l-0.3,0c-0.5,0-0.8,0-1-0.2c-0.2-0.2-0.2-0.6-0.2-1.2c0,0,0-7.7,0-10l-0.4,1.1c-1.2,3.2-2.5,6.4-3.7,9.6
		c-0.1,0.4-0.4,0.8-0.9,0.8c-0.1,0-0.2,0-0.2,0c0,0-0.1,0-0.1,0c0,0-0.1,0-0.1,0C72.3,25.8,72.2,25.8,72.1,25.8z"/>
	<path class="st4" d="M66.7,13.2c0,0.2,0,0.5,0,0.7c0,3.6,0,7.2,0,10.8c0,0.8,0,0.7-0.9,0.8c-0.6,0-0.9-0.1-0.8-0.7c0,0,0-0.1,0-0.1
		c0-4.2,0-8.3,0-12.5c0-0.5,0.1-0.7,0.6-0.7c0.6,0.1,1.1,0,1.7,0c0.4,0,0.6,0.1,0.8,0.5c1.3,3.5,2.7,7,4,10.4
		c0.1,0.2,0.1,0.5,0.3,0.7c0.2-0.1,0.2-0.4,0.3-0.6c1.3-3.5,2.7-7,4-10.5c0.2-0.4,0.3-0.6,0.8-0.6c0.6,0,1.2,0.1,1.7,0
		c0.5,0,0.6,0.1,0.6,0.6c0,3.7,0,7.5-0.1,11.2c0,0.6,0,1.2,0,1.7c0,0.4-0.1,0.5-0.5,0.5c-1.2,0-1.2,0-1.2-1.2c0-3.5,0-6.9,0-10.4
		c0-0.2,0.1-0.4-0.1-0.6c-0.2,0.1-0.2,0.4-0.3,0.6c-1.4,3.7-2.9,7.4-4.3,11.1c-0.2,0.4-0.4,0.7-0.9,0.6c-0.1,0-0.2,0-0.4,0
		c-0.5,0.1-0.7-0.2-0.9-0.6c-1.2-3.2-2.5-6.4-3.7-9.6c-0.3-0.7-0.5-1.4-0.8-2.1C66.8,13.2,66.8,13.2,66.7,13.2z"/>
	<path class="st4" d="M4.7,37.3c-2.1,0-3.7-1.6-3.7-3.8c0-2.4,0-4.8,0-7.2c0-3.3,0-6.5,0-9.8c0-1.7,0-3.7,0.5-5.6
		c1.6-5.4,6.4-9.3,12-9.8c0.4,0,0.8,0,1.1,0c6.9,0,12.6,5,13.6,11.8c0.5,3.7-0.5,7.4-2.9,10.4c-2.3,2.9-5.8,4.8-9.5,5.1
		c-0.6,0.1-1.3,0.1-2,0.1l-0.5,0c-0.5,0-1.1,0-1.7,0l-1.5,0c-0.4,0-0.9,0-1.4,0c0,0,0,0,0,0c-0.1,0-0.2,0-0.2,0c0,0,0,0,0,0.2
		c0,0.9,0,1.8,0,2.7c0,0.7,0,1.4,0,2.1C8.6,35.7,7,37.3,4.7,37.3L4.7,37.3z M2.4,28.7l0,1.4c0,1.1,0,2.2,0,3.2
		c0,1.3,0.7,2.3,1.8,2.5c0.2,0,0.4,0.1,0.6,0.1c1.4,0,2.4-1,2.5-2.5l0-0.2c0-1.7,0.1-3.4,0.1-5c0-0.7,0.3-1,1-1c0.6,0,1.1,0,1.7,0
		l2.1,0c0.3,0,1.5,0,1.8,0c0.7,0,1.6,0,2.4-0.1c6.6-1,11.2-6.8,10.5-13.5c-0.6-6.2-6-11-12.2-11c-0.8,0-1.7,0.1-2.5,0.3
		C6.4,4,2.4,9,2.4,15v13.5L2.4,28.7z"/>
	<path class="st4" d="M11.8,28.3c-0.7,0-1.8,0-2.9,0c-0.4,0-0.5,0.1-0.5,0.5c0,1.6-0.1,3.2-0.1,4.8c0,2.1-1.5,3.6-3.6,3.6
		c-2,0-3.4-1.5-3.5-3.5c0-5.7,0-11.3,0-17c0-1.9,0-3.7,0.5-5.5c1.5-5.3,6.3-9.1,11.7-9.5C20.7,0.9,27,5.9,28,13
		c1.1,7.5-4.5,14.5-12.1,15.2C14.7,28.3,13.4,28.2,11.8,28.3z M2.1,28.7C2.1,28.7,2.1,28.7,2.1,28.7c0,1.5,0,3.1,0.1,4.6
		c0,1.4,0.8,2.6,2,2.8c1.8,0.4,3.4-0.9,3.4-2.8c0-1.7,0.1-3.5,0.1-5.2c0-0.5,0.2-0.8,0.7-0.7c1.2,0,2.4,0,3.6,0c1.5,0,3,0.1,4.5-0.1
		c6.8-1,11.4-7,10.8-13.9c-0.7-7.3-7.9-12.5-15.1-11C6.2,3.8,2.1,8.9,2.1,15C2.1,19.5,2.1,24.1,2.1,28.7z"/>
	<path class="st4" d="M34.5,25.8c-0.5,0-0.8,0-1-0.3c-0.2-0.2-0.2-0.6-0.2-1.2l0-7.5c0-1.6,0-3.2,0-4.8c0-0.2,0-0.5,0.2-0.7
		c0.2-0.2,0.4-0.2,0.6-0.2c0.8,0,1.6,0,2.3,0c1,0,1.9,0,2.9,0.1c2.3,0.1,3.9,1.7,4,3.9c0.1,2.5-1.3,4.2-3.7,4.6
		c-0.6,0.1-1.3,0.1-2.1,0.1c-0.4,0-0.9,0-1.3,0c0,0-0.3,0-0.3,0c-0.2,0-0.2,0-0.2,0c0,0,0,0,0,0.2c0,0.9,0,1.7,0,2.6
		c0,0.8,0,1.6,0,2.4c0,0.5-0.2,0.8-0.8,0.8L34.5,25.8z M35.7,13.1c0,0,0,0.1,0,0.2c0,0.5,0,1,0,1.5l0,2.9c0,0,0,0.1,0,0.2
		c0.1,0,0.3-0.1,0.4-0.1c0.2,0,1,0,1.2,0c0.6,0,1.2,0,1.8-0.2c1.2-0.3,1.8-1.1,1.7-2.6c-0.1-1-0.7-1.7-1.9-1.8
		c-0.4-0.1-0.9-0.1-1.4-0.1l-0.6,0c-0.4,0-0.7,0-1.1,0L35.7,13.1z"/>
	<path class="st4" d="M33.6,18.4c0-2.1,0-4.3,0-6.4c0-0.4,0.1-0.6,0.5-0.6c1.7,0.1,3.4,0,5.1,0.1c2.2,0.1,3.7,1.6,3.7,3.6
		c0.1,2.3-1.2,3.9-3.4,4.3c-1.2,0.2-2.4,0.1-3.6,0.1c-0.5,0-0.6,0.1-0.6,0.6c0,1.6,0,3.3,0,4.9c0,0.4-0.1,0.5-0.5,0.5
		c-1.3,0-1.3,0-1.3-1.2C33.6,22.3,33.6,20.3,33.6,18.4z M35.4,15.4c0,0.7,0,1.5,0,2.2c0,0.2,0,0.4,0.3,0.4c1.2,0,2.4,0.1,3.6-0.2
		c1.4-0.4,2-1.3,1.9-2.9c-0.1-1.2-0.8-1.9-2.2-2.1c-1-0.1-2.1,0-3.1-0.1c-0.3,0-0.4,0.1-0.4,0.5C35.5,14,35.4,14.7,35.4,15.4z"/>
	<path class="st4" d="M87.1,26c-0.5,0-1-0.1-1.4-0.2c-1.8-0.5-2.9-1.8-3.2-3.8c-0.3-1.8,0-3.2,0.7-4.5c0.8-1.4,2.3-2.3,4.1-2.3
		c0.2,0,0.4,0,0.6,0c1.9,0.2,3.1,1.3,3.6,3.2c0.2,0.7,0.2,1.3,0.3,1.9c0,0.2,0,0.5-0.2,0.7c-0.1,0.1-0.3,0.2-0.6,0.2
		c-0.5,0-0.9,0-1.3,0l-2,0v0l-1.4,0c-0.4,0-0.8,0-1.3,0c0,0,0,0,0,0c-0.2,0-0.2,0-0.2,0c0,0,0,0,0,0.3c0.1,1.6,1.2,2.8,2.6,2.8
		c0.2,0,0.5,0,0.8-0.1c0.7-0.2,1.2-0.7,1.3-1.3c0.2-0.6,0.5-0.9,1-0.9c0.1,0,0.2,0,0.3,0c0,0,0.1,0,0.1,0c0.1,0,0.1,0,0.2,0
		c0,0,0.1,0,0.1,0c0.2,0,0.4,0.1,0.5,0.2c0.1,0.2,0.1,0.4,0.1,0.6c-0.4,1.6-1.4,2.6-2.9,3C88.1,26,87.6,26,87.1,26z M89.4,19.5
		c0.1,0,0.1,0,0.1,0c0-1-0.7-2.2-1.6-2.4C87.7,17,87.5,17,87.2,17c-0.7,0-1.3,0.3-1.8,0.8c-0.5,0.5-0.7,1.1-0.7,1.7l3.5,0
		C88.3,19.5,89.4,19.5,89.4,19.5z"/>
	<path class="st4" d="M87.9,20.9c-1,0-2,0-3,0c-0.5,0-0.6,0.2-0.5,0.6c0.1,2.2,1.8,3.5,3.7,3c0.8-0.2,1.3-0.7,1.5-1.5
		c0.1-0.5,0.4-0.7,0.9-0.6c0.1,0,0.3,0,0.4,0c0.4,0,0.4,0.1,0.3,0.5c-0.4,1.5-1.3,2.4-2.7,2.8c-0.9,0.2-1.8,0.2-2.8,0
		c-1.8-0.5-2.8-1.8-3-3.6c-0.2-1.5-0.1-3,0.6-4.3c0.8-1.5,2.5-2.3,4.4-2.1c1.8,0.2,2.9,1.2,3.4,3c0.2,0.6,0.2,1.2,0.3,1.8
		c0,0.4-0.1,0.6-0.6,0.6C89.9,20.9,88.9,21,87.9,20.9C87.9,21,87.9,20.9,87.9,20.9z M87,19.8c0.8,0,1.5,0,2.3,0c0.2,0,0.4,0,0.4-0.3
		c0.1-1.1-0.7-2.4-1.8-2.7c-1.7-0.5-3.6,0.9-3.6,2.7c0,0.3,0.2,0.3,0.4,0.3C85.5,19.8,86.3,19.8,87,19.8z"/>
	<path class="st4" d="M47.1,26c-1,0-1.9-0.3-2.5-0.7c-0.8-0.6-1.3-1.6-1.2-2.7c0.1-1.1,0.7-2.1,1.7-2.6c1.2-0.6,2.5-0.7,3.6-0.7
		c0.2,0,0.4,0,0.6,0c0.2,0,0.4,0,0.5,0l0.1,0c0,0,0-0.1,0-0.1c0-0.1,0-0.2,0-0.3c0-0.1,0-0.1,0-0.2c-0.1-0.7-0.2-1.3-0.8-1.5
		c-0.4-0.2-0.7-0.2-1-0.2c-0.4,0-0.8,0.1-1.2,0.3c-0.2,0.1-0.4,0.4-0.4,0.7c-0.1,0.8-0.7,0.8-1,0.8c-0.6,0-1.1-0.1-1.3-0.4
		c-0.2-0.3,0-0.8,0.3-1.3c0.4-0.7,1.1-1.2,2-1.5c0.5-0.1,1-0.2,1.6-0.2c0.4,0,0.9,0,1.3,0.1c1.7,0.3,2.6,1.5,2.6,3.4
		c0,1.1,0,2.1,0,3.2l0,0.6c0,0.8,0,1.7,0.2,2.5c0,0.2,0.1,0.4-0.1,0.6c-0.1,0.1-0.3,0.2-0.5,0.2l-0.1,0c-0.1,0-0.1,0-0.2,0
		c0,0-0.1,0-0.1,0c-0.1,0-0.2,0-0.3,0c-0.2,0-0.5-0.1-0.6-0.2c-0.2-0.2-0.2-0.4-0.2-0.7c-0.2,0.2-0.3,0.3-0.5,0.4
		C49,25.7,48.1,26,47.1,26z M48.9,20.8c-0.8,0-1.7,0.1-2.5,0.6c-0.5,0.3-0.7,0.8-0.7,1.4c0,0.5,0.3,1,0.8,1.3
		c0.3,0.2,0.7,0.3,1.1,0.3c0,0,0,0,0,0c1,0,1.8-0.7,2.1-1.6c0.1-0.3,0.1-0.6,0.2-0.9c0-0.3,0.1-0.8,0-0.8c0,0-0.2-0.1-0.6-0.1
		L48.9,20.8z"/>
	<path class="st4" d="M50.3,24.3c-0.3,0.3-0.5,0.5-0.8,0.7c-1.2,0.9-3.4,0.9-4.7,0c-1.7-1.2-1.4-3.9,0.4-4.8
		c1.1-0.6,2.3-0.7,3.5-0.7c0.4,0,0.7,0,1.1,0c0.4,0.1,0.5-0.1,0.5-0.5c0-0.2,0-0.3,0-0.5c-0.1-0.7-0.2-1.4-1-1.8
		c-0.8-0.4-1.7-0.4-2.5,0.1c-0.3,0.2-0.5,0.5-0.6,0.9c-0.1,0.5-0.3,0.5-0.7,0.5c-1.1,0-1.3-0.3-0.7-1.3c0.4-0.7,1-1.1,1.8-1.3
		c0.9-0.2,1.9-0.2,2.8-0.1c1.6,0.3,2.4,1.3,2.4,3.1c0,1.2,0,2.5,0,3.8c0,0.9,0,1.7,0.2,2.6c0.1,0.3,0,0.5-0.4,0.5
		c-0.1,0-0.2,0-0.4,0c-0.5,0.1-0.8-0.1-0.8-0.7C50.4,24.7,50.4,24.5,50.3,24.3z M48.8,20.5c-0.8,0-1.8,0.1-2.6,0.6
		c-1.2,0.8-1.1,2.5,0.1,3.1c1.5,0.8,3.2,0,3.6-1.5c0.1-0.3,0.1-0.7,0.2-1C50.3,20.5,50.3,20.5,48.8,20.5z"/>
	<path class="st4" d="M56.7,29.5c-0.5,0-0.8,0-0.9-0.3c-0.1-0.2,0-0.5,0.2-1l0.3-0.7c0.2-0.5,0.4-1.1,0.7-1.6c0.2-0.3,0.2-0.6,0-1
		c-1.1-2.5-2.1-4.9-3.1-7.4l-0.5-1.2l-0.1-0.1c-0.1-0.2-0.2-0.4-0.1-0.7l0-0.2l0.2-0.1l0.1,0l0.6,0c1.4,0,1.6,0.3,2.1,1.8
		c0.7,1.9,2.1,5.7,2.2,5.7c0,0,0.4-1,0.4-1c0.7-1.9,1.4-3.8,2.1-5.7c0.1-0.4,0.4-0.9,1-0.9c0.1,0,0.2,0,0.3,0l0.2,0l0.1,0
		c0.4,0,0.7,0,0.8,0.2c0.1,0.2,0,0.4-0.1,0.8L58.7,27c-0.1,0.2-0.1,0.3-0.2,0.5c-0.2,0.4-0.3,0.7-0.4,1.1c-0.2,0.6-0.6,0.9-1.2,0.9
		L56.7,29.5z"/>
	<path class="st4" d="M53.4,15.7C53.4,15.7,53.4,15.7,53.4,15.7c1.8-0.1,1.8-0.1,2.4,1.6c0.7,1.9,1.4,3.7,2.1,5.6
		c0.1,0.2,0.1,0.4,0.2,0.5c0.3-0.1,0.3-0.3,0.4-0.5c0.8-2.2,1.7-4.4,2.5-6.6c0.2-0.5,0.4-0.7,0.9-0.6c0.1,0,0.2,0,0.4,0
		c0.7,0,0.7,0,0.4,0.6c-1.4,3.5-2.9,7.1-4.3,10.6c-0.2,0.5-0.5,1.1-0.6,1.6c-0.2,0.5-0.4,0.7-1,0.7c-1-0.1-1,0-0.6-0.9
		c0.3-0.7,0.6-1.5,1-2.2c0.2-0.4,0.2-0.8,0-1.2c-1.2-2.8-2.4-5.7-3.6-8.6C53.5,16.1,53.4,15.9,53.4,15.7z"/>
	<path class="st4" d="M4.8,34.1c-0.4,0-0.7-0.3-0.7-0.8l0-9.7c0-1,0-2.1,0-3.1c0-2,0-4.2,0.1-6.2c0.2-4.8,4.3-9.2,9.2-9.7
		c0.4,0,0.8-0.1,1.2-0.1c5.2,0,9.3,3.4,10.4,8.6c0.6,2.8-0.1,5.9-1.9,8.2c-1.8,2.4-4.5,3.9-7.4,4.2c-0.5,0.1-1.1,0.1-1.7,0.1l-0.1,0
		c-2,0-3.9,0-5.9,0c0,0-2.1,0-2.1,0c-0.2,0-0.3,0-0.3,0c0,0,0,0,0,0.3c0,1.7,0,3.5,0,5.2l0,2.2C5.5,34.1,5,34.1,4.8,34.1L4.8,34.1z
		 M11.4,24.3c0.4,0,0.7,0,1.1,0c0.4,0,0.8,0,1.2,0c0.6,0,1.5,0,2.4-0.2c4.7-0.7,8-5,7.7-9.8c-0.3-4.6-4.3-8.3-8.9-8.4l-0.2,0
		c-5,0-9.1,4.1-9.1,9.1c0,1.8,0,3.5,0,5.3c0,1.2,0,2.5,0,3.7c0,0.2,0,0.2,0,0.2l0,0c0,0,0,0,0.2,0c0.7,0,1.4,0,2.2,0l2.8,0
		C10.9,24.3,11.1,24.3,11.4,24.3z"/>
	<path class="st4" d="M4.4,23.7c0-3.1-0.1-6.2,0-9.3c0.2-4.7,4.2-8.9,8.9-9.4c5.5-0.6,10.2,2.9,11.3,8.3c1.2,5.8-3.1,11.5-9,12.1
		c-0.6,0.1-1.1,0.1-1.7,0.1c-2.7,0-5.4,0-8.1,0c-0.5,0-0.6,0.1-0.6,0.6c0,2.4,0,4.7,0,7.1c0,0.1,0,0.2,0,0.3c0,0.3-0.1,0.5-0.4,0.5
		c-0.3,0-0.4-0.2-0.4-0.5c0-1.2,0-2.3,0-3.5C4.4,27.8,4.4,25.7,4.4,23.7z M10.7,24.6c1.6-0.1,3.5,0.2,5.3-0.1
		c4.8-0.7,8.3-5.2,7.9-10.1c-0.4-4.8-4.4-8.6-9.2-8.7c-5.2-0.1-9.5,4.2-9.6,9.4c0,3,0,6,0,9c0,0.4,0.1,0.5,0.5,0.5
		C7.3,24.6,8.9,24.6,10.7,24.6z"/>
	<path class="st4" d="M8.2,22.5c-0.2,0-0.5,0-0.8-0.3c-0.2-0.2-0.2-0.5-0.2-0.8c0-0.8,0-1.6,0-2.5l0-1.2c0-0.4,0-0.9,0-1.4
		c0-0.9-0.1-1.7,0.1-2.7c0.7-3.5,3.7-6,7.3-6c0.2,0,0.4,0,0.5,0C18.8,8,21.7,11,22,14.7c0.2,3.7-2.4,6.9-6,7.6
		c-0.4,0.1-0.8,0.1-1.2,0.1c-0.9,0-1.9,0-2.8,0C10.8,22.5,9.5,22.5,8.2,22.5L8.2,22.5z M14.1,9.1c-2.8,0.1-5.3,2.6-5.5,5.5
		c-0.1,1.2-0.1,2.4,0,3.6c0,0.9,0,1.9,0,2.9c0,0.1,0,0.1,0.1,0.1c0.5,0,2.2,0,2.2,0l0.5,0l0.3,0l2.7,0c1.8,0,3.5-0.8,4.7-2.2
		c1.1-1.4,1.6-3.2,1.3-4.9c-0.5-2.8-3-4.9-6-4.9C14.4,9.1,14.2,9.1,14.1,9.1z"/>
	<path class="st4" d="M7.5,17.7c0.1-1.2-0.2-2.6,0.1-4c0.7-3.5,3.9-6,7.5-5.7c3.5,0.2,6.3,3.1,6.5,6.7c0.2,3.5-2.3,6.7-5.8,7.3
		c-0.4,0.1-0.7,0.1-1.1,0.1c-2.2,0-4.4,0-6.5,0c-0.5,0-0.7-0.2-0.7-0.7C7.5,20.3,7.5,19.1,7.5,17.7z M11.8,21.4
		C11.8,21.4,11.8,21.4,11.8,21.4c0.9,0,1.8,0,2.7,0c4,0,6.9-3.5,6.2-7.4c-0.5-3.1-3.4-5.3-6.7-5.1c-3,0.1-5.6,2.7-5.8,5.7
		c-0.1,2.1,0.1,4.3,0,6.4c0,0.3,0.2,0.4,0.4,0.4C9.8,21.4,10.8,21.4,11.8,21.4z"/>
	<path class="st4" d="M11.3,19.3c-0.2,0-0.4-0.1-0.6-0.2c-0.1-0.1-0.2-0.3-0.2-0.5c0-0.4,0-0.8,0-1.2c0-0.9,0-1.8,0.1-2.7
		c0.2-2.1,1.9-3.7,4.1-3.7c0.2,0,0.3,0,0.5,0c2,0.2,3.6,2.1,3.5,4.3c-0.1,2.2-1.9,3.9-4.1,4l-2.5,0C11.9,19.3,11.6,19.3,11.3,19.3
		L11.3,19.3z M12.1,17.9c0.3,0,0.5,0,0.7,0l1.2,0c0.3,0,0.5,0,0.8,0c1.5,0,2.6-1.3,2.6-2.8c0-1.5-1.2-2.7-2.7-2.7l0-0.3v0.3
		c-1.5,0-2.7,1.2-2.7,2.7c0,0.3,0,0.6,0,0.9l0,0.8c0,0.3,0,0.7,0,1c0,0.1,0,0.1,0,0.1c0,0,0,0,0,0C12,17.9,12,17.9,12.1,17.9z"/>
	<path class="st4" d="M13.2,19c-0.6,0-1.2,0-1.8,0c-0.3,0-0.5-0.1-0.5-0.4c0-1.3-0.1-2.6,0-3.9c0.2-2.2,2.1-3.6,4.3-3.4
		c1.9,0.2,3.4,2,3.3,4c-0.1,2.1-1.7,3.7-3.8,3.7C14.2,19,13.7,19,13.2,19z M11.7,16.3c0,0.5,0,1,0,1.4c0,0.3,0.1,0.4,0.4,0.4
		c0.9,0,1.8,0,2.7,0c1.6,0,2.9-1.4,2.9-3.1c0-1.7-1.4-3-3-3c-1.6,0-3,1.3-3,3C11.7,15.4,11.7,15.9,11.7,16.3z"/>
</g>
</svg>
