<?xml version="1.0" encoding="utf-8"?>
<!-- Generator: Adobe Illustrator 22.1.0, SVG Export Plug-In . SVG Version: 6.00 Build 0)  -->
<svg version="1.1" id="Layer_1" xmlns="http://www.w3.org/2000/svg" xmlns:xlink="http://www.w3.org/1999/xlink" x="0px" y="0px"
	 viewBox="0 0 27.4 36.2" style="enable-background:new 0 0 27.4 36.2;" xml:space="preserve">
<style type="text/css">
	.st0{fill:#FFFFFF;}
	.st1{fill:url(#SVGID_1_);}
	.st2{fill:url(#SVGID_2_);}
	.st3{fill:#575756;}
	.st4{fill:#DB0011;enable-background:new    ;}
</style>
<rect x="124.4" y="-33.2" class="st0" width="100" height="100"/>
<image style="overflow:visible;enable-background:new    ;" width="1152" height="1385" xlink:href="AEC74F14.png"  transform="matrix(6.760509e-02 0 0 6.760509e-02 138.1826 -28.5301)">
</image>
<g>
	<g>
		
			<linearGradient id="SVGID_1_" gradientUnits="userSpaceOnUse" x1="103.5447" y1="-0.3166" x2="139.8085" y2="-0.3166" gradientTransform="matrix(2.236 0 0 2.236 10.6427 38.0501)">
			<stop  offset="0" style="stop-color:#5BC4F1"/>
			<stop  offset="0.1279" style="stop-color:#56BBE9"/>
			<stop  offset="0.3366" style="stop-color:#47A3D3"/>
			<stop  offset="0.6" style="stop-color:#307BAE"/>
			<stop  offset="0.905" style="stop-color:#0F447D"/>
			<stop  offset="1" style="stop-color:#04326C"/>
		</linearGradient>
		<path class="st1" d="M249.7,50c0.1,0.1,0.1,0.1,0.1,0.2c0,0.2-0.1,0.3-0.3,0.2c-0.1-0.1-0.1-0.1-0.2-0.2c-0.1-0.2-0.2-0.3-0.4-0.4
			c-0.1-0.1-0.3-0.3-0.3-0.4s0-0.1,0-0.2c0,0,0.1-0.1,0.2,0C249.2,49.5,249.4,49.7,249.7,50z M250.2,36.6c0.1,0.1,0.3,0.3,0.6,0.3
			c0-0.2-0.3-0.4-0.4-0.5c-0.7-0.7-1.1-1.5-1.3-1.7c-1.3-2-1.6-5-1.5-5.3c0-0.1,0-1.7-0.2-2c-0.1,0.1-0.1,0.3-0.1,0.3
			c-0.1,0.8-0.1,1.7,0,2.6C247.3,30.5,248,34.4,250.2,36.6z M242.7,30.3L242.7,30.3c0.1-0.8,0.1-2.3,0.2-3.1c-0.1,0-0.1,0-0.1,0
			c-0.1,0.8,0,2.1-0.1,2.9C242.6,30.2,242.6,30.2,242.7,30.3z M250.7,37.6c0,0.1,0,0.1,0,0.2c0.1,0.1,0.3,0.2,0.4,0.1
			c-0.1-0.2-0.1-0.3-0.3-0.3C250.8,37.5,250.7,37.6,250.7,37.6z M244.1,37c0.1,0.4,0.2,0.8,0.4,1.1c0.1,0.3,0.6,1.6,0.8,1.6
			c0.1-0.1-0.9-2-1-3.3c-0.1,0-0.1,0-0.2,0C244.1,36.7,244.1,36.8,244.1,37z M243.3,32.7c-0.2,0.6-0.2,0.9,0.3,1.6
			C243.4,33.7,243.7,33.7,243.3,32.7z M245.6,42c-0.1-0.1-0.1-0.1-0.1-0.2c-0.1,0.7-0.1,0.7,0.5,0.9C245.8,42.4,245.7,42.1,245.6,42
			z M242.5,34.5c-0.1-0.4-0.2-2.2-0.2-2.8c0-0.1,0-0.3,0-0.4c-0.1,0.1-0.1,0.2-0.1,0.3c-0.1,0.9,0,2.6,0,3.1
			c0.1,1.1,0.9,4.9,1.2,6.1c0.6,1.9,1.9,4.1,2.3,4.6c0.1,0.2,0.3,0.3,0.5,0.3c-0.7-0.8-1.3-2-1.3-2
			C243.1,40.1,242.6,35.3,242.5,34.5z M291.7,55.7c-0.1-0.1-0.4-0.1-0.4,0.1c-0.1,0.3-0.4,0.3-0.6,0.4c-0.1,0.1-0.2,0.2-0.1,0.3
			c0.1,0.1,0.2,0.1,0.3,0.1c0.4-0.1,0.7-0.2,0.9-0.6C291.7,56,291.9,55.8,291.7,55.7z M289.7,56.9c0.1,0.1,0.2,0.2,0.3,0.1
			c0.1,0,0.1-0.2,0.2-0.3c-0.1-0.1-0.2-0.1-0.3-0.2C289.8,56.8,289.7,56.9,289.7,56.9z M248.9,49.2c-0.1,0-0.1,0-0.2,0
			c0,0.1-0.1,0.1,0,0.2s0.2,0.3,0.3,0.4c0.2,0.1,0.3,0.2,0.4,0.4c0,0.1,0.1,0.1,0.2,0.2c0.1,0.1,0.3,0,0.3-0.2c0-0.1,0-0.2-0.1-0.2
			C249.4,49.7,249.2,49.5,248.9,49.2z M323.1,16c0,0.1,0,0.1,0,0.2c-0.1,0.2-0.1,0.4-0.2,0.6c0,0-5.4,32.4-6.4,32.9
			c-0.4-0.2-2.5-5.7-2.5-5.7l-0.2-0.2l-0.1-0.6l-0.1-0.2c-0.3,0.3-0.6,0.6-0.9,0.8c-0.1,0.1-0.1,0.1-0.3,0.1c0-0.1,0-0.2,0-0.3
			c-0.4,0.3-0.9,0.8-1.7,1.5c-1.1,1.1-2.6,2.5-4.9,3.9c-0.2,0.3-0.9,0.8-0.8,0.8c-0.3,0.2-0.6,0.4-0.9,0.6c-0.1,0.3-0.3,0.3-0.4,0.4
			c-0.3,0.3-0.6,0.4-0.9,0.6c-0.8,0.4-1.5,0.8-2.3,1.2c-0.5,0.3-1.1,0.6-1.6,0.9c-0.2,0.1-0.3,0.3-0.5,0.3c-1.6,1-3.3,1.8-5.2,2.5
			c-0.4,0.1-0.8,0.3-1.1,0.4c-0.8,0.6-1.6,0.9-2.5,1.1s-1.9,0.6-2.9,0.8c-4,1.1-7.6,1.5-11.7,1.8c-2.6,0.2-6.2-0.3-6.7-0.3
			c0.2-0.2,0.3-0.3,0.6-0.2c0.1,0.1,0.3,0.1,0.5,0.1s0.4-0.1,0.6-0.1c2,0.3,6.5-0.1,7.3-0.2c8.1-0.8,14.1-5,14.1-5s-8.2,4-14.6,4.5
			c-5.7,0.4-10.9-0.1-11.4-0.1c-0.3-0.1-1.3-0.2-2.6-0.5c-0.8-0.1-1.7-0.3-3-0.8c-0.2,0-0.4,0-0.5-0.2l0,0c-0.2-0.1-0.4-0.1-0.6-0.2
			c-0.1,0-0.1,0-0.2,0c-0.1-0.1-0.3-0.1-0.4-0.2s-0.2-0.1-0.3-0.2c-0.9-0.4-1.8-0.8-2.6-1.3c-0.7-0.4-1.4-0.9-2.1-1.4
			c-0.4-0.2-0.7-0.4-1-0.7c-0.3-0.3-0.6-0.6-0.9-0.9c-3-2.7-4.7-5.4-4.8-5.5c0.2-0.1,0.3,0,0.3,0.1c0.1,0.1,1.3,1.6,1.6,1.6
			c0.1-0.2,0-0.3-0.1-0.5c-0.4-0.5-0.1-0.3-0.6-0.8c-0.2-0.2-0.1-0.3,0.3,0c0.8,0.6,0.8,0.4,1.1,0.7c0.1,0.1,0.4,0.2,0.7,0.1
			c0.1-0.2-0.4-0.9-0.6-1.1c-0.3-0.5-0.9-1.1-1.1-1.1c-0.3-0.1,0.1-0.1,0-0.4c-0.1-0.2-0.8-0.7-0.8-1c0.1-0.3,0.6,0.6,0.9,0.9
			c0.1,0.1,0.3,0.1,0.5,0.3c0.2,0.1,1.4,2,1.6,2.3c0.3,0.3,1.8,1.8,2.5,2.4c0.4,0.3,2.4,1.9,5.5,3c2.4,0.9,8.1,1.2,8.1,1.2
			s-5.5-1.1-7.6-2c-5.6-2.3-7.4-4.8-7.5-5c-0.7-0.8-3.9-4.4-4.2-4.7c-0.1-0.4-0.6-0.9-0.6-1.1s0.3-0.1,0.3-0.1
			c0.1,0.1,0.5,1,0.7,0.8c0.3-0.2-0.3-0.4-0.3-0.6c-0.1-0.6-0.4-1.4-0.7-1.6s-0.4-0.6-0.7-1.2c-0.1-0.2-0.1-0.4-0.1-0.6
			c0.1,0,0.1,0,0.1-0.1c0.1,0.1,0.2,0.3,0.3,0.4c0.2,0.4,1.4,2.5,1.5,2.5c0.3,0.4,0.6,0.8,0.9,1.2c0.5,0.7,1.2,1.5,2,2.1
			c1.2,1.1,2.4,1.6,2.4,1.6c-2.8-2-3.8-3.4-5.4-6.2c-0.6-1.1-0.8-2.1-1-2.3c-0.2-0.4-0.3-0.9-0.4-1.1c-0.2-0.4-0.5-0.7-0.8-1.1
			c-0.2,0.1,0.1,0.8,0.1,1c0.1,0.2,0.2,0.3,0.1,0.6c-0.1,0.1-0.3-0.1-0.3-0.1c-0.2-0.3-0.6-1.3-0.7-1.5c-0.8-1.8-0.7-3.2-0.7-3.9
			c-0.1-0.9,0-1.6,0-2.3c0-0.9,0.4-4.2,0.5-5c0-0.1,0.1-0.2,0.1-0.4c0.2,0.4,0.1,0.8,0.1,1.1s0,2.1,0,2.5c-0.1,1.4-0.1,2.6,0.4,3.9
			c0.5,1.2,0.2,1.3,1.5,4.4c4,9.3,12.1,10.1,12.1,10.1s-7.9-2.8-11.4-9.5c-1-2-0.3-0.1-1.2-3.5c-0.1-0.5-0.3-1.2,0-1.2
			c0.2,0,0.2-0.6,0.3-0.8c0-0.2-0.1-0.5,0.1-0.6c0.2-0.1,0.1,0.9,0.3,1.3c0.2,0.4-0.4,0,0.5,2.2c0.1,0.2,1.3,3.1,4.6,5.7l0,0
			c0.1,0.1,0.3,0.1,0.4,0.2c0.4,0.3,0.9,0.7,1.4,0.9c0.3,0.2,0.7,0.3,1,0.4c0.7,0.3,1.3,0.7,2,1c0,0,0.3,0.1,0.8,0.4
			c0.2,0.1,0.4,0.1,0.6,0.2c0.4,0.1,0.8,0.3,1.2,0.3c0.1,0,0.1,0,0.2,0c0.6,0.1,1.1,0.3,1.6,0.3c0.4,0.1,1.6,0.1,1.9,0.3
			c1.2,0.1,2.5,0.2,3.7,0.2c0.3,0,0.6-0.1,0.8-0.1c0.1,0,0.3-0.1,0.3,0.1c0,0,0,0,0.1,0c1.5-0.1,3-0.3,4.4-0.5l0,0
			c0.6-0.1,1.3-0.2,1.8-0.3h0.1l0,0c0.2,0,0.4-0.1,0.5-0.1c-0.1,0,0.3-0.1,0.4-0.1c0.2-0.1,0.4-0.2,0.6-0.3c0.7-0.2,1.3-0.5,2-0.8
			c1.4-0.5,2.8-1.1,4.2-1.6c0,0,0.6-0.3,1.6-0.7c1.3-0.6,2.6-1.3,3.8-2c0.2-0.1,0.4-0.3,0.6-0.1c0.6-0.3,1.1-0.6,1.7-0.9
			c2.8-1.8,7.1-5.2,7-5.2c0.4-0.3,1.1-0.9,1.1-0.9c0.7-0.6,0.8-0.7,0.8-0.9s-0.9-0.4-0.9-0.4s-7-1.5-7-1.7c0-0.3,4-1.5,6.9-2.5l0,0
			c0.2-0.1,0.4-0.3,0.6-0.4c2.6-0.7,7.2-3.2,9.8-3.8c8.3-3.5,13.2-6,13.8-6.3c1.5-0.7,1.5,0.8,1.5,0.8L323.1,16L323.1,16z M299.5,31
			c-0.9,0.8-1.7,1.5-2.6,2.2c-0.9,0.8-1.8,1.5-2.6,2.1c-0.9,0.7-1.8,1.3-2.8,2c-0.5,0.3-0.9,0.6-1.5,0.9c-0.5,0.3-1,0.6-1.5,0.8
			c1.1-0.4,2.1-0.9,3.1-1.5s2-1.2,2.8-1.9c0.9-0.7,1.8-1.4,2.6-2.2c0.4-0.4,0.8-0.8,1.3-1.2C298.7,31.8,299.1,31.4,299.5,31z"/>
		
			<linearGradient id="SVGID_2_" gradientUnits="userSpaceOnUse" x1="111.8454" y1="-18.5995" x2="142.1336" y2="-18.5995" gradientTransform="matrix(2.236 0 0 2.236 10.6427 38.0501)">
			<stop  offset="0" style="stop-color:#04326C"/>
			<stop  offset="0.1279" style="stop-color:#093B74"/>
			<stop  offset="0.3366" style="stop-color:#18538A"/>
			<stop  offset="0.6" style="stop-color:#2F7BAE"/>
			<stop  offset="0.905" style="stop-color:#50B2E0"/>
			<stop  offset="1" style="stop-color:#5BC4F1"/>
		</linearGradient>
		<path class="st2" d="M312.4-0.9c0.1,0.4-0.1,0.7-0.3,0.7c-0.3-3.7-1.8-6.4-1.9-6.6c0.3-0.1,0.5,0.1,0.6,0.3
			C311-6.1,312-3.8,312.4-0.9z M310.2-7.2c0-0.6-3.6-4.3-4-4.4c-0.1,0-0.1,0-0.3,0.1c0.1,0.1,3,2.6,3.7,4
			C309.8-7.3,310-7.2,310.2-7.2z M304.5-12.7c-0.1,0-0.1,0-0.3,0c0.3,0.3,1.1,0.8,1.3,0.8C305.6-11.9,304.9-12.5,304.5-12.7z
			 M312.2,1.8c0,0.1,0.1,0.3,0.3,0.3c0-0.6,0.1-1.2-0.1-1.6c-0.1,0-0.1,0.1-0.1,0.1C312.2,0.9,312.2,1.3,312.2,1.8z M328.3,3.4
			c-0.1,0.7-0.3,1.3-0.4,2l0,0C327.8,6,327.5,7,327,7.9c-0.1,0.2-0.1,0.3-0.3,0.5l0,0l0,0c-0.3,0.5-0.4,0.9-0.6,1.1
			c-0.3,0.5-0.6,0.9-0.7,1.1l0,0c-0.2,0.3-0.4,0.6-0.6,0.9c-0.1,0.1-0.3,0-0.3-0.1c0.6-1.3,0.8-2.4,0.9-3.4
			c-0.3,0.8-1.2,1.6-1.3,1.9c-0.1,0.3-0.6,1.1-0.7,1.1c-0.4,0.3-1,1-1.3,1.5c-0.2,0.3-0.9,0.7-0.9,0.8c-0.1,0.2-0.3,0.3-0.6,0.4
			c0.1-0.6,0.4-0.6,0.6-1.1c0.3-0.4,0.4-0.7,0.6-1.2c-0.3,0-0.6,0.8-0.8,0.8c-0.3,0.1-0.4-0.1-0.5-0.1c0.1-0.3,0.2-0.7,0.4-0.9
			c0.4-0.3,0.9-2.6,0.9-2.8c0-0.5,0.4-1.8,0.6-2.2c0.1-0.3-0.3-1.1-0.1-1.8c0.1-0.2-0.2-0.4-0.3-0.4c-0.3,0.1-0.4,1.1-0.4,1.4
			c0,0,0,0.1-0.1,0.3c0.1,0.3,0.1,0.4,0.1,0.4c0,0.2-0.1,0.7-0.1,1.5c-0.1,0.8-0.7,2.6-1.2,3.3c-0.4,0.6-0.3,0.4-0.9,0.8
			c-0.6,0.4,0.6-0.1-0.8,0.6c-1.4,0.7-1.6,0.9-1.6,1.1c-0.1,0.2-0.1-0.7,0.3-0.9c0-0.1,0.1-0.1,0.1-0.2l1.6-4.1
			c0.4-1.5,0.5-3.4,0.5-3.5c0.3-2.1-0.9-6.7-0.9-6.7s0.8,4.9,0.3,7.1c-0.1,1.3-0.6,4.4-2.3,7c-0.1,0.2-1.4,2.1-1.5,2.1
			c-0.6,0.3-1.2,1.9-1.5,1.8c-0.2-0.3,0-1,0.4-1.3c0.3-0.2,0.8-0.6,0.8-0.9c0-0.1,0.6-1.8,0.8-2c0.2-0.3,0.4-1.1,0.1-1.1
			c-0.2-0.1-0.4,0.1-0.4,0.3c-0.1,0.4-0.6,1.3-0.7,1.3c-0.4,0.2-0.6,0.5-0.8,0.8c-0.1,0.1-2,2.8-2.3,2.8c-0.2,0-1.2,0.8-1.4,0.9
			c-0.1,0.2-0.3,0.4-0.5,0.6c-0.1,0.1-0.4,0.1-0.6,0.1c-0.1,0-0.2,0-0.2,0.1l0.1-0.1l0,0c0,0,0.4-0.4,0.7-0.9
			c-0.1,0.1-0.1,0.3-0.2,0.4l0,0c0.1-0.1,0.1-0.1,0.1-0.2c0,0,0,0,0-0.1c0.1-0.1,0.1-0.2,0.1-0.3c0,0,0,0,0-0.1
			c0.1-0.1,0.1-0.2,0.1-0.3v-0.1c0.1-0.1,0.1-0.2,0.1-0.3s0.1-0.1,0.1-0.3c0,0,0-0.1,0.1-0.1c0.2-0.4,0.4-0.8,0.5-1.1
			c1.2-2.5,1.6-3.9,2.3-6.6c0.2-0.9,0.5-4.4,0.5-4.8c0-0.7,0-1.1-0.1-1.3c-0.3-7.7-3.7-12.2-7.7-14.8c-0.1-0.1-0.3-0.1-0.3-0.2
			c-0.5-0.3-0.9-0.6-1.5-0.9c-0.3-0.2-0.7-0.3-1.1-0.4c-0.7-0.3-1.4-0.6-2.1-0.9c0,0-0.3-0.1-0.9-0.3c-0.7-0.2-1.5-0.4-2.1-0.6
			c-0.1,0-0.1,0-0.1-0.1c-1.5-0.3-2.8-0.4-3.6-0.4c-2.6,0-5.6,0.2-8.4,0.7c-0.2,0.1-0.4,0.1-0.6,0.1c-0.4,0.1-0.7,0.3-1.1,0.3
			c-0.8,0.2-1.5,0.3-2.2,0.5c0,0-0.3,0.1-0.8,0.2c-0.1,0-0.1,0-0.1,0.1c-0.7,0.3-1.3,0.5-2,0.8c-0.1,0-0.1,0.1-0.2,0.1h-0.1
			c-2.1,0.8-3.9,1.5-5.7,2.3c-0.1,0.1-0.4,0.3-0.4,0.3l0,0c-0.9,0.4-1.8,1-2.8,1.6l3.1,1c-0.6,0.3-5.4,1.8-8.8,2.6
			c-0.6,0.2-1.1,0.4-1.6,0.5l0,0l0,0c0-0.1,0.2-0.1,0.3-0.2c-0.6,0.1-1.1,0.3-1.5,0.3c-0.2,0-0.3,0-0.4-0.1
			c-0.4-0.4,6.8-10.1,6.8-10.1l0,0l0,0l-0.1,3c0,0,7.4-5.5,15.9-8.3c0.1-0.1,0.3-0.1,0.4-0.1s0.1-0.1,0.1-0.1
			c0.8-0.3,1.7-0.6,2.6-0.8c0.2,0,0.4-0.1,0.6-0.2c0.4-0.2,1.7-0.4,2-0.4c3.6-0.8,7.3-1.3,10.8-1.3c0.4,0,0.8-0.1,1.2-0.1
			c0.1,0,0.3,0,0.4,0c0.1-0.1,0.2-0.1,0.3-0.1c0.1,0,0.2,0,0.3,0.1l0,0c0.2,0,0.3,0,0.5,0.1c0.1-0.1,0.2-0.1,0.3-0.1l0,0l0,0
			c0.2,0,0.3,0,0.5,0c0.5,0.1,1.1,0.3,1.6,0.3c0.3,0.1,0.5,0.1,0.7,0.1c0.9,0.1,1.8,0.3,2.6,0.6c0.2,0.1,0.4,0.1,0.6,0.1
			c0.4,0,0.8,0.1,1.2,0.3c0.2,0.1,0.4,0.2,0.6,0.3c4.8,1.6,9.3,4.4,13.1,8.7c0,0,0.3,0.3,0.7,0.9c0.1,0.1,0.1,0.2,0.3,0.4l0.1,0.1
			c0,0,0,0.1,0.1,0.1c0,0.1,0.1,0.1,0.1,0.1l0,0c1.1,1.7,3.7,6.5,3.5,12.6C328.4,1.5,328.4,2.4,328.3,3.4z M322.3-13L322.3-13
			c1.1,1.2,2.2,2.6,3.1,4.2c0.2,0.4,0.4,0.7,0.6,1.1c-0.3-0.9-0.6-1.7-1-2.5c-0.6-1.1-1.2-2.1-2-3l0,0c-1.1-1.4-2.3-2.5-3.2-3.2
			c-1.4-1.1-3.4-2.4-5.4-3.2c-0.1,0,4.3,2.8,6.3,4.9C321.3-14.1,321.8-13.5,322.3-13L322.3-13L322.3-13z M279.3-18.7
			c-1.9,0.8-5.9,2.9-7.1,4c1.3-0.7,5.5-2.9,7.3-3.6c4-1.6,6.7-2.6,8.1-3C285.1-21,281.6-19.7,279.3-18.7z"/>
	</g>
	<g>
		<g>
			<path class="st3" d="M243.2,11.9c1.6-2.7,2.8-4.7,3.9-5.9c1-1.3,2.1-2.3,3.3-3.1c1.2-0.8,2.6-1.5,4-1.8c1.5-0.4,3.2-0.6,5-0.6
				h6.3l-2.1,3.7h-6.7c-1.8,0-3.3,0.4-4.6,1.2c-1.3,0.8-2.5,2.1-3.5,3.9h11.8l-2.1,3.7h-11.8l-5,8.7h-4.2L243.2,11.9z"/>
			<path class="st3" d="M269,0.5h9c1.5,0,2.6,0.1,3.5,0.3c0.8,0.2,1.4,0.4,1.7,0.8c0.5,0.6,0.8,1.4,0.6,2.4c-0.1,1-0.6,2.1-1.3,3.4
				c-0.8,1.3-1.6,2.3-2.5,3.3c-0.9,0.9-1.9,1.6-3,2.3c-0.9,0.5-1.8,0.8-2.8,1.1c-0.9,0.2-2.3,0.3-4,0.3h-5l-4.2,7.4h-4.1L269,0.5z
				 M275.8,4.2H271l-3.6,6.2h5c1.3,0,2.3-0.3,3.2-0.8c0.9-0.5,1.6-1.3,2.3-2.3c0.6-1.1,0.8-2,0.5-2.4C278.1,4.5,277.2,4.2,275.8,4.2
				z"/>
			<path class="st3" d="M304.2,4.2H294c-1.1,0-2,0.2-2.8,0.6s-1.5,1.1-2,2.1c-0.4,0.8-0.6,1.3-0.3,1.7c0.2,0.4,0.8,0.6,1.6,0.6h5.4
				c2.3,0,3.6,0.4,4,1.4c0.4,0.9,0,2.5-1.2,4.6c-1.3,2.2-2.7,3.8-4.4,4.8c-1.7,1-3.7,1.5-6.1,1.5h-11.1l2.2-3.8h10.3
				c1.2,0,2.1-0.2,2.8-0.6c0.7-0.4,1.3-1,1.8-1.8c0.5-0.9,0.6-1.5,0.4-1.9c-0.3-0.4-0.9-0.6-2-0.6h-4.9c-2.3,0-3.6-0.5-4.1-1.5
				c-0.5-0.9-0.1-2.5,1.1-4.6c1.3-2.3,2.8-3.9,4.5-4.9s3.7-1.6,6.1-1.6h10.8L304.2,4.2z"/>
		</g>
	</g>
</g>
<image style="overflow:visible;enable-background:new    ;" width="1516" height="759" xlink:href="AEC74F13.png"  transform="matrix(6.018858e-02 0 0 6.018858e-02 138.0236 92.32)">
</image>
<image style="overflow:visible;enable-background:new    ;" width="801" height="329" xlink:href="AEC74F1C.png"  transform="matrix(0.1228 0 0 0.1228 -140.6659 -139.5034)">
</image>
<image style="overflow:visible;enable-background:new    ;" width="801" height="329" xlink:href="AEC74F1F.png"  transform="matrix(0.1228 0 0 0.1228 -9.9992 -70.0517)">
</image>
<path class="st4" d="M3.7,36.2c-2.1,0-3.7-1.6-3.7-3.8c0-2.4,0-4.8,0-7.2c0-3.3,0-6.5,0-9.8c0-1.7,0-3.7,0.5-5.6
	c1.6-5.4,6.4-9.3,12-9.8c0.4,0,0.8,0,1.1,0c6.9,0,12.6,5,13.6,11.8c0.5,3.7-0.5,7.4-2.9,10.4c-2.3,2.9-5.8,4.8-9.5,5.1
	c-0.6,0.1-1.3,0.1-2,0.1l-0.5,0c-0.5,0-1.1,0-1.7,0l-1.5,0c-0.4,0-0.9,0-1.4,0c0,0,0,0,0,0c-0.1,0-0.2,0-0.2,0c0,0,0,0,0,0.2
	c0,0.9,0,1.8,0,2.7c0,0.7,0,1.4,0,2.1C7.6,34.6,6,36.2,3.7,36.2L3.7,36.2z M1.4,27.6l0,1.4c0,1.1,0,2.2,0,3.2c0,1.3,0.7,2.3,1.8,2.5
	c0.2,0,0.4,0.1,0.6,0.1c1.4,0,2.4-1,2.5-2.5l0-0.2c0-1.7,0.1-3.4,0.1-5c0-0.7,0.3-1,1-1c0.6,0,1.1,0,1.7,0l2.1,0c0.3,0,1.5,0,1.8,0
	c0.7,0,1.6,0,2.4-0.1c6.6-1,11.2-6.8,10.5-13.5c-0.6-6.2-6-11-12.2-11c-0.8,0-1.7,0.1-2.5,0.3C5.4,2.9,1.4,7.9,1.4,13.8v13.5
	L1.4,27.6z"/>
<path class="st4" d="M10.8,27.2c-0.7,0-1.8,0-2.9,0c-0.4,0-0.5,0.1-0.5,0.5c0,1.6-0.1,3.2-0.1,4.8c0,2.1-1.5,3.6-3.6,3.6
	c-2,0-3.4-1.5-3.5-3.5c0-5.7,0-11.3,0-17c0-1.9,0-3.7,0.5-5.5c1.5-5.3,6.3-9.1,11.7-9.5C19.7-0.2,26,4.8,27,11.9
	c1.1,7.5-4.5,14.5-12.1,15.2C13.7,27.2,12.4,27.1,10.8,27.2z M1.1,27.6C1.1,27.6,1.1,27.6,1.1,27.6c0,1.5,0,3.1,0.1,4.6
	c0,1.4,0.8,2.6,2,2.8c1.8,0.4,3.4-0.9,3.4-2.8c0-1.7,0.1-3.5,0.1-5.2c0-0.5,0.2-0.8,0.7-0.7c1.2,0,2.4,0,3.6,0c1.5,0,3,0.1,4.5-0.1
	c6.8-1,11.4-7,10.8-13.9C25.5,5,18.3-0.2,11.1,1.4C5.2,2.6,1.1,7.7,1.1,13.8C1.1,18.4,1.1,23,1.1,27.6z"/>
<path class="st4" d="M3.8,33c-0.4,0-0.7-0.3-0.7-0.8l0-9.7c0-1,0-2.1,0-3.1c0-2,0-4.2,0.1-6.2C3.4,8.3,7.5,4,12.3,3.5
	c0.4,0,0.8-0.1,1.2-0.1c5.2,0,9.3,3.4,10.4,8.6c0.6,2.8-0.1,5.9-1.9,8.2c-1.8,2.4-4.5,3.9-7.4,4.2c-0.5,0.1-1.1,0.1-1.7,0.1l-0.1,0
	c-2,0-3.9,0-5.9,0c0,0-2.1,0-2.1,0c-0.2,0-0.3,0-0.3,0c0,0,0,0,0,0.3c0,1.7,0,3.5,0,5.2l0,2.2C4.5,33,4,33,3.8,33L3.8,33z
	 M10.4,23.2c0.4,0,0.7,0,1.1,0c0.4,0,0.8,0,1.2,0c0.6,0,1.5,0,2.4-0.2c4.7-0.7,8-5,7.7-9.8c-0.3-4.6-4.3-8.3-8.9-8.4l-0.2,0
	c-5,0-9.1,4.1-9.1,9.1c0,1.8,0,3.5,0,5.3c0,1.2,0,2.5,0,3.7c0,0.2,0,0.2,0,0.2l0,0c0,0,0,0,0.2,0c0.7,0,1.4,0,2.2,0l2.8,0
	C9.9,23.2,10.1,23.2,10.4,23.2z"/>
<path class="st4" d="M3.4,22.5c0-3.1-0.1-6.2,0-9.3c0.2-4.7,4.2-8.9,8.9-9.4c5.5-0.6,10.2,2.9,11.3,8.3c1.2,5.8-3.1,11.5-9,12.1
	c-0.6,0.1-1.1,0.1-1.7,0.1c-2.7,0-5.4,0-8.1,0c-0.5,0-0.6,0.1-0.6,0.6c0,2.4,0,4.7,0,7.1c0,0.1,0,0.2,0,0.3c0,0.3-0.1,0.5-0.4,0.5
	c-0.3,0-0.4-0.2-0.4-0.5c0-1.2,0-2.3,0-3.5C3.4,26.7,3.4,24.6,3.4,22.5z M9.7,23.5c1.6-0.1,3.5,0.2,5.3-0.1
	c4.8-0.7,8.3-5.2,7.9-10.1c-0.4-4.8-4.4-8.6-9.2-8.7c-5.2-0.1-9.5,4.2-9.6,9.4c0,3,0,6,0,9c0,0.4,0.1,0.5,0.5,0.5
	C6.3,23.5,7.9,23.5,9.7,23.5z"/>
<path class="st4" d="M7.2,21.4c-0.2,0-0.5,0-0.8-0.3c-0.2-0.2-0.2-0.5-0.2-0.8c0-0.8,0-1.6,0-2.5l0-1.2c0-0.4,0-0.9,0-1.4
	c0-0.9-0.1-1.7,0.1-2.7c0.7-3.5,3.7-6,7.3-6c0.2,0,0.4,0,0.5,0c3.6,0.2,6.5,3.2,6.8,6.9c0.2,3.7-2.4,6.9-6,7.6
	c-0.4,0.1-0.8,0.1-1.2,0.1c-0.9,0-1.9,0-2.8,0C9.8,21.4,8.5,21.4,7.2,21.4L7.2,21.4z M13.1,8c-2.8,0.1-5.3,2.6-5.5,5.5
	c-0.1,1.2-0.1,2.4,0,3.6c0,0.9,0,1.9,0,2.9c0,0.1,0,0.1,0.1,0.1c0.5,0,2.2,0,2.2,0l0.5,0l0.3,0l2.7,0c1.8,0,3.5-0.8,4.7-2.2
	c1.1-1.4,1.6-3.2,1.3-4.9c-0.5-2.8-3-4.9-6-4.9C13.4,8,13.2,8,13.1,8z"/>
<path class="st4" d="M6.5,16.6c0.1-1.2-0.2-2.6,0.1-4c0.7-3.5,3.9-6,7.5-5.7c3.5,0.2,6.3,3.1,6.5,6.7c0.2,3.5-2.3,6.7-5.8,7.3
	C14.6,21,14.2,21,13.8,21c-2.2,0-4.4,0-6.5,0c-0.5,0-0.7-0.2-0.7-0.7C6.5,19.2,6.5,18,6.5,16.6z M10.8,20.3
	C10.8,20.3,10.8,20.3,10.8,20.3c0.9,0,1.8,0,2.7,0c4,0,6.9-3.5,6.2-7.4c-0.5-3.1-3.4-5.3-6.7-5.1c-3,0.1-5.6,2.7-5.8,5.7
	c-0.1,2.1,0.1,4.3,0,6.4c0,0.3,0.2,0.4,0.4,0.4C8.8,20.3,9.8,20.3,10.8,20.3z"/>
<path class="st4" d="M10.3,18.2c-0.2,0-0.4-0.1-0.6-0.2c-0.1-0.1-0.2-0.3-0.2-0.5c0-0.4,0-0.8,0-1.2c0-0.9,0-1.8,0.1-2.7
	c0.2-2.1,1.9-3.7,4.1-3.7c0.2,0,0.3,0,0.5,0c2,0.2,3.6,2.1,3.5,4.3c-0.1,2.2-1.9,3.9-4.1,4l-2.5,0C10.9,18.2,10.6,18.2,10.3,18.2
	L10.3,18.2z M11.1,16.8c0.3,0,0.5,0,0.7,0l1.2,0c0.3,0,0.5,0,0.8,0c1.5,0,2.6-1.3,2.6-2.8c0-1.5-1.2-2.7-2.7-2.7l0-0.3v0.3
	c-1.5,0-2.7,1.2-2.7,2.7c0,0.3,0,0.6,0,0.9l0,0.8c0,0.3,0,0.7,0,1c0,0.1,0,0.1,0,0.1c0,0,0,0,0,0C11,16.8,11,16.8,11.1,16.8z"/>
<path class="st4" d="M12.2,17.9c-0.6,0-1.2,0-1.8,0c-0.3,0-0.5-0.1-0.5-0.4c0-1.3-0.1-2.6,0-3.9c0.2-2.2,2.1-3.6,4.3-3.4
	c1.9,0.2,3.4,2,3.3,4c-0.1,2.1-1.7,3.7-3.8,3.7C13.2,17.9,12.7,17.9,12.2,17.9z M10.7,15.2c0,0.5,0,1,0,1.4c0,0.3,0.1,0.4,0.4,0.4
	c0.9,0,1.8,0,2.7,0c1.6,0,2.9-1.4,2.9-3.1c0-1.7-1.4-3-3-3c-1.6,0-3,1.3-3,3C10.7,14.3,10.7,14.8,10.7,15.2z"/>
</svg>
